<?xml version="1.0" encoding="utf-8"?>
<!-- Generator: Adobe Illustrator 27.5.0, SVG Export Plug-In . SVG Version: 6.00 Build 0)  -->
<svg version="1.1" xmlns="http://www.w3.org/2000/svg" xmlns:xlink="http://www.w3.org/1999/xlink" x="0px" y="0px"
	 viewBox="0 0 500 500" style="enable-background:new 0 0 500 500;" xml:space="preserve">
<g id="BACKGROUND">
	<polygon style="fill-rule:evenodd;clip-rule:evenodd;fill:#FFFFFF;" points="333.333,0 166.666,0 0,0 0,249.999 0,500 166.666,500 
		333.333,500 500,500 500,249.999 500,0 	"/>
</g>
<g id="OBJECTS">
	<g>
		<g>
			<g>
				<path style="fill-rule:evenodd;clip-rule:evenodd;fill:#F3F0E9;" d="M301.926,83.723
					c-54.106-27.935-185.064-20.369-156.484,28.306c28.579,48.675,63.766,60.397-11.811,69.348
					c-64.437,7.633-108.96,94.493-60.171,152.865c8.433,10.09,18.474,21.906,34.043,27.16c59.705,20.146,17.94,15.524,9.981,28.953
					c-26.458,44.641,181.984,68.249,232.015,50.276c51.851-18.628-52.622-56.031,18.263-76.488
					c70.885-20.458,146.428-109.481,69.059-161.955c-77.37-52.475-90.877-28.057-72.281-66.829S301.926,83.723,301.926,83.723z"/>
				<path style="fill-rule:evenodd;clip-rule:evenodd;fill:#CECCC1;" d="M245.819,68.963c-0.457-0.049-0.915-0.097-1.373-0.143
					l-2.313,1.63l-2.469-2.068c-0.527-0.042-1.057-0.078-1.585-0.117l3.268,2.738l-67.963,47.86l-30.857-25.852
					c-0.115,0.308-0.243,0.612-0.341,0.926l30.414,25.479l-15.256,10.742c0.178,0.246,0.354,0.491,0.53,0.735l15.443-10.876
					l62.1,52.024l-67.963,47.861l-43.779-36.678c-0.369,0.094-0.738,0.188-1.105,0.285l44.1,36.945l-67.964,47.86l-36.968-30.971
					c-0.134,0.292-0.269,0.583-0.398,0.877l36.581,30.647l-42.602,30.001c0.077,0.313,0.162,0.625,0.243,0.936l43.078-30.336
					l62.1,52.024l-55.495,39.081c0.338,0.132,0.68,0.261,1.024,0.387l55.19-38.865l62.099,52.024l-67.963,47.86l-37.985-31.823
					c-0.041,0.064-0.085,0.128-0.124,0.193c-0.127,0.215-0.213,0.425-0.329,0.638l37.653,31.546l-4.492,3.163
					c0.348,0.123,0.703,0.244,1.054,0.366l4.157-2.928l8.095,6.781c0.727,0.208,1.448,0.417,2.186,0.621l-9.496-7.955l67.963-47.86
					l62.1,52.024l-26.492,18.656c0.479,0.032,0.957,0.065,1.436,0.098l25.774-18.152l22.723,19.036
					c0.46-0.018,0.927-0.033,1.381-0.054L287.878,426.8l54.929-38.682c-0.088-0.311-0.178-0.622-0.249-0.933l-55.397,39.012
					l-62.1-52.024l67.963-47.86l55.448,46.452c0.246-0.189,0.506-0.378,0.769-0.566l-55.432-46.438l67.964-47.861l62.099,52.025
					l-40.927,28.82c1.382-0.579,2.762-1.179,4.138-1.806l37.508-26.413l1.729,1.448c0.24-0.202,0.478-0.405,0.718-0.608
					l-1.661-1.393l12.644-8.904c1.065-1.095,2.116-2.199,3.14-3.318l-16.502,11.62l-62.1-52.024l67.963-47.86l38.643,32.373
					c0.034-0.382,0.05-0.764,0.078-1.146l-37.934-31.781l20.393-14.36c-0.211-0.219-0.433-0.435-0.648-0.652l-20.465,14.411
					l-62.099-52.024l9.628-6.78c-0.33-0.144-0.653-0.282-0.976-0.421l-9.371,6.599l-62.099-52.024l38.235-26.926
					c-0.308-0.154-0.617-0.306-0.927-0.455l-38.027,26.778l-62.099-52.024L245.819,68.963L245.819,68.963z M99.426,268.92
					l67.962-47.861l62.1,52.025l-67.963,47.86L99.426,268.92L99.426,268.92z M162.243,321.546l67.963-47.86l62.099,52.025
					l-67.963,47.86L162.243,321.546L162.243,321.546z M168.173,220.506l67.964-47.86l62.099,52.024l-67.963,47.86L168.173,220.506
					L168.173,220.506z M230.991,273.133l67.963-47.86l62.099,52.024l-67.963,47.86L230.991,273.133L230.991,273.133z
					 M174.104,119.466l67.963-47.861l62.1,52.025l-67.963,47.86L174.104,119.466L174.104,119.466z M236.922,172.092l67.963-47.86
					l62.099,52.025l-67.963,47.86L236.922,172.092L236.922,172.092z M299.739,224.719l67.963-47.86l62.1,52.024l-67.963,47.861
					L299.739,224.719z"/>
			</g>
			<g>
				<g>
					<path style="fill-rule:evenodd;clip-rule:evenodd;fill:#E1A787;" d="M276.633,291.008c-5.129,1.793-5.28,1.93-5.28,1.93
						s-7.375,9.334-9.739,10.681c-0.863,0.491-6.355,2.465-10.483,4.061c-2.205,0.852-3.939,2.312-4.556,1.792
						c-2.691-2.268,6.382-8.174,7.651-9.268c0,0-12.26,3.504-16.407,4.097c-4.146,0.592-7.988,1.065-8.475-0.542
						c-0.487-1.608,2.643-3.174,2.643-3.174s-3.33-1.248-2.659-2.641c0.671-1.393,2.571-2.95,2.571-2.95s-1.782-0.754-0.968-2.75
						c0.816-1.995,4.323-4.059,4.323-4.059s0.83-1.063,2.565-3.261c1.736-2.195,11.979-6.715,17.365-6.85
						c5.385-0.136,7.77-0.239,7.77-0.239l8.994-0.715L276.633,291.008z"/>
					<path style="fill-rule:evenodd;clip-rule:evenodd;fill:#EBEBEB;" d="M274.676,274.428c-7.266,1.077-7.266,1.077-7.266,1.077
						l6.083,17.721l7.303-2.719L274.676,274.428z"/>
					<path style="fill-rule:evenodd;clip-rule:evenodd;fill:#D5DCE6;" d="M416.053,303.414
						c-1.908-12.16-13.909-26.912-18.558-29.934c-4.648-3.021-1.868-5.109-8.089-6.399c-6.221-1.29-13.583-2.923-15.17-3.542
						c-1.586-0.618-4.16-3.211-15.402-3.564c-11.241-0.353-21.588-2.736-21.588-2.736s-3.632,3.652-7.669,1.628
						c-4.038-2.024-3.528-2.446-6.199-1.523c-2.671,0.924-4.651,4.495-8.842,4.102c-4.191-0.396-5.347-3.088-13.935,0.803
						c-8.587,3.889-29.065,11.827-29.065,11.827l7.731,18.932c0,0,13.45-1.905,19.956-3.642c6.506-1.736,7.735-2.325,12.69-2.564
						c4.955-0.237,7.714-2.092,10.275-1.851c2.561,0.24,2.728,0.961,5.755,1.246c3.026,0.284,4.322-1.003,4.322-1.003
						s11.095,6.917,18.522,7.851c7.43,0.935,14.603,2.079,14.603,2.079L416.053,303.414z"/>
					<path style="fill-rule:evenodd;clip-rule:evenodd;fill:#575756;" d="M325.068,324.548c-8.769,2.522-17.555,5.505-22.964,15.518
						c-6.427,11.897-2.775,12.006,1.005,11.557c2.357-0.281,6.338-1.164,11.073-2.961c7.5-2.847,9.594-7.701,14.985-9.251
						c3.945-1.135,10.966-7.058,8.779-12.005C335.372,321.581,329.778,323.192,325.068,324.548z"/>
					<path style="fill-rule:evenodd;clip-rule:evenodd;fill:#575756;" d="M363.898,371.224c-1.624,8.978-3.702,18.021-13.118,24.414
						c-11.187,7.597-11.664,3.976-11.599,0.169c0.041-2.373,0.518-6.424,1.826-11.315c2.074-7.749,6.692-10.323,7.69-15.845
						c0.73-4.039,5.912-11.623,11.057-9.946C365.809,360.673,364.77,366.401,363.898,371.224z"/>
					<path style="fill-rule:evenodd;clip-rule:evenodd;fill:#C8CED9;" d="M443.009,316.061c1.171,7.336,10.352,16.067,10.871,20.43
						c0.518,4.363-0.446,7.853-2.232,13.381c-1.909,5.903-6.325,3.531-8.07,5.951c-2.162,3-3.732,5.502-6.745,6.418
						c-3.012,0.916-3.063,3.705-6.559,6.716c-3.496,3.01-10.004,4.732-11.591,5.722c-1.587,0.991-3.683,3.816-7.712,6.194
						c-4.029,2.379-13.018,7.854-18.446,9.315c-5.43,1.461-17.975,6.537-17.975,6.537l-2.968-20.204l37.466-24.775l20.032-8.099
						C429.08,343.647,442.669,331.852,443.009,316.061z"/>
					<path style="fill-rule:evenodd;clip-rule:evenodd;fill:#D5DCE6;" d="M431.853,352.943
						c-10.363,3.715-38.254,9.827-48.268,10.567c-10.015,0.739-11.603,3.938-14.108,7.432c-2.505,3.494-2.505,3.494-2.505,3.494
						s-19.657-2.337-27.24-9.182c-7.583-6.845-7.583-6.845-7.583-6.845l5.48-3.146c0,0-10.93-7.787-15.438-17.654
						c-4.508-9.869-6.359-30.494-6.359-30.494l32.7-8.565c0,0,26.137-25.696,42.546-21.055
						c16.408,4.642,52.889,38.642,54.574,40.898C456.208,332.529,448.91,346.83,431.853,352.943z"/>
					<path style="fill-rule:evenodd;clip-rule:evenodd;fill:#C10016;" d="M379.762,301.541c-6.918,17.233-8.955,43.274-8.955,43.274
						s11.898,5.805,29.449,0.357c17.553-5.447,24.57-10.105,24.57-10.105s-2.678-36.007-15.555-48.504
						C406.178,283.56,382.14,295.62,379.762,301.541z"/>
					<path style="fill-rule:evenodd;clip-rule:evenodd;fill:#E6EBF0;" d="M405.635,281.154c-13.19,2.722-22.91,13.204-22.91,13.204
						l-8.897-6.3c-4.291,13.203-13.413,45.602-2.81,57.313c0,0,15.482-37.24,17.367-39.521
						C390.27,303.571,405.635,281.154,405.635,281.154z"/>
					<path style="fill-rule:evenodd;clip-rule:evenodd;fill:#E6EBF0;" d="M438.332,317.496
						c-4.096,12.829-15.543,21.393-15.543,21.393l5.327,9.511c-13.614,2.885-47.057,8.205-57.288-3.239
						C397.117,336.235,413.848,329.223,438.332,317.496z"/>
					<path style="fill-rule:evenodd;clip-rule:evenodd;fill:#8A3334;" d="M402.656,356.089l1.684,47.282
						c0.039,1.102-0.794,2.135-1.89,2.297l-37.492,5.527c-1.096,0.161-2.057-0.606-2.097-1.709l-1.684-47.282
						c-0.038-1.103,0.795-2.135,1.891-2.297l37.492-5.527C401.656,354.219,402.617,354.986,402.656,356.089z"/>
					<path style="fill-rule:evenodd;clip-rule:evenodd;fill:#D68060;" d="M404.731,284.709c-3.463,3.558-7.278,8.429-10.495,12.701
						c-3.359,4.464-6.066,8.34-7.036,12.45c-0.672,2.843,0.153,6.418,1.884,9.845c0.736,1.455-3.677,8.182-2.586,9.456
						c0.493,0.578,7.061-3.028,8.073-2.068c2.662,2.524,5.729,4.288,8.69,4.529c4.272,0.348,26.438-8.109,26.788-10.987
						C430.894,313.715,404.731,284.709,404.731,284.709z"/>
					<path style="fill-rule:evenodd;clip-rule:evenodd;fill:#401D1B;" d="M464.045,298.166c1.561,8.481-4.535,12.324-9.233,15.758
						c-4.696,3.434-18.542,6.245-18.542,6.245S457.469,281.726,464.045,298.166z"/>
					<path style="fill-rule:evenodd;clip-rule:evenodd;fill:#E1A787;" d="M444.453,311.93c3.048-1.403,6.882,2.586,5.736,7.605
						c-1.146,5.02-13.622,6.932-16.679,2.694C430.454,317.991,444.453,311.93,444.453,311.93z"/>
					<path style="fill-rule:evenodd;clip-rule:evenodd;fill:#E1A787;" d="M401.107,319.631c9.349,6.694,23.201,5.862,35.529-0.172
						c6.043-2.958,11.588-8.719,15.059-12.179c13.52-13.478,21.776-21.544,9.149-34.275c-3.29-3.317-14.319-1.502-19.561-6.633
						c-2.424-2.371-5.161-8.576-10.746-6.274c-9.711,4.002-20.56,12.487-26.803,22.958
						C395.326,297.16,396.091,316.038,401.107,319.631z"/>
					<path style="fill-rule:evenodd;clip-rule:evenodd;fill:#D88866;" d="M447.379,311.519c1.313-1.233,2.508-2.428,3.551-3.472
						c3.57-4.911,9.213-13.07,9.611-16.093c0.584-4.443,5.379-14.265,0-17.773c-1.354-0.883-2.924-2.004-4.67-3.157
						c-4.677-0.881-10.993-1.133-14.588-4.651c-0.406-0.397-0.822-0.903-1.258-1.458c-1.135-0.025-2.287,0.055-3.455,0.263
						c-9.822,1.754-14.383-5.378-25.491,11.577c6.314-0.234,12.862,1.637,20.931,5.495c8.068,3.858,12.044,3.274,12.044,3.274
						s-5.379,7.717-2.924,15.902C443.011,307.692,446.055,310.532,447.379,311.519z"/>
					<path style="fill-rule:evenodd;clip-rule:evenodd;fill:#401D1B;" d="M424.852,282.73c1.185,1.017,1.126,3.026-0.129,4.489
						c-1.256,1.462-3.233,1.824-4.418,0.808c-1.184-1.017-1.126-3.025,0.13-4.489C421.69,282.076,423.668,281.714,424.852,282.73z"
						/>
					<path style="fill-rule:evenodd;clip-rule:evenodd;fill:#401D1B;" d="M441.338,300.639c0.963,1.228,0.514,3.188-1.004,4.377
						c-1.518,1.189-3.527,1.157-4.49-0.071c-0.963-1.229-0.513-3.188,1.005-4.377C438.365,299.378,440.376,299.41,441.338,300.639z"
						/>
					<path style="fill-rule:evenodd;clip-rule:evenodd;fill:#8A3334;" d="M428.145,281.093c-0.567-2.919-1.18-2.688-2.464-4.829
						c2.78-0.698,4.452,1.98,5.551,4.127c0.193,0.853-0.341,1.7-1.193,1.895C429.188,282.478,428.339,281.944,428.145,281.093z"/>
					<path style="fill-rule:evenodd;clip-rule:evenodd;fill:#8A3334;" d="M445.689,292.773c2.555,0.976,3.424,3.565,3.509,6.129
						c-0.813-0.511-3.804-3.3-4.154-3.031c-0.856-0.178-1.405-1.016-1.227-1.872C443.996,293.144,444.834,292.595,445.689,292.773z"
						/>
					<path style="fill-rule:evenodd;clip-rule:evenodd;fill:#D68060;" d="M419.877,298.912c1.463,2.318,5.691,5.965,5.691,5.965
						S417.484,307.926,419.877,298.912z"/>
					<path style="fill-rule:evenodd;clip-rule:evenodd;fill:#D68060;" d="M403.135,274.422c1.559-1.162,3.762-2.592,3.992-0.867
						c0.231,1.727-2.503,5.556-2.503,5.556s-1.357-1.044-2.207,0.222c-0.85,1.266-0.824,1.299-0.824,1.299
						S399.659,277.116,403.135,274.422z"/>
					<path style="fill-rule:evenodd;clip-rule:evenodd;fill:#401D1B;" d="M401.211,280.391c-0.11,0.164-0.065,0.386,0.1,0.496
						c0.164,0.108,0.387,0.065,0.496-0.1c0.154-0.232,0.285-0.459,0.411-0.676c0.345-0.594,0.645-1.111,0.917-1.016
						c0.638,0.228,1.078,0.694,1.08,0.695c0.139,0.143,0.365,0.145,0.507,0.006c0.02-0.02,0.036-0.04,0.051-0.063
						c0.011-0.018,3.817-5.971,1.689-7.043c-2.07-1.044-3.672,1.619-3.676,1.627c-0.104,0.169-0.051,0.39,0.118,0.493
						c0.169,0.104,0.391,0.05,0.493-0.118c0.004-0.007,1.268-2.105,2.742-1.362c1.195,0.603-1.022,4.461-1.751,5.66
						c-0.239-0.187-0.591-0.419-1.012-0.57c-0.835-0.297-1.275,0.46-1.779,1.329C401.472,279.967,401.341,280.192,401.211,280.391z"
						/>
					<path style="fill-rule:evenodd;clip-rule:evenodd;fill:#FFFFFF;" d="M425.057,285.223c0.164,0.282,0.068,0.645-0.215,0.809
						c-0.282,0.164-0.645,0.067-0.809-0.215c-0.164-0.282-0.068-0.645,0.215-0.809C424.53,284.844,424.893,284.94,425.057,285.223z"
						/>
					<path style="fill-rule:evenodd;clip-rule:evenodd;fill:#D68060;" d="M443.847,320.393c1.44-1.307,3.267-3.192,1.618-3.752
						c-1.648-0.559-5.933,1.388-5.933,1.388s0.764,1.533-0.642,2.124c-1.405,0.59-1.434,0.559-1.434,0.559
						S440.534,323.284,443.847,320.393z"/>
					<path style="fill-rule:evenodd;clip-rule:evenodd;fill:#401D1B;" d="M437.62,321.133c-0.183,0.075-0.393-0.011-0.468-0.194
						c-0.076-0.182,0.011-0.392,0.193-0.468c0.257-0.105,0.504-0.191,0.741-0.273c0.649-0.224,1.215-0.419,1.173-0.704
						c-0.101-0.67-0.474-1.192-0.475-1.194c-0.112-0.162-0.071-0.386,0.092-0.498c0.023-0.016,0.047-0.028,0.072-0.038
						c0.018-0.007,6.593-2.598,7.236-0.303c0.625,2.232-2.297,3.291-2.305,3.295c-0.186,0.068-0.393-0.026-0.461-0.212
						c-0.068-0.186,0.025-0.393,0.211-0.461c0.007-0.002,2.31-0.839,1.864-2.429c-0.36-1.289-4.574,0.146-5.892,0.629
						c0.138,0.271,0.299,0.66,0.364,1.103c0.132,0.877-0.696,1.163-1.646,1.49C438.085,320.957,437.838,321.042,437.62,321.133z"/>
					<path style="fill-rule:evenodd;clip-rule:evenodd;fill:#FFFFFF;" d="M441.195,302.34c0.105,0.31-0.06,0.646-0.369,0.752
						c-0.309,0.105-0.646-0.059-0.751-0.369c-0.105-0.309,0.06-0.646,0.369-0.751C440.753,301.866,441.09,302.031,441.195,302.34z"
						/>
					<path style="fill-rule:evenodd;clip-rule:evenodd;fill:#FFFFFF;" d="M426.672,300.701c1.809-2.697,1.976-3.243,1.531-1.445
						c-0.275,1.111-0.641,2.412-1.008,2.973C426.191,303.762,425.249,302.824,426.672,300.701z"/>
					<path style="fill-rule:evenodd;clip-rule:evenodd;fill:#8A3334;" d="M432.535,275.097c-1.587-0.471-3.131-0.889-4.559-1.042
						c-2.216-0.236-4.913,1.147-7.368,1.65c11.342,0.234,18.942,8.185,27.361,7.483c1.122-0.094,2.127-0.262,3.028-0.482
						c-5.94,4.262-8.597,9.561-8.406,14.396c0.233,5.965,2.806,8.77,2.806,8.77s-2.815-9.183,4.268-14.734
						c-1.393,3.402-2.539,6.34-2.695,6.902c-1.271,4.56-0.34,10.198-0.405,10.273c-3.039,3.448-5.728,5.517-5.728,5.517
						s8.185-3.04,7.718,3.273c-0.2,2.701-2.735,5.953-8.822,6.673c-5.313,0.626-8.886,6.95-8.484,12.972
						c0.702,10.524,16.137,3.157,16.371,8.771c0.233,5.612,1.286,9.003,5.963,9.938c4.678,0.935,9.004-3.509,9.004-3.509
						s-5.379,2.807-6.782-1.87c-1.403-4.678,6.548-7.718,4.677-14.968c-1.87-7.249-9.829-3.35-0.701-13.564
						c9.128-10.215,25.338-28.115,9.761-44.933c-0.011-2.741-1.563-10.062-5.643-14.729c-10.684-12.22-38.724-13.416-49.701,1.678
						c-5.882,8.087-13.503,7.61-15.595,10.978c-1.945,3.131,3.938,2.664,11.016,1.107
						C417.29,273.957,425.129,270.603,432.535,275.097z"/>
					<path style="fill-rule:evenodd;clip-rule:evenodd;fill:#8A3334;" d="M421.427,271.731c-0.992,1.756-5.865,4.767-8.817,7.605
						c-7.196,6.923-15.695,13.99-21.147,7.826c-7.558-8.543,4.343-18.735-9.324-21.513c-0.376-0.076,4.864-4.975,10.375-3.015
						c4.593,1.634,3.269,4.171,7.633,8.16c1.45,1.325,3.504-0.571,6.413-2.466c4.295-2.797,9.489-6.421,9.489-6.421
						S427.273,264.716,421.427,271.731z"/>
					<path style="fill-rule:evenodd;clip-rule:evenodd;fill:#D68060;" d="M406.79,309.461c1.19,1.959,4.672,5.067,4.672,5.067
						S404.661,316.961,406.79,309.461z"/>
					<path style="fill-rule:evenodd;clip-rule:evenodd;fill:#FFFFFF;" d="M410.046,300.837c-0.73,3.139-0.527,6.865,1.192,8.93
						c4.96,5.952,11.283,4.583,10.602,3.846L410.046,300.837z"/>
					<path style="fill-rule:evenodd;clip-rule:evenodd;fill:#CE5F4C;" d="M408.31,287.116c1.461-1.799,4.409-1.824,6.584-0.057
						c2.176,1.767,2.754,4.657,1.293,6.456c-1.462,1.799-4.409,1.824-6.585,0.057C407.428,291.806,406.849,288.915,408.31,287.116z"
						/>
					<path style="fill-rule:evenodd;clip-rule:evenodd;fill:#CE5F4C;" d="M428.306,309.449c1.461-1.798,4.409-1.823,6.584-0.057
						c2.175,1.768,2.754,4.658,1.293,6.456c-1.462,1.8-4.409,1.825-6.585,0.058C427.423,314.14,426.844,311.248,428.306,309.449z"/>
					<path style="fill-rule:evenodd;clip-rule:evenodd;fill:#FFFFFF;" d="M399.346,359.324l1.443,41.553
						c0.033,0.968-0.681,1.875-1.62,2.017l-32.136,4.858c-0.939,0.142-1.763-0.533-1.796-1.502l-1.443-41.552
						c-0.033-0.969,0.681-1.877,1.62-2.018l32.135-4.858C398.488,357.681,399.311,358.355,399.346,359.324z"/>
					<polygon style="fill-rule:evenodd;clip-rule:evenodd;fill:#340400;" points="390.625,403.268 374.988,405.54 375.057,411.934 
						390.693,409.661 					"/>
					<g>
						<path style="fill-rule:evenodd;clip-rule:evenodd;fill:#C4C4C4;" d="M369.736,400.087c-0.182,0.027-0.351-0.098-0.377-0.278
							c-0.027-0.181,0.098-0.35,0.278-0.377l27.128-4.093c0.18-0.027,0.35,0.098,0.376,0.279c0.027,0.181-0.098,0.349-0.278,0.376
							L369.736,400.087z"/>
						<path style="fill-rule:evenodd;clip-rule:evenodd;fill:#C4C4C4;" d="M368.684,394.123c-0.182,0.027-0.35-0.097-0.377-0.278
							c-0.027-0.181,0.098-0.35,0.278-0.376l27.128-4.093c0.181-0.027,0.35,0.098,0.377,0.278c0.027,0.181-0.098,0.35-0.278,0.377
							L368.684,394.123z"/>
						<path style="fill-rule:evenodd;clip-rule:evenodd;fill:#C4C4C4;" d="M368.566,386.99c-0.181,0.028-0.35-0.098-0.377-0.277
							c-0.027-0.182,0.098-0.351,0.278-0.377l27.128-4.093c0.181-0.027,0.35,0.098,0.377,0.278c0.027,0.181-0.098,0.35-0.278,0.376
							L368.566,386.99z"/>
						<path style="fill-rule:evenodd;clip-rule:evenodd;fill:#C4C4C4;" d="M368.333,380.092c-0.182,0.027-0.351-0.098-0.377-0.278
							c-0.027-0.181,0.097-0.35,0.278-0.376l27.127-4.093c0.182-0.028,0.351,0.097,0.377,0.277c0.027,0.182-0.097,0.351-0.277,0.377
							L368.333,380.092z"/>
						<path style="fill-rule:evenodd;clip-rule:evenodd;fill:#C4C4C4;" d="M368.449,373.66c-0.181,0.028-0.35-0.098-0.377-0.277
							c-0.027-0.181,0.098-0.35,0.279-0.377l27.127-4.093c0.182-0.027,0.35,0.098,0.377,0.278c0.027,0.181-0.098,0.35-0.278,0.377
							L368.449,373.66z"/>
						<path style="fill-rule:evenodd;clip-rule:evenodd;fill:#C4C4C4;" d="M367.514,367.932c-0.181,0.026-0.35-0.098-0.377-0.278
							c-0.026-0.182,0.098-0.35,0.278-0.378l27.128-4.093c0.182-0.026,0.351,0.098,0.377,0.279c0.027,0.181-0.098,0.349-0.278,0.377
							L367.514,367.932z"/>
					</g>
					<path style="fill-rule:evenodd;clip-rule:evenodd;fill:#E1A787;" d="M365.162,375.842c-2.936-2.164-5.893-1.489-6.99-0.045
						c-1.098,1.443,0.997,3.029,0.997,3.029s-2.653,0.83-2.505,2.393c0.148,1.561,1.232,2.193,1.232,2.193s-1.196,0.955-0.801,2.361
						c0.396,1.407,1.53,2.561,1.53,2.561s-1.755,1.716-0.956,3.216c0.799,1.5,4.653,2.815,4.653,2.815l-0.036-2.597
						c0,0,2.541-1.449,4.841-1.852c2.3-0.402,3.149-1.69,2.511-2.602c-0.638-0.91-0.638-0.91-0.638-0.91s2.497-0.526,2.641-2.063
						c0.144-1.538-2.268-2.307-2.268-2.307s2.764,0.342,2.579-2.162c-0.185-2.504-5.465-2.239-5.465-2.239
						S366.525,376.921,365.162,375.842z"/>
					<g>
						<path style="fill-rule:evenodd;clip-rule:evenodd;fill:#A14742;" d="M393.429,266.035c-0.101-0.152-0.059-0.357,0.094-0.458
							c0.152-0.102,0.357-0.059,0.458,0.093c1.824,2.738,0.723,6.682-0.063,9.496c-0.372,1.33-0.668,2.393-0.533,2.831
							c1.138,3.688,4.156,4.087,7.821,2.956c4.432-1.368,9.801-4.935,14.05-7.759c3.292-2.188,5.925-3.938,7.075-3.933
							c1.998,0.009,4.257,0.175,6.651,0.592c2.042,0.356,4.189,0.895,6.367,1.675c1.462,0.524,2.645,0.952,3.757,1.355
							c7.507,2.718,11.929,4.319,16.743,4.801c3.605,0.36,7.754-0.293,10.228-0.798c-2.777-0.398-8.065-1.757-15.85-6.258
							c-2.453-1.418-4.503-2.655-6.294-3.736c-7.009-4.228-10.035-6.054-15.601-5.762c-7.04,0.371-16.311,4.821-16.338,4.834
							c-0.165,0.078-0.363,0.009-0.441-0.157c-0.078-0.165-0.009-0.362,0.157-0.441c0.026-0.013,9.411-4.518,16.589-4.895
							c5.769-0.304,8.847,1.553,15.976,5.853c1.808,1.092,3.877,2.341,6.284,3.731c11.882,6.87,17.751,6.318,17.768,6.317
							c0.157-0.013,0.305,0.088,0.346,0.244c0.048,0.177-0.057,0.358-0.233,0.405c-0.02,0.006-6.979,1.887-12.653,1.319
							c-4.897-0.49-9.349-2.103-16.904-4.837c-1.233-0.447-2.545-0.922-3.754-1.355c-2.133-0.765-4.244-1.294-6.256-1.645
							c-2.363-0.412-4.584-0.575-6.543-0.584c-0.947-0.004-3.507,1.697-6.707,3.823c-4.283,2.847-9.696,6.443-14.222,7.839
							c-4.03,1.245-7.361,0.771-8.646-3.393c-0.192-0.622,0.128-1.768,0.527-3.201C394.033,272.296,395.086,268.522,393.429,266.035
							z"/>
						<path style="fill-rule:evenodd;clip-rule:evenodd;fill:#A14742;" d="M464.598,278.125c0.145-0.111,0.353-0.084,0.463,0.061
							c0.111,0.146,0.083,0.353-0.063,0.464c-4.353,3.335-7.362,7.131-9.375,11.225c-2.014,4.098-3.033,8.502-3.404,13.047
							c-0.235,2.884-0.021,4.928,0.159,6.664c0.4,3.847,0.649,6.232-4.154,12.593c-0.8,1.06-1.562,2.04-2.243,2.919
							c-1.504,1.938-2.613,3.367-3.238,4.505c-1.33,2.418-0.305,3.526,4.067,5.931c5.348,2.941,4.989,5.975,4.627,9.035
							c-0.155,1.306-0.309,2.616,0.023,3.895c1.065,4.084,5.51,4.617,5.522,4.619c0.182,0.023,0.309,0.19,0.285,0.371
							c-0.023,0.181-0.189,0.308-0.37,0.284c-0.014-0.002-4.897-0.587-6.077-5.108c-0.365-1.402-0.203-2.773-0.042-4.138
							c0.336-2.839,0.669-5.651-4.287-8.378c-4.823-2.651-5.931-3.918-4.329-6.829c0.648-1.18,1.772-2.628,3.295-4.59
							c0.661-0.852,1.398-1.801,2.239-2.914c4.646-6.154,4.408-8.44,4.023-12.127c-0.185-1.767-0.401-3.846-0.161-6.783
							c0.377-4.621,1.416-9.104,3.472-13.285C457.087,285.4,460.158,281.524,464.598,278.125z"/>
						<path style="fill-rule:evenodd;clip-rule:evenodd;fill:#A14742;" d="M467.119,278.807c0.078-0.164,0.276-0.234,0.441-0.155
							c0.164,0.078,0.234,0.275,0.155,0.439c-1.012,2.115-1.955,3.764-2.82,5.273c-2.674,4.667-4.584,8-5.005,19.105
							c-0.429,11.274-1.513,12.745-3.906,15.991c-0.756,1.023-1.645,2.23-2.688,3.997c-3.819,6.478-2.796,8.109,0.033,12.619
							c0.286,0.456,0.591,0.941,0.899,1.446c3.668,5.983,0.563,10.447,0.554,10.46c-0.102,0.152-0.308,0.191-0.46,0.09
							c-0.15-0.103-0.191-0.309-0.089-0.46c0.009-0.013,2.873-4.129-0.568-9.745c-0.32-0.523-0.616-0.994-0.895-1.438
							c-2.988-4.763-4.068-6.484-0.044-13.308c1.059-1.795,1.958-3.015,2.723-4.052c2.313-3.136,3.36-4.555,3.78-15.624
							c0.428-11.272,2.37-14.663,5.09-19.41C465.185,282.523,466.131,280.873,467.119,278.807z"/>
						<path style="fill-rule:evenodd;clip-rule:evenodd;fill:#A14742;" d="M469.529,283.897c-0.046-0.177,0.06-0.358,0.236-0.404
							c0.176-0.046,0.357,0.059,0.403,0.235c1.138,4.265,1.043,8.433,0.097,12.598c-0.943,4.148-2.731,8.292-4.989,12.525
							c-4.309,8.079-9.635,13.236-10.13,13.707c-0.343,0.605-4.401,7.973-1.132,11.932c0.116,0.141,0.097,0.35-0.044,0.466
							c-0.141,0.116-0.35,0.098-0.466-0.044c-3.702-4.481,1.076-12.699,1.09-12.723c0.017-0.028,0.036-0.054,0.062-0.077
							c0.016-0.015,5.574-5.202,10.037-13.571c2.232-4.186,3.999-8.275,4.928-12.358
							C470.545,292.116,470.638,288.052,469.529,283.897z"/>
					</g>
					<path style="fill-rule:evenodd;clip-rule:evenodd;fill:#A14742;" d="M467.018,275.666c0.16,0.09,0.217,0.292,0.127,0.45
						c-0.089,0.16-0.291,0.217-0.45,0.128c-3.009-1.692-4.843-3.607-6.964-5.822c-2.132-2.226-4.558-4.759-8.777-7.665
						c-1.571-1.082-2.796-1.987-3.818-2.744c-4.385-3.241-4.969-3.672-13.382-3.372c-0.183,0.007-0.335-0.136-0.342-0.318
						c-0.006-0.182,0.136-0.335,0.318-0.342c8.643-0.309,9.249,0.139,13.799,3.502c1.019,0.754,2.24,1.656,3.8,2.73
						c4.276,2.945,6.727,5.503,8.879,7.751C462.291,272.141,464.094,274.022,467.018,275.666z"/>
					<g>
						<path style="fill-rule:evenodd;clip-rule:evenodd;fill:#B9BECE;" d="M351.673,296.936c-0.118,0.139-0.327,0.155-0.466,0.036
							c-0.139-0.118-0.154-0.327-0.036-0.466c4.73-5.518,7.617-7.475,9.649-8.85c0.375-0.255,0.72-0.488,1.071-0.744
							c2.067-1.503,14.391-9.158,14.426-9.18c0.155-0.097,0.358-0.05,0.456,0.105c0.096,0.155,0.049,0.359-0.106,0.456
							c-0.036,0.022-12.338,7.664-14.387,9.154c-0.316,0.229-0.687,0.48-1.091,0.755
							C359.19,289.557,356.349,291.481,351.673,296.936z"/>
						<path style="fill-rule:evenodd;clip-rule:evenodd;fill:#B9BECE;" d="M338.213,354.294c-0.179,0.04-0.355-0.071-0.396-0.249
							c-0.041-0.178,0.07-0.355,0.248-0.396c8.15-1.873,15.779-3.652,21.578-5.142c5.781-1.487,9.762-2.685,10.656-3.399
							c0.143-0.113,0.35-0.091,0.464,0.051c0.113,0.143,0.091,0.351-0.052,0.464c-0.976,0.781-5.04,2.016-10.905,3.524
							C353.958,350.649,346.339,352.425,338.213,354.294z"/>
						<path style="fill-rule:evenodd;clip-rule:evenodd;fill:#B9BECE;" d="M353.424,294.252c0.123-0.134,0.333-0.143,0.467-0.019
							c0.135,0.123,0.144,0.333,0.02,0.467c-1.977,2.142-3.738,5.626-5.217,9.586c-1.836,4.922-3.229,10.574-4.055,15.316
							c-0.03,0.18-0.201,0.301-0.382,0.27c-0.18-0.031-0.301-0.202-0.271-0.382c0.83-4.773,2.235-10.468,4.088-15.436
							C349.58,300.021,351.385,296.461,353.424,294.252z"/>
						<path style="fill-rule:evenodd;clip-rule:evenodd;fill:#B9BECE;" d="M350.795,297.071c0.117-0.14,0.326-0.158,0.465-0.041
							c0.14,0.117,0.157,0.326,0.04,0.465c-6.897,8.202-13.821,16.624-13.842,16.648c-0.115,0.141-0.324,0.161-0.465,0.045
							c-0.141-0.115-0.161-0.324-0.045-0.464C336.968,313.7,343.848,305.332,350.795,297.071z"/>
					</g>
					<path style="fill-rule:evenodd;clip-rule:evenodd;fill:#C8CED9;" d="M332.267,285.192c0,0,11.095,6.917,18.522,7.851
						c1.061,0.134,2.117,0.272,3.147,0.409c3.149-3.267,5.282-4.711,6.884-5.796c0.375-0.255,0.72-0.488,1.071-0.744
						c0.227-0.165,0.579-0.404,1.024-0.701c-2.324,0.127-5.751,0.052-10.747-0.527c-12.909-1.497-22.263-7.857-22.263-7.857
						s-0.563,2.806-2.807,3.367c-2.245,0.562-10.103-2.994-10.103-2.994s-24.574,7.145-37.765,8.197
						c-0.932,0.074-1.806,0.118-2.611,0.127l1.963,4.807l0.685,1.676c0,0,13.45-1.905,19.956-3.642
						c6.506-1.736,7.735-2.325,12.69-2.564c4.955-0.237,7.714-2.092,10.275-1.851c2.561,0.24,2.729,0.961,5.755,1.246
						C330.971,286.479,332.267,285.192,332.267,285.192z"/>
					<path style="fill-rule:evenodd;clip-rule:evenodd;fill:#C8CED9;" d="M375.271,358.108c-14.113-1.019-23.612-3.55-29.438-5.578
						c-9.739,2.273-5.314,1.074-13.684,5.88c0,0,0,0,7.583,6.845c2.147,1.938,5.262,3.515,8.624,4.778
						c4.55,1.712,9.554,2.852,13.227,3.542l-0.405-11.371c-0.03-0.865,0.476-1.686,1.225-2.079c0.206-0.107,0.43-0.183,0.666-0.218
						L375.271,358.108z"/>
					<path style="fill-rule:evenodd;clip-rule:evenodd;fill:#A42A23;" d="M387.168,339.406c-3.445-4.002-6.212-9.733-6.24-17.437
						c-4.238,9.805-8.836,20.821-9.747,23.011c0.024,0.011,0.05,0.022,0.077,0.033C376.949,343.078,382.193,341.231,387.168,339.406
						z"/>
					<g>
						<path style="fill-rule:evenodd;clip-rule:evenodd;fill:#D68060;" d="M231.527,301.393c-0.171,0.063-0.36-0.024-0.423-0.196
							c-0.063-0.171,0.024-0.36,0.196-0.423c13.62-4.969,13.942-5.002,13.944-5.002c0.18-0.03,0.351,0.093,0.38,0.272
							c0.029,0.181-0.093,0.351-0.273,0.38C245.351,296.425,245.08,296.449,231.527,301.393z"/>
						<path style="fill-rule:evenodd;clip-rule:evenodd;fill:#D68060;" d="M231.214,295.856c-0.148,0.106-0.355,0.072-0.461-0.075
							c-0.106-0.15-0.073-0.357,0.075-0.463c0.904-0.645,3.034-1.533,5.391-2.395c3.765-1.376,8.132-2.698,8.922-2.846
							c0.18-0.033,0.353,0.085,0.386,0.266c0.034,0.178-0.085,0.352-0.264,0.385c-0.774,0.145-5.085,1.451-8.816,2.816
							C234.14,294.387,232.065,295.248,231.214,295.856z"/>
						<path style="fill-rule:evenodd;clip-rule:evenodd;fill:#D68060;" d="M233.644,289.674c-0.161,0.086-0.361,0.025-0.448-0.136
							c-0.086-0.161-0.025-0.361,0.135-0.448c1.045-0.56,4.604-1.919,8.049-3.094c2.851-0.971,5.638-1.819,6.88-1.99
							c0.181-0.025,0.349,0.101,0.373,0.281c0.025,0.181-0.1,0.348-0.282,0.373c-1.194,0.165-3.936,1.002-6.757,1.963
							C238.175,287.788,234.659,289.128,233.644,289.674z"/>
					</g>
					<path style="fill-rule:evenodd;clip-rule:evenodd;fill:#DA8F72;" d="M259.566,277.954c4.754,3.743,9.185,9.398,11.735,15.049
						c0.033-0.042,0.051-0.065,0.051-0.065s0.072-0.065,1.804-0.694l-5.086-14.814l-5.115,0.406
						C262.955,277.836,261.888,277.882,259.566,277.954z"/>
				</g>
				<g>
					<path style="fill-rule:evenodd;clip-rule:evenodd;fill:#DA8F72;" d="M236.727,265.33c3.084,4.474,3.257,4.584,3.257,4.584
						s10.949,4.648,12.872,6.573c0.702,0.703,4.056,5.478,6.687,9.038c1.403,1.901,3.27,3.189,2.931,3.92
						c-1.476,3.195-9.568-3.996-10.959-4.932c0,0,6.618,10.899,8.284,14.743c1.666,3.843,3.138,7.423,1.716,8.317
						c-1.422,0.895-3.759-1.713-3.759-1.713s-0.325,3.542-1.845,3.263c-1.521-0.279-3.524-1.7-3.524-1.7s-0.257,1.918-2.396,1.658
						c-2.141-0.259-5.058-3.098-5.058-3.098s-1.245-0.52-3.821-1.613c-2.577-1.094-9.641-9.779-11.193-14.939
						c-1.553-5.158-2.283-7.431-2.283-7.431l-3.064-8.486L236.727,265.33z"/>
					<path style="fill-rule:evenodd;clip-rule:evenodd;fill:#401D1B;" d="M225.723,213.552c-1.101,10.475-1.717,21.165,6.652,31.29
						c9.941,12.028,11.641,8.169,12.797,3.931c0.721-2.643,1.501-7.284,1.63-13.128c0.204-9.255-4.082-13.599-3.404-20.038
						c0.496-4.712-2.798-14.788-9.038-14.592C227.013,201.244,226.313,207.928,225.723,213.552z"/>
					<path style="fill-rule:evenodd;clip-rule:evenodd;fill:#401D1B;" d="M292.475,193.359c8.902,5.626,17.674,11.768,20.435,24.61
						c3.279,15.258-0.803,14.199-4.846,12.48c-2.521-1.071-6.647-3.336-11.313-6.855c-7.392-5.576-8.144-11.631-13.617-15.09
						c-4.005-2.531-9.872-11.36-5.852-16.137C282.016,186.745,287.694,190.337,292.475,193.359z"/>
					<path style="fill-rule:evenodd;clip-rule:evenodd;fill:#2D3655;" d="M264.999,98.808c6.321-7.28,9.685-9.77,13.923-8.612
						c4.239,1.156,9.273,5.498,13.726,9.229c4.452,3.73,3.345,6.893,4.304,8.98c0.96,2.087,2.518,2.17,5.115,4.802
						c2.598,2.631,3.698,5.524,3.416,8.66c-0.281,3.137,2.285,4.23,3.763,8.602c1.478,4.37,0.63,11.047,0.953,12.891
						c0.322,1.843,2.154,4.846,2.847,9.473c0.691,4.627,2.393,15.014,1.708,20.594c-0.685,5.581-0.688,19.114-0.688,19.114
						l-19.841-4.833l-8.9-44.027l0.014-21.607C285.338,122.073,279.507,105.051,264.999,98.808z"/>
					<path style="fill-rule:evenodd;clip-rule:evenodd;fill:#D8D8D8;" d="M221.252,271.598c2.959,6.724,2.959,6.724,2.959,6.724
						l15.484-10.548l-4.551-6.325L221.252,271.598z"/>
					<path style="fill-rule:evenodd;clip-rule:evenodd;fill:#3B4564;" d="M274.361,91.943c9.9,2.302,21.082,20.049,20.635,31.05
						c-0.447,10.999-5.251,39.144-8.324,48.705c-3.074,9.561-0.706,12.232,1.592,15.865c2.299,3.634,2.299,3.634,2.299,3.634
						s-9.545,17.342-18.735,21.801c-9.191,4.459-9.191,4.459-9.191,4.459l-0.858-6.26c0,0-11.321,7.207-22.16,7.681
						c-10.838,0.475-30.649-5.552-30.649-5.552l4.336-33.523c0,0-14.007-33.872-3.545-47.338
						c10.462-13.467,55.844-34.95,58.567-35.665C271.051,96.085,274.361,91.943,274.361,91.943z"/>
					<path style="fill-rule:evenodd;clip-rule:evenodd;fill:#3B4564;" d="M285.251,178.246c-0.341,4.572,1.353,6.695,3.013,9.317
						c2.299,3.634,2.299,3.634,2.299,3.634s-9.545,17.342-18.735,21.801l-4.463,2.166c0.936-2.468,2.227-5.668,3.979-9.648
						C274.193,199.05,280.508,187.066,285.251,178.246L285.251,178.246z M263.135,217.216l-0.498,0.241l-0.125-0.907
						C262.771,216.754,262.978,216.977,263.135,217.216L263.135,217.216z M254.278,215.072c-4.123,1.792-9.447,3.578-14.661,3.806
						c-7.895,0.346-20.554-2.759-26.845-4.469c-0.047-3.494-0.234-15.297-0.74-24.78l1.271-9.826c0,0-0.149-0.361-0.402-1.016
						c2.973,4.567,5.325,9.472,6.807,14.193c2.993,9.542,25.444,15.528,26.005,17.587c0.562,2.058-14.967-4.677-14.967-4.677
						S240.587,213.762,254.278,215.072z"/>
					<path style="fill-rule:evenodd;clip-rule:evenodd;fill:#343E5D;" d="M285.251,178.246c-0.341,4.572,1.353,6.695,3.013,9.317
						c2.299,3.634,2.299,3.634,2.299,3.634s-9.545,17.342-18.735,21.801l-4.463,2.166c0.936-2.468,2.227-5.668,3.979-9.648
						C274.193,199.05,280.508,187.066,285.251,178.246L285.251,178.246z M263.135,217.216l-0.498,0.241l-0.125-0.907
						C262.771,216.754,262.978,216.977,263.135,217.216L263.135,217.216z M254.278,215.072c-4.123,1.792-9.447,3.578-14.661,3.806
						c-7.895,0.346-20.554-2.759-26.845-4.469c-0.047-3.494-0.234-15.297-0.74-24.78l1.271-9.826c0,0-0.149-0.361-0.402-1.016
						c2.973,4.567,5.325,9.472,6.807,14.193c2.993,9.542,25.444,15.528,26.005,17.587c0.562,2.058-14.967-4.677-14.967-4.677
						S240.587,213.762,254.278,215.072z"/>
					<path style="fill-rule:evenodd;clip-rule:evenodd;fill:#3B4564;" d="M215.38,126.648c-11.224,5.053-25.792,21.459-27.479,26.74
						c-1.687,5.281-4.434,3.15-4.035,9.491c0.399,6.342,0.769,13.873,0.591,15.567c-0.179,1.693-1.998,4.86,0.631,15.796
						c2.628,10.937,3.062,21.545,3.062,21.545s4.481,2.539,3.595,6.967c-0.886,4.43-1.428,4.049,0.169,6.381
						c1.595,2.333,5.563,3.3,6.29,7.446c0.727,4.145-1.565,5.972,4.454,13.228c6.02,7.254,19.084,24.909,19.084,24.909
						l16.218-12.457c0,0-5.39-12.47-8.783-18.286c-3.393-5.815-4.286-6.847-5.824-11.563c-1.539-4.717-4.056-6.888-4.5-9.421
						c-0.443-2.534,0.207-2.885-0.317-5.88s-2.108-3.904-2.108-3.904s3.74-12.527,2.68-19.938
						c-1.061-7.412-1.852-14.634-1.852-14.634L215.38,126.648z"/>
					<path style="fill-rule:evenodd;clip-rule:evenodd;fill:#343E5D;" d="M235.119,264.442l2.84-2.181c0,0-5.39-12.47-8.783-18.286
						c-3.393-5.815-4.286-6.847-5.824-11.563c-1.539-4.717-4.056-6.888-4.5-9.421c-0.443-2.534,0.207-2.885-0.317-5.88
						s-2.108-3.904-2.108-3.904s3.74-12.527,2.68-19.938c-0.16-1.121-0.314-2.239-0.461-3.326
						c-3.328-8.634-9.326-17.504-16.523-23.529c0,0,6.548,7.483,8.419,10.478c1.871,2.993,2.245,38.54,2.245,38.54l-8.419,6.549
						c0,0,11.413-3.182,11.226-1.497c-0.188,1.683-5.612,5.238-4.49,5.051c1.122-0.188,5.612,0.749,5.612,0.749
						s2.807,5.612,7.109,17.398C227.101,252.659,232.657,260.984,235.119,264.442z"/>
					<path style="fill-rule:evenodd;clip-rule:evenodd;fill:#FFFFFF;" d="M220.748,143.359
						c8.935,15.767,43.797,33.163,43.797,33.163s9.847-8.848,11.387-27.161c1.54-18.313-0.142-26.566-0.142-26.566
						S228.751,134.834,220.748,143.359z"/>
					<path style="fill-rule:evenodd;clip-rule:evenodd;fill:#2D3655;" d="M218.614,120.346c-2.428,13.246,2.517,26.191,2.517,26.191
						l-8.057,5.882c17.04,14.325,26.2,19.939,47.716,25.711l4.351-1.593c0,0-28.705-28.33-30.111-30.933
						C233.624,143.002,218.614,120.346,218.614,120.346z"/>
					<path style="fill-rule:evenodd;clip-rule:evenodd;fill:#2D3655;" d="M264.572,103.682
						c10.353,8.612,13.994,22.437,13.994,22.437l10.815-1.368c-3.898,21.917-7.332,32.097-20.147,50.317l-4.361,1.566
						C266.47,148.916,266.25,130.776,264.572,103.682z"/>
					<path style="fill-rule:evenodd;clip-rule:evenodd;fill:#AFB0B0;" d="M290.637,152.727l40.772,14.695
						c1.037,0.374,1.681,1.537,1.419,2.614l-8.95,36.825c-0.262,1.077-1.333,1.676-2.371,1.301l-40.771-14.695
						c-1.037-0.374-1.681-1.537-1.419-2.614l8.95-36.825C288.527,152.952,289.599,152.352,290.637,152.727z"/>
					<polygon style="fill-rule:evenodd;clip-rule:evenodd;fill:#6E6E6D;" points="290.235,155.363 281.576,190.991 321.907,205.528 
						330.566,169.9 					"/>
					<path style="fill-rule:evenodd;clip-rule:evenodd;fill:#E1A787;" d="M291.185,193.402c-3.108,1.909-3.593,4.903-2.666,6.462
						c0.926,1.559,3.183,0.214,3.183,0.214s-0.228,2.771,1.276,3.219c1.503,0.449,2.496-0.318,2.496-0.318s0.436,1.467,1.889,1.628
						c1.452,0.161,2.947-0.457,2.947-0.457s0.932,2.271,2.621,2.093c1.691-0.177,4.357-3.255,4.357-3.255l-2.42-0.942
						c0,0-0.39-2.899,0.101-5.182c0.491-2.282-0.385-3.554-1.469-3.304c-1.084,0.249-1.084,0.249-1.084,0.249
						s0.45-2.512-0.921-3.221c-1.371-0.711-2.988,1.234-2.988,1.234s1.354-2.433-1.036-3.201c-2.391-0.769-4.127,4.225-4.127,4.225
						S292.697,192.544,291.185,193.402z"/>
					<path style="fill-rule:evenodd;clip-rule:evenodd;fill:#D68060;" d="M223.055,131.657c8.432,13.761,23.111,20.117,31.247,20.84
						c8.136,0.722,15.959-29.802,9.755-32.982C257.853,116.333,223.055,131.657,223.055,131.657z"/>
					<path style="fill-rule:evenodd;clip-rule:evenodd;fill:#E1A787;" d="M262.165,101.479c-0.265-3.346,3.335-8.35,6.869-5.455
						c3.535,2.896,2.229,13.342-1.746,15.261C263.314,113.204,262.165,101.479,262.165,101.479z"/>
					<path style="fill-rule:evenodd;clip-rule:evenodd;fill:#E1A787;" d="M215.806,117.822c-1.495-0.495-2.738-1.56-3.822-1.694
						c-7.29-0.908-3.626,14.149,8.271,13.3c0,0,2.625,4.729,11.076,10.004c18.382,11.471,38.931-2.338,36.29-23.125
						c-1.043-8.207-3.508-17.31-8.083-27.25c-10.062-21.859-9.942-19.581-41.987-4.352c-3.064,1.456-9.604,1.879-9.601,7.919
						C207.956,101.977,215.806,117.822,215.806,117.822z"/>
					<path style="fill-rule:evenodd;clip-rule:evenodd;fill:#D68060;" d="M258.16,86.087c-8.746-18.642-10.097-15.884-40.61-1.382
						c-2.042,0.972-5.629,1.482-7.793,3.506c0.432,0.619,1.11,1.224,2.115,1.787c3.625,2.222,11.108,3.624,18.825,2.455
						c7.718-1.169,19.059-7.366,20.346-9.588C252.067,81.097,256.424,84.588,258.16,86.087z"/>
					<path style="fill-rule:evenodd;clip-rule:evenodd;fill:#401D1B;" d="M203.014,99.707c2.364,12.285,16.137,21.048,16.137,21.048
						l-10.29-32.273C208.86,88.481,202.313,91.522,203.014,99.707z"/>
					<path style="fill-rule:evenodd;clip-rule:evenodd;fill:#401D1B;" d="M227.229,105.773c1.362-0.761,3.229-0.013,4.168,1.671
						c0.939,1.684,0.596,3.664-0.767,4.425c-1.363,0.761-3.229,0.012-4.168-1.671C225.523,108.515,225.867,106.533,227.229,105.773z
						"/>
					<path style="fill-rule:evenodd;clip-rule:evenodd;fill:#401D1B;" d="M249.727,96.484c1.485-0.48,3.169,0.619,3.762,2.453
						c0.592,1.834-0.132,3.71-1.617,4.189c-1.485,0.479-3.169-0.619-3.761-2.454C247.52,98.839,248.242,96.963,249.727,96.484z"/>
					<path style="fill-rule:evenodd;clip-rule:evenodd;fill:#401D1B;" d="M226.331,99.068c-2.935-0.476-2.929,0.18-5.383,0.645
						c0.305-2.849,3.396-3.493,5.79-3.783c0.866,0.112,1.479,0.906,1.365,1.772C227.991,98.569,227.197,99.182,226.331,99.068z"/>
					<path style="fill-rule:evenodd;clip-rule:evenodd;fill:#401D1B;" d="M243.849,89.685c1.798-2.06,4.528-1.981,6.964-1.177
						c-0.761,0.588-4.41,2.432-4.279,2.853c-0.463,0.742-1.439,0.968-2.181,0.505C243.611,91.402,243.386,90.426,243.849,89.685z"/>
					<path style="fill-rule:evenodd;clip-rule:evenodd;fill:#FFFFFF;" d="M238.046,124.998c-0.049-0.077,15.693-7.168,16.677-6.843
						c3.525,1.168-1.753,5.992-3.379,7.025c-1.986,1.262-4.392,2.012-6.794,2.281C241.014,127.857,240.142,128.297,238.046,124.998z
						"/>
					<path style="fill-rule:evenodd;clip-rule:evenodd;fill:#D68060;" d="M240.698,116.029c2.681-0.572,7.563-3.282,7.563-3.282
						S248.332,121.387,240.698,116.029z"/>
					<path style="fill-rule:evenodd;clip-rule:evenodd;fill:#D68060;" d="M246.545,131.176c2.681-0.572,7.563-3.282,7.563-3.282
						S254.179,136.533,246.545,131.176z"/>
					<path style="fill-rule:evenodd;clip-rule:evenodd;fill:#D68060;" d="M211.934,123.288c-0.553-1.865-1.134-4.426,0.564-4.048
						c1.7,0.379,4.35,4.268,4.35,4.268s-1.449,0.914-0.554,2.149c0.894,1.234,0.935,1.222,0.935,1.222
						S213.263,127.479,211.934,123.288z"/>
					<path style="fill-rule:evenodd;clip-rule:evenodd;fill:#401D1B;" d="M216.87,127.153c0.116,0.16,0.341,0.194,0.5,0.078
						c0.16-0.117,0.194-0.341,0.078-0.501c-0.165-0.224-0.332-0.425-0.492-0.618c-0.439-0.528-0.82-0.989-0.636-1.211
						c0.435-0.521,1.023-0.773,1.025-0.774c0.181-0.081,0.262-0.293,0.181-0.474c-0.012-0.024-0.025-0.048-0.042-0.069
						c-0.012-0.017-4.285-5.644-6.026-4.017c-1.694,1.583,0.253,4.005,0.258,4.012c0.123,0.155,0.349,0.181,0.504,0.059
						c0.155-0.123,0.182-0.349,0.059-0.504c-0.004-0.006-1.538-1.916-0.331-3.043c0.977-0.915,3.833,2.499,4.708,3.597
						c-0.258,0.16-0.599,0.409-0.885,0.753c-0.567,0.681-0.009,1.355,0.633,2.128C216.563,126.763,216.73,126.963,216.87,127.153z"
						/>
					<path style="fill-rule:evenodd;clip-rule:evenodd;fill:#FFFFFF;" d="M229.639,106.442c0.321-0.057,0.629,0.158,0.685,0.48
						c0.057,0.321-0.159,0.629-0.48,0.686c-0.322,0.056-0.629-0.159-0.685-0.481C229.102,106.805,229.316,106.498,229.639,106.442z"
						/>
					<path style="fill-rule:evenodd;clip-rule:evenodd;fill:#D68060;" d="M269.133,100.95c-0.728-1.803-1.868-4.168-2.962-2.815
						c-1.094,1.354-0.746,6.048-0.746,6.048s1.703-0.188,1.771,1.335c0.068,1.522,0.029,1.538,0.029,1.538
						S270.703,105.058,269.133,100.95z"/>
					<path style="fill-rule:evenodd;clip-rule:evenodd;fill:#401D1B;" d="M267.678,107.05c0.008,0.197-0.146,0.364-0.343,0.372
						c-0.198,0.008-0.364-0.146-0.373-0.344c-0.011-0.277-0.005-0.538,0-0.79c0.014-0.687,0.025-1.285-0.257-1.343
						c-0.663-0.138-1.282,0.032-1.283,0.032c-0.191,0.049-0.388-0.066-0.437-0.258c-0.007-0.027-0.011-0.054-0.011-0.081
						c-0.001-0.02-0.162-7.084,2.214-6.896c2.311,0.184,2.296,3.291,2.296,3.3c0.001,0.198-0.159,0.359-0.357,0.359
						c-0.197,0.001-0.359-0.159-0.359-0.357c0-0.007,0.01-2.457-1.636-2.588c-1.335-0.106-1.443,4.344-1.444,5.746
						c0.302-0.035,0.724-0.052,1.161,0.038c0.868,0.18,0.851,1.056,0.83,2.061C267.674,106.553,267.669,106.813,267.678,107.05z"/>
					<path style="fill-rule:evenodd;clip-rule:evenodd;fill:#FFFFFF;" d="M251.275,97.206c0.327,0.008,0.586,0.278,0.578,0.605
						c-0.008,0.326-0.278,0.585-0.605,0.577c-0.326-0.008-0.585-0.278-0.577-0.605C250.678,97.457,250.949,97.198,251.275,97.206z"
						/>
					<path style="fill-rule:evenodd;clip-rule:evenodd;fill:#FFFFFF;" d="M244.723,110.271c-1.907-2.629-2.361-2.974-0.827-1.936
						c0.948,0.642,2.042,1.434,2.441,1.972C247.43,111.777,246.225,112.34,244.723,110.271z"/>
					<path style="fill-rule:evenodd;clip-rule:evenodd;fill:#401D1B;" d="M214.94,91.288c-2.339-4.209-2.339-4.21-2.339-4.21
						s24.79,3.508,38.119-8.886c13.33-12.396,7.484-18.709,3.041-19.177c-4.444-0.469-10.29,5.378-10.29,5.378
						s3.274-9.821-4.443-10.991c-7.718-1.169-16.37,10.057-16.37,10.057c-2.89-9.753-10.134-8.633-14.213-1.608
						c-1.449,2.495-2.5,5.735-2.813,9.499c-0.107,1.284-0.27,4.817-0.368,6.316c-0.11,1.673-0.215,1.258-1.55,1.461
						c-8.834,1.348-9.561,15.81-0.1,22.217c0.896,0.607,5.85-1.675,9.694,0.111c2.242,1.041,4.34,7.325,4.426,6.22
						C218.264,100.866,218.421,97.553,214.94,91.288z"/>
					<path style="fill-rule:evenodd;clip-rule:evenodd;fill:#401D1B;" d="M254.779,72.215c11.245-1.492,10.225,10.466,9.823,21.995
						c-0.17,4.889,0.882,10.405,0.419,13.423c0,0-3.423-13.748-8.056-21.655C251.395,76.469,245.116,72.485,254.779,72.215z"/>
					<path style="fill-rule:evenodd;clip-rule:evenodd;fill:#401D1B;" d="M212.953,86.493c7.601,3.858,12.745,3.625,16.721,3.157
						c3.976-0.468,5.613-1.287,5.613-1.287s-6.666-0.467-10.407-3.742C221.138,81.349,208.626,81.465,212.953,86.493z"/>
					<path style="fill-rule:evenodd;clip-rule:evenodd;fill:#401D1B;" d="M214.532,106.72c2.191,9.483,5.85,14.353,10.991,25.374
						c-4.504-0.621-10.055-14.708-13.33-19.293L214.532,106.72z"/>
					<path style="fill-rule:evenodd;clip-rule:evenodd;fill:#401D1B;" d="M258.471,87.2c4.157,8.8,4.303,14.889,7.098,26.726
						c3.149-3.278-1.223-17.774-1.494-23.403L258.471,87.2z"/>
					<path style="fill-rule:evenodd;clip-rule:evenodd;fill:#858584;" d="M330.41,170.543l0.156-0.643l-16.011-5.771l-24.104-8.689
						l-0.216-0.077l-1.392,5.726l-6.777,27.882c1.959-0.747,3.859-1.472,5.705-2.175c2.005-0.765,3.944-1.504,5.82-2.219
						c8.08-3.08,14.984-5.711,20.883-7.96C320.908,174.165,326.145,172.169,330.41,170.543z"/>
					<g>
						<path style="fill-rule:evenodd;clip-rule:evenodd;fill:#CE5F4C;" d="M302.152,193.666c0.113-0.143,0.321-0.165,0.463-0.052
							c0.143,0.113,0.166,0.321,0.052,0.464c-0.627,0.784-1.064,1.545-1.332,2.432c-0.271,0.896-0.371,1.927-0.326,3.245
							c0.094,2.719,0.047,4.314,0.047,4.318c-0.003,0.183-0.153,0.328-0.335,0.325c-0.183-0.003-0.328-0.152-0.325-0.335
							c0-0.005,0.047-1.581-0.047-4.288c-0.048-1.394,0.062-2.491,0.353-3.454C300.994,195.349,301.47,194.52,302.152,193.666z"/>
						<path style="fill-rule:evenodd;clip-rule:evenodd;fill:#CE5F4C;" d="M296.098,202.192c0.003,0.183-0.143,0.332-0.324,0.335
							c-0.183,0.003-0.333-0.142-0.336-0.324c-0.023-1.346,0.169-3.107,0.481-4.739c0.309-1.615,0.737-3.115,1.193-3.979
							c0.898-1.703,1.052-1.908,1.052-1.908c0.105-0.149,0.313-0.184,0.461-0.078c0.149,0.107,0.184,0.313,0.078,0.461
							c0,0-0.127,0.168-1.006,1.833c-0.425,0.806-0.831,2.239-1.129,3.797C296.264,199.184,296.075,200.896,296.098,202.192z"/>
						<path style="fill-rule:evenodd;clip-rule:evenodd;fill:#CE5F4C;" d="M292.987,193.13c0.073-0.166,0.269-0.241,0.435-0.168
							c0.167,0.074,0.242,0.269,0.169,0.436c-1.103,2.479-1.656,6.311-1.658,6.322c-0.026,0.182-0.194,0.307-0.376,0.28
							c-0.18-0.027-0.306-0.195-0.279-0.376C291.279,199.612,291.845,195.702,292.987,193.13z"/>
					</g>
					<path style="fill-rule:evenodd;clip-rule:evenodd;fill:#2D3655;" d="M218.175,214.658c0.016,0.183-0.12,0.342-0.303,0.357
						c-0.183,0.015-0.343-0.12-0.358-0.303c-0.043-0.521-0.123-1.354-0.229-2.459c-0.438-4.574-1.306-13.641-1.455-18.888
						c-0.078-2.737-0.454-5.145-0.959-7.194c-0.691-2.8-1.623-4.929-2.37-6.316c-0.546-1.016-1.664-2.705-2.886-4.458
						c-1.673-2.403-3.523-4.903-4.377-5.97c-1.45-1.813-11.276-6.82-11.305-6.834c-0.162-0.084-0.227-0.282-0.144-0.444
						c0.083-0.162,0.281-0.227,0.443-0.144c0.029,0.015,9.979,5.082,11.521,7.01c0.873,1.091,2.738,3.609,4.405,6.003
						c1.23,1.768,2.362,3.479,2.925,4.523c0.767,1.423,1.723,3.605,2.429,6.471c0.516,2.088,0.898,4.542,0.978,7.334
						c0.149,5.222,1.016,14.275,1.452,18.844C218.058,213.382,218.144,214.278,218.175,214.658z"/>
					<path style="fill-rule:evenodd;clip-rule:evenodd;fill:#2D3655;" d="M265.602,175.332c0.036-0.18,0.21-0.296,0.391-0.261
						c0.179,0.036,0.295,0.21,0.26,0.391c-0.855,4.273-2.497,7.907-3.6,10.348c-0.585,1.295-1.014,2.245-1.074,2.724
						c-0.184,1.472,0.934,23.268,0.938,23.33c0.008,0.183-0.133,0.337-0.314,0.346c-0.183,0.009-0.338-0.133-0.346-0.315
						c-0.004-0.062-1.125-21.92-0.935-23.441c0.071-0.576,0.519-1.566,1.128-2.914C263.139,183.126,264.761,179.536,265.602,175.332
						z"/>
					<path style="fill-rule:evenodd;clip-rule:evenodd;fill:#3B4564;" d="M291.45,152.394c-0.108,0.146-0.315,0.179-0.462,0.071
						c-0.147-0.108-0.18-0.315-0.071-0.463c5.703-7.795,14.063-8.365,14.087-8.366c0.182-0.014,0.341,0.123,0.354,0.306
						c0.014,0.182-0.124,0.341-0.306,0.354C305.029,144.298,296.973,144.847,291.45,152.394z"/>
					<path style="fill-rule:evenodd;clip-rule:evenodd;fill:#3B4564;" d="M292.447,151.01c-0.016,0.182-0.176,0.316-0.357,0.301
						c-0.182-0.017-0.316-0.176-0.301-0.357c0.289-3.227,2.296-6.054,4.361-8.154c2.047-2.083,4.155-3.457,4.677-3.789
						c0.153-0.098,0.357-0.053,0.456,0.102c0.098,0.153,0.053,0.357-0.101,0.455c-0.508,0.324-2.563,1.662-4.561,3.696
						C294.643,145.276,292.72,147.971,292.447,151.01z"/>
					<path style="fill-rule:evenodd;clip-rule:evenodd;fill:#2D3655;" d="M189.759,217.333c-0.171-0.064-0.258-0.255-0.193-0.426
						c0.064-0.171,0.255-0.257,0.426-0.193c2.168,0.823,4.09,1.464,5.686,1.948c2.394,0.726,4.063,1.105,4.73,1.216
						c0.654,0.109,4.037-0.4,7.355-1.396c2.124-0.637,4.202-1.472,5.482-2.468c0.145-0.112,0.354-0.087,0.466,0.058
						c0.112,0.145,0.086,0.354-0.059,0.466c-1.353,1.052-3.509,1.922-5.7,2.579c-3.404,1.021-6.941,1.533-7.653,1.414
						c-0.681-0.113-2.381-0.498-4.813-1.236C193.868,218.803,191.93,218.156,189.759,217.333z"/>
					<path style="fill-rule:evenodd;clip-rule:evenodd;fill:#2D3655;" d="M191.899,224.274c-0.182-0.018-0.314-0.181-0.296-0.362
						c0.019-0.182,0.182-0.313,0.363-0.295c2.541,0.263,4.834,0.235,6.838-0.004c2.219-0.265,4.077-0.789,5.523-1.464
						c2.834-1.321,5.831-2.259,5.84-2.262c0.174-0.054,0.36,0.042,0.415,0.217c0.056,0.174-0.042,0.36-0.216,0.415
						c-0.009,0.003-2.981,0.933-5.76,2.229c-1.51,0.704-3.438,1.249-5.725,1.521C196.836,224.516,194.494,224.543,191.899,224.274z"
						/>
					<path style="fill-rule:evenodd;clip-rule:evenodd;fill:#2D3655;" d="M218.276,221.644c0.136-0.123,0.345-0.113,0.468,0.021
						c0.123,0.135,0.113,0.345-0.021,0.468c-3.947,3.604-10.021,5.029-12.834,5.689c-0.3,0.07-0.563,0.132-0.779,0.187
						c-0.178,0.044-0.357-0.064-0.401-0.24c-0.044-0.178,0.064-0.357,0.241-0.401c0.221-0.056,0.486-0.118,0.789-0.189
						C208.498,226.529,214.457,225.131,218.276,221.644z"/>
					<g>
						<path style="fill-rule:evenodd;clip-rule:evenodd;fill:#D68060;" d="M258.508,305.976c0.11,0.145,0.083,0.353-0.063,0.462
							c-0.145,0.111-0.352,0.083-0.462-0.061c-8.78-11.537-8.908-11.836-8.909-11.837c-0.081-0.163-0.015-0.362,0.148-0.443
							c0.163-0.082,0.362-0.016,0.444,0.147C249.667,294.244,249.771,294.495,258.508,305.976z"/>
						<path style="fill-rule:evenodd;clip-rule:evenodd;fill:#D68060;" d="M253.311,307.914c0.146,0.11,0.175,0.318,0.065,0.464
							c-0.11,0.146-0.317,0.175-0.463,0.065c-0.885-0.671-2.364-2.444-3.884-4.439c-2.43-3.189-4.986-6.969-5.36-7.68
							c-0.086-0.161-0.023-0.361,0.138-0.446c0.161-0.085,0.361-0.023,0.446,0.139c0.367,0.696,2.893,4.426,5.301,7.586
							C251.042,305.556,252.477,307.282,253.311,307.914z"/>
						<path style="fill-rule:evenodd;clip-rule:evenodd;fill:#D68060;" d="M246.686,307.426c0.13,0.128,0.132,0.338,0.004,0.469
							c-0.128,0.13-0.338,0.131-0.468,0.004c-0.845-0.832-3.197-3.828-5.339-6.771c-1.772-2.435-3.408-4.846-3.939-5.982
							c-0.078-0.166-0.007-0.362,0.158-0.439c0.165-0.077,0.362-0.007,0.44,0.158c0.511,1.093,2.123,3.464,3.877,5.873
							C243.543,303.656,245.865,306.617,246.686,307.426z"/>
					</g>
					<path style="fill-rule:evenodd;clip-rule:evenodd;fill:#D68060;" d="M227.912,282.879c2.345-4.835,7.259-9.498,12.639-12.722
						c-0.36-0.155-0.566-0.243-0.566-0.243s-0.082-0.053-1.147-1.556l-12.944,8.816l1.742,4.827
						C227.635,282.002,227.727,282.285,227.912,282.879z"/>
					<g>
						<path style="fill-rule:evenodd;clip-rule:evenodd;fill:#5E2B29;" d="M205.551,78.227c-0.168-0.068-0.249-0.261-0.181-0.429
							c0.068-0.169,0.261-0.25,0.43-0.182c3.971,1.624,9.182,2.503,14.515,2.697c5.625,0.205,11.38-0.35,15.958-1.589
							c1.663-0.451,3.237-0.844,4.737-1.219l0.013-0.002c6.207-1.55,11.13-2.781,15.859-6.496c-0.32,0.521-0.684,1.06-1.09,1.615
							c-4.376,2.966-8.97,4.114-14.608,5.522l-0.014,0.003c-1.496,0.373-3.065,0.766-4.727,1.216
							c-4.637,1.256-10.461,1.817-16.152,1.609C214.887,80.775,209.597,79.882,205.551,78.227L205.551,78.227z M257.955,61.508
							c-0.127-0.188-0.264-0.363-0.409-0.529c-3.628,3.946-10.485,9.777-20.497,11.565c-7.851,1.401-13.504,2.383-18.141,2.779
							c-4.619,0.395-8.236,0.21-12.032-0.716l-1.422-0.347l-0.035,0.671l1.302,0.317c3.874,0.945,7.554,1.135,12.242,0.734
							c4.67-0.399,10.336-1.382,18.202-2.787C247.278,71.39,254.235,65.527,257.955,61.508L257.955,61.508z M205.754,70.194
							c-0.028,0.217-0.053,0.435-0.075,0.655c5.472,0.964,13.445,1.226,20.557-2.932c6.808-3.98,12.093-9.466,15.445-13.553
							c-0.18-0.12-0.374-0.23-0.579-0.333c-3.317,4.031-8.516,9.405-15.2,13.314C218.938,71.417,211.113,71.146,205.754,70.194z"/>
						<path style="fill-rule:evenodd;clip-rule:evenodd;fill:#5E2B29;" d="M205.12,78.954c0.153-0.1,0.358-0.058,0.458,0.096
							c0.101,0.153,0.058,0.358-0.096,0.458c-5.945,3.902-5.253,12.563-3.768,20.318c-0.289-0.27-0.566-0.548-0.829-0.834
							C199.495,91.294,199.088,82.913,205.12,78.954z"/>
						<path style="fill-rule:evenodd;clip-rule:evenodd;fill:#5E2B29;" d="M205.252,77.858c0.875,0.794,1.59,1.509,1.594,1.513
							c0.106,0.106,0.125,0.268,0.057,0.393c-0.199,0.468-2.81,6.904,0.393,15.441c0.649,1.733,1.587,3.627,2.676,5.554
							c-0.252-0.003-0.502,0-0.75,0.011c-1.031-1.849-1.919-3.664-2.545-5.334c-3.069-8.184-0.926-14.533-0.454-15.749
							c-0.207-0.203-0.605-0.591-1.08-1.031C205.193,78.483,205.224,78.231,205.252,77.858z"/>
					</g>
				</g>
				<g>
					<path style="fill-rule:evenodd;clip-rule:evenodd;fill:#401D1B;" d="M147.661,327.21c5.417-9.031,11.351-17.944,24.125-21.005
						c15.177-3.636,14.214,0.469,12.591,4.552c-1.013,2.546-3.18,6.724-6.59,11.471c-5.4,7.519-11.436,8.413-14.766,13.967
						c-2.436,4.064-11.126,10.136-15.995,6.228C141.294,337.821,144.753,332.06,147.661,327.21z"/>
					<path style="fill-rule:evenodd;clip-rule:evenodd;fill:#304040;" d="M86.278,284.06c8.533-3.046,21.038-11.008,21.038-11.008
						l33.682,7.223c0,0-10.27,24.563-26.403,27.851S84.883,294.352,86.278,284.06z"/>
					<g>
						<path style="fill-rule:evenodd;clip-rule:evenodd;fill:#6E6E6D;" d="M101.326,234.349c20.764-1.802,32.978-2.742,54.365-3.609
							c7.788-0.489,12.057-2.45,12.485,4.694l1.572,26.168c0.809,15.357,1.618,30.715,2.428,46.071
							c0.237,4.51-4.697,3.719-9.51,4.027c-19.651,1.261-30.532,2.279-50.184,3.54c-7.645,0.491-10.168,1.905-10.712-5.42
							l-3.111-41.848c-1.896-9.934-3.794-18.933-5.69-28.867C92.109,234.602,96.319,234.662,101.326,234.349z"/>
						<path style="fill-rule:evenodd;clip-rule:evenodd;fill:#858584;" d="M101.099,269.189l0.024,0.127l2.887,40.338
							c0.046,0.636,0.266,3.144,0.88,3.561c0.385,0.26,1.539,0.228,1.976,0.212c1.813-0.07,3.656-0.309,5.475-0.426
							c16.736-1.073,33.446-2.467,50.184-3.54c1.684-0.108,3.394-0.063,5.068-0.211c0.49-0.044,1.828-0.192,2.193-0.573
							c0.168-0.176,0.16-0.673,0.149-0.885c-0.554-10.503-0.076-30.883-1.869-39.69c-0.827-4.064-1.221-2.058-4.065-1.921
							L101.099,269.189z"/>
						<path style="fill-rule:evenodd;clip-rule:evenodd;fill:#20201E;" d="M101.326,234.349c20.764-1.802,32.978-2.742,54.365-3.609
							c7.788-0.489,12.057-2.45,12.485,4.694l1.541,25.658l-9.348,0.592l0.26,2.264l-53.552,3.2l-0.307-2.07l-8.564,0.542
							c-1.746-9.018-3.491-17.369-5.237-26.514C92.109,234.602,96.319,234.662,101.326,234.349z"/>
						<path style="fill-rule:evenodd;clip-rule:evenodd;fill:#2F2B28;" d="M99.315,264.185l8.62-0.546l0.307,2.075l50.872-3.04
							l-0.259-2.259l9.423-0.596l-1.46-24.306c-0.064-1.066-0.25-2.874-1.233-3.549c-0.825-0.566-2.372-0.505-3.323-0.448
							c-2.159,0.128-4.314,0.444-6.484,0.581l-0.03,0.001c-9.398,0.382-18.781,0.856-28.163,1.507
							c-8.721,0.604-17.432,1.344-26.141,2.1l-0.016,0.002h-0.017c-1.523,0.096-3.138,0.137-4.641,0.389
							c-0.674,0.112-1.807,0.352-2.266,0.915c-0.39,0.479-0.305,1.281-0.198,1.84C95.921,247.307,97.669,255.735,99.315,264.185z"/>
						<path style="fill-rule:evenodd;clip-rule:evenodd;fill:#E1A787;" d="M170.805,266.452c1.872,1.812,2.984,4.091,2.635,5.553
							c-0.35,1.461-0.697,5.087-1.867,4.503c-1.17-0.584-1.407-5.319-1.408-6.781c-0.002-1.461-0.003-2.864-0.003-2.864
							L170.805,266.452z"/>
						<path style="fill-rule:evenodd;clip-rule:evenodd;fill:#E1A787;" d="M171.44,258.676c2.457,0.642,3.686,1.4,3.277,2.922
							c-0.408,1.52-2.16,4.269-3.095,4.796c-0.936,0.527-5.786,2.285-6.021,1.408c-0.234-0.877-0.235-2.631,1.4-3.509
							c1.637-0.879,2.98-1.64,2.98-1.64l-0.354-3.04L171.44,258.676z"/>
						<path style="fill-rule:evenodd;clip-rule:evenodd;fill:#E1A787;" d="M169.974,251.311c-1.165,4.911-4.319,8.422-1.863,9.238
							c2.456,0.817,4.906-5.851,4.906-5.851S171.962,252.244,169.974,251.311z"/>
						<g>
							<path style="fill-rule:evenodd;clip-rule:evenodd;fill:#575756;" d="M103.951,276.131c0,0.994,0.059,1.812,0.059,1.812
								l3.917-0.058l-0.175-1.93L103.951,276.131z"/>
							<polygon style="fill-rule:evenodd;clip-rule:evenodd;fill:#575756;" points="104.039,279.112 104.214,282.123 
								107.81,282.065 107.78,278.907 							"/>
							<path style="fill-rule:evenodd;clip-rule:evenodd;fill:#575756;" d="M104.156,283.526c-0.059,0.877,0,2.981,0,2.981
								l6.139-0.116l-0.293-3.509L104.156,283.526z"/>
							<path style="fill-rule:evenodd;clip-rule:evenodd;fill:#575756;" d="M104.156,287.794c-0.059,0.877,0,2.981,0,2.981
								l6.898-0.291l-0.409-3.041L104.156,287.794z"/>
							<path style="fill-rule:evenodd;clip-rule:evenodd;fill:#575756;" d="M104.749,291.829c-0.077,0.876,0,2.981,0,2.981
								l8.469-0.234l0.103-3.099L104.749,291.829z"/>
							<path style="fill-rule:evenodd;clip-rule:evenodd;fill:#575756;" d="M123.691,295.219c-0.077,0.877,0,2.982,0,2.982
								l21.215-0.702l0.102-3.099L123.691,295.219z"/>
							<path style="fill-rule:evenodd;clip-rule:evenodd;fill:#575756;" d="M161.335,284.638c-0.059,0.876,0,2.981,0,2.981
								l6.898-0.293l-0.409-3.039L161.335,284.638z"/>
							<path style="fill-rule:evenodd;clip-rule:evenodd;fill:#575756;" d="M158.308,289.139c-0.088,0.882,0,2.982,0,2.982
								l9.576-0.696L168,288.32L158.308,289.139z"/>
							<polygon style="fill-rule:evenodd;clip-rule:evenodd;fill:#575756;" points="164.199,280.105 164.375,283.116 
								167.971,283.059 167.941,279.901 							"/>
							<polygon style="fill-rule:evenodd;clip-rule:evenodd;fill:#575756;" points="161.977,276.014 162.153,279.023 
								167.971,278.498 167.941,275.342 							"/>
							<path style="fill-rule:evenodd;clip-rule:evenodd;fill:#575756;" d="M109.33,275.779c0,0.994,0.059,1.81,0.059,1.81
								l3.917-0.256l-0.176-1.921L109.33,275.779z"/>
							<path style="fill-rule:evenodd;clip-rule:evenodd;fill:#575756;" d="M115.293,275.478c0,0.994,0.059,1.81,0.059,1.81
								l3.918-0.256l-0.176-1.921L115.293,275.478z"/>
							<path style="fill-rule:evenodd;clip-rule:evenodd;fill:#575756;" d="M120.789,275.201c0,0.994,0.059,1.81,0.059,1.81
								l3.917-0.257l-0.175-1.92L120.789,275.201z"/>
							<path style="fill-rule:evenodd;clip-rule:evenodd;fill:#575756;" d="M126.401,274.917c0,0.994,0.059,1.81,0.059,1.81
								l3.917-0.256l-0.175-1.921L126.401,274.917z"/>
							<path style="fill-rule:evenodd;clip-rule:evenodd;fill:#575756;" d="M132.015,274.634c0,0.994,0.059,1.81,0.059,1.81
								l3.917-0.256l-0.176-1.921L132.015,274.634z"/>
							<path style="fill-rule:evenodd;clip-rule:evenodd;fill:#575756;" d="M137.86,274.339c0,0.994,0.059,1.81,0.059,1.81
								l3.918-0.256l-0.176-1.921L137.86,274.339z"/>
							<path style="fill-rule:evenodd;clip-rule:evenodd;fill:#575756;" d="M142.771,274.091c0,0.993,0.059,1.81,0.059,1.81
								l3.918-0.256l-0.176-1.921L142.771,274.091z"/>
							<path style="fill-rule:evenodd;clip-rule:evenodd;fill:#575756;" d="M148.268,273.814c0,0.994,0.059,1.809,0.059,1.809
								l3.917-0.256l-0.175-1.921L148.268,273.814z"/>
							<path style="fill-rule:evenodd;clip-rule:evenodd;fill:#575756;" d="M154.582,273.494c0,0.994,0.059,1.81,0.059,1.81
								l3.917-0.256l-0.176-1.921L154.582,273.494z"/>
							<path style="fill-rule:evenodd;clip-rule:evenodd;fill:#575756;" d="M159.142,273.264c0,0.994,0.059,1.81,0.059,1.81
								l3.918-0.256l-0.176-1.921L159.142,273.264z"/>
							<path style="fill-rule:evenodd;clip-rule:evenodd;fill:#575756;" d="M164.054,273.016c0,0.994,0.059,1.81,0.059,1.81
								l3.917-0.256l-0.176-1.921L164.054,273.016z"/>
							<polygon style="fill-rule:evenodd;clip-rule:evenodd;fill:#575756;" points="109.651,278.456 109.827,281.459 
								113.423,281.242 113.393,278.086 							"/>
							<polygon style="fill-rule:evenodd;clip-rule:evenodd;fill:#575756;" points="115.498,278.197 115.674,281.201 
								119.27,280.984 119.24,277.828 							"/>
							<polygon style="fill-rule:evenodd;clip-rule:evenodd;fill:#575756;" points="120.877,277.96 121.053,280.964 
								124.647,280.746 124.618,277.591 							"/>
							<polygon style="fill-rule:evenodd;clip-rule:evenodd;fill:#575756;" points="126.723,277.702 126.898,280.705 
								130.494,280.488 130.465,277.332 							"/>
							<polygon style="fill-rule:evenodd;clip-rule:evenodd;fill:#575756;" points="131.985,277.471 132.16,280.474 
								135.756,280.256 135.727,277.101 							"/>
							<polygon style="fill-rule:evenodd;clip-rule:evenodd;fill:#575756;" points="137.715,277.217 137.891,280.221 
								141.485,280.004 141.457,276.848 							"/>
							<polygon style="fill-rule:evenodd;clip-rule:evenodd;fill:#575756;" points="142.977,276.985 143.152,279.988 
								146.748,279.772 146.719,276.615 							"/>
							<polygon style="fill-rule:evenodd;clip-rule:evenodd;fill:#575756;" points="147.888,276.768 148.063,279.772 
								151.659,279.555 151.629,276.398 							"/>
							<polygon style="fill-rule:evenodd;clip-rule:evenodd;fill:#575756;" points="152.564,276.561 152.74,279.565 
								156.336,279.348 156.307,276.192 							"/>
							<polygon style="fill-rule:evenodd;clip-rule:evenodd;fill:#575756;" points="157.242,276.355 157.418,279.358 
								161.013,279.142 160.983,275.985 							"/>
							<polygon style="fill-rule:evenodd;clip-rule:evenodd;fill:#575756;" points="110.938,282.898 111.113,285.902 
								114.708,285.685 114.68,282.529 							"/>
							<polygon style="fill-rule:evenodd;clip-rule:evenodd;fill:#575756;" points="116.784,282.641 116.96,285.645 
								120.556,285.428 120.526,282.272 							"/>
							<polygon style="fill-rule:evenodd;clip-rule:evenodd;fill:#575756;" points="122.163,282.403 122.339,285.407 
								125.935,285.19 125.904,282.034 							"/>
							<polygon style="fill-rule:evenodd;clip-rule:evenodd;fill:#575756;" points="128.01,282.146 128.185,285.149 131.78,284.932 
								131.751,281.775 							"/>
							<polygon style="fill-rule:evenodd;clip-rule:evenodd;fill:#575756;" points="133.271,281.914 133.446,284.917 
								137.042,284.699 137.014,281.544 							"/>
							<polygon style="fill-rule:evenodd;clip-rule:evenodd;fill:#575756;" points="139.001,281.66 139.177,284.664 
								142.771,284.447 142.743,281.291 							"/>
							<polygon style="fill-rule:evenodd;clip-rule:evenodd;fill:#575756;" points="144.263,281.429 144.438,284.432 
								148.034,284.215 148.005,281.059 							"/>
							<polygon style="fill-rule:evenodd;clip-rule:evenodd;fill:#575756;" points="149.174,281.211 149.35,284.215 
								152.945,283.998 152.916,280.842 							"/>
							<polygon style="fill-rule:evenodd;clip-rule:evenodd;fill:#575756;" points="153.852,281.005 154.026,284.008 
								157.622,283.791 157.593,280.635 							"/>
							<polygon style="fill-rule:evenodd;clip-rule:evenodd;fill:#575756;" points="158.528,280.799 158.704,283.802 162.3,283.585 
								162.27,280.429 							"/>
							<polygon style="fill-rule:evenodd;clip-rule:evenodd;fill:#575756;" points="112.458,287.459 112.633,290.462 
								116.229,290.246 116.199,287.09 							"/>
							<polygon style="fill-rule:evenodd;clip-rule:evenodd;fill:#575756;" points="118.304,287.201 118.479,290.205 
								122.075,289.987 122.046,286.832 							"/>
							<polygon style="fill-rule:evenodd;clip-rule:evenodd;fill:#575756;" points="123.683,286.964 123.858,289.967 
								127.454,289.75 127.425,286.595 							"/>
							<polygon style="fill-rule:evenodd;clip-rule:evenodd;fill:#575756;" points="129.529,286.706 129.705,289.709 
								133.301,289.492 133.271,286.336 							"/>
							<polygon style="fill-rule:evenodd;clip-rule:evenodd;fill:#575756;" points="134.791,286.474 134.967,289.478 
								138.563,289.26 138.533,286.103 							"/>
							<polygon style="fill-rule:evenodd;clip-rule:evenodd;fill:#575756;" points="140.521,286.221 140.696,289.224 
								144.292,289.008 144.263,285.852 							"/>
							<polygon style="fill-rule:evenodd;clip-rule:evenodd;fill:#575756;" points="145.782,285.988 145.958,288.992 
								149.554,288.774 149.524,285.619 							"/>
							<polygon style="fill-rule:evenodd;clip-rule:evenodd;fill:#575756;" points="150.694,285.772 150.869,288.775 
								154.465,288.558 154.436,285.402 							"/>
							<polygon style="fill-rule:evenodd;clip-rule:evenodd;fill:#575756;" points="155.371,285.565 155.547,288.568 
								159.143,288.352 159.113,285.195 							"/>
							<polygon style="fill-rule:evenodd;clip-rule:evenodd;fill:#575756;" points="114.211,291.552 114.387,294.555 
								117.982,294.339 117.953,291.183 							"/>
							<polygon style="fill-rule:evenodd;clip-rule:evenodd;fill:#575756;" points="120.058,291.294 120.233,294.297 
								123.829,294.08 123.8,290.925 							"/>
							<polygon style="fill-rule:evenodd;clip-rule:evenodd;fill:#575756;" points="125.438,291.057 125.612,294.06 
								129.208,293.843 129.179,290.686 							"/>
							<polygon style="fill-rule:evenodd;clip-rule:evenodd;fill:#575756;" points="131.283,290.799 131.459,293.802 
								135.055,293.585 135.025,290.429 							"/>
							<polygon style="fill-rule:evenodd;clip-rule:evenodd;fill:#575756;" points="136.545,290.566 136.721,293.57 
								140.316,293.352 140.287,290.196 							"/>
							<polygon style="fill-rule:evenodd;clip-rule:evenodd;fill:#575756;" points="142.275,290.314 142.45,293.316 146.046,293.1 
								146.017,289.943 							"/>
							<polygon style="fill-rule:evenodd;clip-rule:evenodd;fill:#575756;" points="147.537,290.081 147.712,293.085 
								151.308,292.867 151.278,289.711 							"/>
							<polygon style="fill-rule:evenodd;clip-rule:evenodd;fill:#575756;" points="152.447,289.864 152.623,292.867 
								156.219,292.65 156.189,289.495 							"/>
							<polygon style="fill-rule:evenodd;clip-rule:evenodd;fill:#575756;" points="117.836,295.527 118.012,298.531 
								121.607,298.314 121.578,295.158 							"/>
							<polygon style="fill-rule:evenodd;clip-rule:evenodd;fill:#575756;" points="112.574,295.762 112.75,298.765 
								116.346,298.548 116.316,295.392 							"/>
							<polygon style="fill-rule:evenodd;clip-rule:evenodd;fill:#575756;" points="106.144,295.878 106.318,298.882 
								109.914,298.664 109.885,295.509 							"/>
							<polygon style="fill-rule:evenodd;clip-rule:evenodd;fill:#575756;" points="146.719,294.241 146.894,297.244 
								150.489,297.027 150.46,293.872 							"/>
							<polygon style="fill-rule:evenodd;clip-rule:evenodd;fill:#575756;" points="152.097,294.124 152.272,297.128 
								155.868,296.91 155.839,293.755 							"/>
							<polygon style="fill-rule:evenodd;clip-rule:evenodd;fill:#575756;" points="157.008,293.657 157.184,296.659 
								160.779,296.443 160.75,293.287 							"/>
							<polygon style="fill-rule:evenodd;clip-rule:evenodd;fill:#575756;" points="161.159,293.539 161.335,296.543 
								164.931,296.326 164.901,293.17 							"/>
							<polygon style="fill-rule:evenodd;clip-rule:evenodd;fill:#575756;" points="165.368,292.663 165.544,295.666 
								169.14,295.449 169.11,292.293 							"/>
						</g>
						<path style="fill-rule:evenodd;clip-rule:evenodd;fill:#3F3B37;" d="M166.632,233.958c-0.164-0.802-0.467-1.595-1.047-1.993
							c-0.825-0.566-2.372-0.505-3.323-0.448c-2.159,0.128-4.314,0.444-6.484,0.581l-0.03,0.001
							c-9.398,0.382-18.781,0.856-28.163,1.507c-8.721,0.604-17.432,1.344-26.141,2.1l-0.016,0.002h-0.017
							c-1.523,0.096-3.138,0.137-4.641,0.389c-0.674,0.112-1.807,0.352-2.266,0.915c-0.39,0.479-0.305,1.281-0.198,1.84
							c1.614,8.456,3.362,16.885,5.009,25.334l5.219-0.33C133.949,249.701,153.559,240.259,166.632,233.958z"/>
					</g>
					<path style="fill-rule:evenodd;clip-rule:evenodd;fill:#401D1B;" d="M184.201,386.513c11.746-1.751,23.592-4.091,32.288-16.083
						c10.33-14.245,5.638-15.013,0.684-15.081c-3.088-0.042-8.376,0.415-14.792,1.922c-10.164,2.386-13.697,8.289-20.919,9.364
						c-5.284,0.787-15.357,7.225-13.385,13.982C170.4,388.572,177.894,387.453,184.201,386.513z"/>
					<path style="fill-rule:evenodd;clip-rule:evenodd;fill:#4A595A;" d="M76.219,279.451c-10.987,4.452-18.473,2.353-13.307,28.774
						c5.166,26.423,15.239,47.696,26.478,63.355c11.237,15.659,28.312,18.686,40.472,17.74c12.16-0.944,15.662-8.899,23.851-4.929
						c8.188,3.968,14.042,13.552,14.042,13.552s22.915-3.994,21.959-29.952c-0.956-25.958-9.616-34.603-9.616-34.603
						s-19.893-17.991-35.101-27.567c-15.209-9.576-52.169-21.005-52.169-21.005S83.936,277.572,76.219,279.451z"/>
					<path style="fill-rule:evenodd;clip-rule:evenodd;fill:#3D494C;" d="M81.881,339.782c7.487,5.139,24.56,6.294,24.56,6.294
						l4.436-9.824l9.128,8.411c0,0,27.11-21.537,29.914-24.813s-14.98-16.358-25.275-23.132
						c-10.296-6.774-23.628-9.804-23.628-9.804l-3.503,5.616l-6.786-5.14C90.726,287.391,52.619,303.323,81.881,339.782z"/>
					<path style="fill-rule:evenodd;clip-rule:evenodd;fill:#FFFFFF;" d="M101.99,336.259c3.736-5.616,21.972-13.114,33.197-12.89
						c11.226,0.225,11.226,0.225,11.226,0.225l7.947-4.917c0,0-27.609-17.751-42.11-19.377c-14.501-1.625-20.809,5.63-20.809,5.63
						L101.99,336.259z"/>
					<path style="fill-rule:evenodd;clip-rule:evenodd;fill:#D68060;" d="M93.631,339.377c15.539-4.354,25.662-16.74,28.578-24.37
						c2.917-7.63-24.312-23.488-29.065-18.389C88.39,301.717,93.631,339.377,93.631,339.377z"/>
					<path style="fill-rule:evenodd;clip-rule:evenodd;fill:#401D1B;" d="M47.26,292.754c3.729-7.775,10.919-7.296,16.738-7.309
						c5.818-0.014,18.667,5.859,18.667,5.859S42.905,309.918,47.26,292.754z"/>
					<path style="fill-rule:evenodd;clip-rule:evenodd;fill:#E1A787;" d="M75.275,293.514c-3.29-0.658-7.121-5.487-3.371-8.098
						c3.75-2.61,13.443,1.498,14.204,5.847C86.87,295.609,75.275,293.514,75.275,293.514z"/>
					<path style="fill-rule:evenodd;clip-rule:evenodd;fill:#E1A787;" d="M78.343,342.574c-0.885,1.303-2.248,2.208-2.674,3.214
						c-2.864,6.766,12.622,7.352,15.054-4.326c0,0,5.266-1.233,12.646-7.924c16.054-14.553,8.379-38.091-12.339-41.225
						c-8.179-1.237-17.609-1.351-28.422,0.337c-23.775,3.711-21.552,4.218-15.648,39.204c0.564,3.344-0.814,9.751,4.997,11.398
						C60.955,345.799,78.343,342.574,78.343,342.574z"/>
					<path style="fill-rule:evenodd;clip-rule:evenodd;fill:#D68060;" d="M57.604,293.462c-4.741,0.818-8.108,1.619-10.4,2.909
						c-1.541,3.805-3.076,8.517-3.675,14.794c0.655,5.066,1.922,11.75,3.431,20.689c0.564,3.344-0.814,9.751,4.997,11.398
						c1.547,0.438,3.342,0.705,5.253,0.848c4.036-1.73,8.146-3.412,9.489-3.416c2.857-0.011-10.015-2.771-10.015-2.771
						c2.143-5.099,7.385-20.41,6.79-31.134C63.036,298.873,56.704,294.421,57.604,293.462z"/>
					<path style="fill-rule:evenodd;clip-rule:evenodd;fill:#401D1B;" d="M85.819,341.769c3.021-2.272-18.007-2.357-23.865-1.746
						c-3.009,0.314-3.706,0.852-3.091,0.216c0.946-0.978,4.518-4.091,3.832-10.077c-0.013-0.108-0.586,4.909-8.73,9.328
						c4.577-4.763,3.733-8.281,4.213-12.096c0.125-0.989-2.477,7.275-7.309,7.956c0,0,0.386-0.843,0.989-2.268
						c4.515-4.324,5.935-7.691,7.274-12.861c1.638-6.314,1.755-9.121,1.755-9.121s-1.588,3.824-3.961,7.965
						c0.938-3.23,1.7-6.527,2.008-9.467c1.037-9.909-1.192-19.045-5.061-21.982c-20.878-15.845-47.989,50.03-13.19,57.32
						c-10.753,0.714-10.332,2.432,2.78,4.041c2.05,0.252-0.983,13.856,3.524,0.693c0.3-0.876,0.358,0.759,0.644,1.816
						c0.618,2.29,8.439,3.081,13.371,2.169C70.987,351.806,81.811,344.783,85.819,341.769z"/>
					<path style="fill-rule:evenodd;clip-rule:evenodd;fill:#401D1B;" d="M69.87,328.295c-0.359-1.52,0.869-3.109,2.745-3.554
						c1.876-0.443,3.689,0.427,4.048,1.946c0.359,1.518-0.87,3.108-2.746,3.553C72.041,330.685,70.229,329.814,69.87,328.295z"/>
					<path style="fill-rule:evenodd;clip-rule:evenodd;fill:#401D1B;" d="M67.076,304.115c-0.056-1.56,1.461-2.88,3.387-2.949
						c1.927-0.068,3.533,1.14,3.589,2.7c0.056,1.559-1.461,2.88-3.387,2.948C68.738,306.883,67.131,305.674,67.076,304.115z"/>
					<path style="fill-rule:evenodd;clip-rule:evenodd;fill:#401D1B;" d="M64.694,327.211c-1.259,2.693-0.626,2.867-0.849,5.354
						c-2.658-1.071-2.435-4.221-2.06-6.603c0.345-0.803,1.275-1.175,2.078-0.829C64.668,325.478,65.039,326.408,64.694,327.211z"/>
					<path style="fill-rule:evenodd;clip-rule:evenodd;fill:#401D1B;" d="M60.45,307.798c-1.491-2.292-0.67-4.898,0.769-7.021
						c0.357,0.892,1.135,4.906,1.576,4.895c0.587,0.648,0.537,1.648-0.109,2.236C62.037,308.494,61.036,308.445,60.45,307.798z"/>
					<path style="fill-rule:evenodd;clip-rule:evenodd;fill:#401D1B;" d="M89.092,327.125c-0.253,0.074-0.519-0.07-0.593-0.324
						c-0.075-0.252,0.069-0.518,0.322-0.592c1.289-0.384,2.457-1.404,3.41-2.808c1.105-1.625,1.913-3.751,2.288-6.002
						c0.374-2.253,0.315-4.624-0.313-6.734c-0.603-2.023-1.731-3.811-3.508-5.018c-0.218-0.148-0.275-0.445-0.127-0.665
						c0.148-0.218,0.446-0.275,0.665-0.126c1.973,1.341,3.224,3.312,3.886,5.538c0.671,2.256,0.736,4.774,0.34,7.159
						c-0.397,2.387-1.259,4.648-2.439,6.386C91.951,325.518,90.606,326.674,89.092,327.125z"/>
					<path style="fill-rule:evenodd;clip-rule:evenodd;fill:#D68060;" d="M83.413,318.137c0.182-2.734-1.093-8.17-1.093-8.17
						S90.651,312.257,83.413,318.137z"/>
					<path style="fill-rule:evenodd;clip-rule:evenodd;fill:#B8765A;" d="M99.59,319.243c0.683-3.252,0.08-9.994,0.08-9.994
						S109.279,313.416,99.59,319.243z"/>
					<path style="fill-rule:evenodd;clip-rule:evenodd;fill:#D68060;" d="M82.543,347.791c-1.944,0.023-4.567-0.117-3.739-1.648
						c0.828-1.531,5.293-3.019,5.293-3.019s0.483,1.644,1.915,1.119c1.432-0.523,1.431-0.566,1.431-0.566
						S86.938,347.657,82.543,347.791z"/>
					<path style="fill-rule:evenodd;clip-rule:evenodd;fill:#401D1B;" d="M87.609,344.098c0.186-0.068,0.28-0.275,0.212-0.461
						c-0.069-0.185-0.275-0.279-0.461-0.211c-0.26,0.098-0.499,0.203-0.729,0.305c-0.629,0.277-1.177,0.518-1.339,0.281
						c-0.382-0.56-0.464-1.195-0.465-1.197c-0.028-0.196-0.21-0.332-0.406-0.304c-0.027,0.005-0.054,0.012-0.078,0.021
						c-0.02,0.008-6.6,2.582-5.51,4.701c1.061,2.062,3.922,0.851,3.93,0.848c0.183-0.076,0.27-0.286,0.194-0.469
						c-0.076-0.183-0.286-0.27-0.469-0.194c-0.007,0.003-2.264,0.957-3.019-0.512c-0.612-1.19,3.451-3.006,4.746-3.548
						c0.083,0.292,0.231,0.689,0.482,1.057c0.5,0.731,1.302,0.379,2.221-0.027C87.149,344.285,87.389,344.18,87.609,344.098z"/>
					<path style="fill-rule:evenodd;clip-rule:evenodd;fill:#FFFFFF;" d="M71.171,326.16c0.033-0.325,0.324-0.563,0.649-0.527
						c0.325,0.032,0.562,0.323,0.527,0.649c-0.033,0.324-0.324,0.561-0.65,0.527C71.373,326.775,71.138,326.484,71.171,326.16z"/>
					<path style="fill-rule:evenodd;clip-rule:evenodd;fill:#D68060;" d="M76.671,286.666c-1.934,0.209-4.521,0.66-3.517,2.082
						c1.004,1.421,5.613,2.367,5.613,2.367s0.285-1.688,1.769-1.339c1.483,0.35,1.488,0.392,1.488,0.392
						S81.051,286.276,76.671,286.666z"/>
					<path style="fill-rule:evenodd;clip-rule:evenodd;fill:#401D1B;" d="M82.141,289.731c0.192,0.046,0.311,0.239,0.265,0.432
						c-0.047,0.191-0.24,0.311-0.433,0.264c-0.27-0.064-0.52-0.142-0.76-0.215c-0.657-0.2-1.229-0.375-1.362-0.12
						c-0.313,0.601-0.319,1.243-0.319,1.244c-0.005,0.197-0.17,0.354-0.367,0.35c-0.028-0.001-0.055-0.005-0.08-0.012
						c-0.02-0.005-6.859-1.779-6.03-4.013c0.808-2.173,3.793-1.311,3.802-1.308c0.19,0.053,0.302,0.251,0.248,0.441
						c-0.053,0.191-0.251,0.303-0.441,0.248c-0.007-0.001-2.361-0.68-2.937,0.868c-0.467,1.255,3.784,2.573,5.134,2.958
						c0.048-0.301,0.147-0.711,0.354-1.106c0.41-0.786,1.247-0.53,2.208-0.237C81.661,289.599,81.911,289.676,82.141,289.731z"/>
					<path style="fill-rule:evenodd;clip-rule:evenodd;fill:#FFFFFF;" d="M68.192,302.822c0.097-0.312,0.429-0.487,0.74-0.391
						c0.313,0.098,0.487,0.429,0.391,0.74c-0.097,0.313-0.428,0.488-0.739,0.391C68.271,303.466,68.097,303.135,68.192,302.822z"/>
					<path style="fill-rule:evenodd;clip-rule:evenodd;fill:#FFFFFF;" d="M78.973,312.693c-3.05,1.117-3.506,1.46-2.089,0.268
						c0.876-0.736,1.937-1.573,2.564-1.811C81.161,310.501,81.372,311.814,78.973,312.693z"/>
					<path style="fill-rule:evenodd;clip-rule:evenodd;fill:#E1A787;" d="M221.302,308.763c3.301-4.314,3.354-4.513,3.354-4.513
						s1.038-11.85,2.275-14.273c0.451-0.886,3.956-5.55,6.53-9.151c1.374-1.922,2.023-4.094,2.823-3.998
						c3.495,0.416-0.846,10.334-1.306,11.946c0,0,8.322-9.661,11.463-12.433c3.141-2.773,6.09-5.278,7.381-4.202
						c1.29,1.077-0.467,4.104-0.467,4.104s3.468-0.785,3.672,0.747c0.204,1.532-0.529,3.877-0.529,3.877s1.904-0.349,2.318,1.767
						c0.415,2.116-1.384,5.767-1.384,5.767s-0.109,1.346-0.354,4.134c-0.244,2.789-6.323,12.189-10.75,15.26
						c-4.427,3.071-6.362,4.468-6.362,4.468l-7.125,5.535L221.302,308.763z"/>
					<path style="fill-rule:evenodd;clip-rule:evenodd;fill:#DA8F72;" d="M221.302,308.763c3.302-4.314,3.354-4.513,3.354-4.513
						l0.003-0.04c7.016,5.493,15.562,6.797,21.249,3.177c1.114-0.709,2.081-1.296,2.919-1.781c-0.857,0.883-1.704,1.638-2.498,2.188
						c-4.427,3.071-6.362,4.468-6.362,4.468l-7.125,5.535L221.302,308.763z"/>
					<path style="fill-rule:evenodd;clip-rule:evenodd;fill:#D8D8D8;" d="M232.042,321.545c5.481-4.891,5.481-4.891,5.481-4.891
						c-5.779-5.522-7.938-7.396-14.815-11.468c-1.537,2.094-3.073,4.188-4.61,6.282
						C222.746,314.827,227.395,318.186,232.042,321.545z"/>
					<path style="fill-rule:evenodd;clip-rule:evenodd;fill:#4A595A;" d="M115.359,385.825c11.062,12.177,63.295-3.445,76.698-9.416
						c23.811-10.605,30.826-32.896,46.497-51.252c0,0-4.403-5.362-8.757-9.561c-1.312-1.265-9.458-8.112-10.666-6.56l-12.382,15.912
						c0,0-7.477,9.126-10.047,11.233c-2.571,2.107-16.36,12.642-16.36,12.642l-39.752,5.646c0,0-16.128,9.366-24.071,19.429
						C108.576,383.96,115.359,385.825,115.359,385.825z"/>
					<path style="fill-rule:evenodd;clip-rule:evenodd;fill:#B8765A;" d="M87.43,313.789c2.807,1.286,2.456,5.028,0.935,8.303
						c-1.519,3.273-1.988,7.133-1.988,7.133s-2.222-4.912-0.818-10.173C86.962,313.789,87.43,313.789,87.43,313.789z"/>
					<path style="fill-rule:evenodd;clip-rule:evenodd;fill:#B8765A;" d="M87.43,313.789c2.807-1.285,2.456-5.027,0.935-8.302
						c-1.519-3.273-1.988-7.133-1.988-7.133s-2.222,4.911-0.818,10.173C86.962,313.789,87.43,313.789,87.43,313.789z"/>
					<g>
						<path style="fill-rule:evenodd;clip-rule:evenodd;fill:#3D494C;" d="M140.57,353.928c-0.182-0.003-0.327-0.154-0.323-0.336
							c0.003-0.182,0.153-0.328,0.336-0.324c16.235,0.374,37.473-3.911,37.534-3.924c0.05-0.01,0.101-0.008,0.147,0.005
							c0.439,0.076,5.312,1.045,7.522,6.94c2.254,6.01,3.006,9.768,3.008,9.779c0.036,0.179-0.08,0.353-0.259,0.388
							c-0.179,0.036-0.353-0.079-0.389-0.258c-0.002-0.012-0.743-3.716-2.979-9.679c-2.039-5.438-6.422-6.411-6.979-6.514
							C177,350.242,156.434,354.292,140.57,353.928z"/>
						<path style="fill-rule:evenodd;clip-rule:evenodd;fill:#3D494C;" d="M194.673,358.532c0.064,0.169-0.021,0.36-0.191,0.425
							c-0.17,0.065-0.361-0.02-0.426-0.189c-0.251-0.652-1.7-1.975-3.596-3.4c-1.932-1.455-4.314-2.996-6.372-4.045
							c-1.83-0.933-3.36-1.181-4.155-1.31c-0.381-0.061-0.622-0.101-0.751-0.211c-0.19-0.163-0.206-0.337-0.036-0.535
							c0.587-0.684,7.15-5.372,7.169-5.386c0.148-0.106,0.354-0.071,0.461,0.077c0.105,0.149,0.071,0.357-0.078,0.461
							c-0.017,0.013-5.168,3.692-6.675,4.939l0.014,0.002c0.833,0.136,2.435,0.395,4.353,1.371c2.084,1.063,4.503,2.628,6.468,4.106
							C192.841,356.332,194.376,357.76,194.673,358.532z"/>
					</g>
					<g>
						<path style="fill-rule:evenodd;clip-rule:evenodd;fill:#D68060;" d="M253.08,275.852c0.109-0.146,0.316-0.175,0.462-0.065
							c0.145,0.108,0.176,0.315,0.065,0.462c-8.721,11.582-8.973,11.785-8.975,11.786c-0.135,0.124-0.344,0.113-0.467-0.023
							c-0.123-0.135-0.113-0.344,0.021-0.467C244.188,287.544,244.402,287.375,253.08,275.852z"/>
						<path style="fill-rule:evenodd;clip-rule:evenodd;fill:#D68060;" d="M256.356,280.326c0.067-0.17,0.259-0.254,0.429-0.188
							c0.17,0.066,0.254,0.258,0.188,0.428c-0.406,1.034-1.71,2.939-3.218,4.943c-2.409,3.204-5.354,6.689-5.936,7.243
							c-0.133,0.126-0.342,0.12-0.468-0.011c-0.126-0.133-0.121-0.343,0.012-0.468c0.57-0.542,3.476-3.985,5.863-7.161
							C254.702,283.15,255.975,281.3,256.356,280.326z"/>
						<path style="fill-rule:evenodd;clip-rule:evenodd;fill:#D68060;" d="M257.685,286.835c0.088-0.16,0.289-0.219,0.449-0.131
							c0.16,0.089,0.219,0.29,0.131,0.449c-0.571,1.038-2.816,4.116-5.067,6.977c-1.863,2.367-3.739,4.595-4.689,5.415
							c-0.138,0.119-0.347,0.105-0.466-0.033c-0.12-0.139-0.105-0.347,0.033-0.467c0.913-0.787,2.758-2.983,4.6-5.324
							C254.91,290.884,257.129,287.845,257.685,286.835z"/>
					</g>
					<path style="fill-rule:evenodd;clip-rule:evenodd;fill:#3D494C;" d="M154.813,319.27c-0.156-0.094-0.208-0.297-0.114-0.452
						c0.094-0.157,0.297-0.208,0.453-0.114c11.218,6.73,17.572,10.654,17.591,10.666c0.017,0.011,0.033,0.022,0.047,0.035
						l12.909,11.6c0.137,0.122,0.147,0.332,0.025,0.467c-0.122,0.136-0.332,0.147-0.468,0.025l-12.89-11.582
						C171.903,329.628,165.633,325.762,154.813,319.27z"/>
					<path style="fill-rule:evenodd;clip-rule:evenodd;fill:#3D494C;" d="M157.837,387.036c-0.169,0.038-0.336-0.075-0.373-0.254
						c-0.036-0.179,0.071-0.355,0.24-0.393c11.332-2.617,32.17-9.514,32.23-9.533c0.165-0.055,0.341,0.043,0.393,0.217
						c0.052,0.174-0.041,0.36-0.206,0.415C190.061,377.507,169.191,384.414,157.837,387.036z"/>
					<path style="fill-rule:evenodd;clip-rule:evenodd;fill:#3D494C;" d="M157.918,387.018c5.914,4.506,9.836,10.927,9.836,10.927
						s10.878-1.896,17.331-11.564c1.559-2.336,2.859-5.125,3.686-8.451c-0.837,0.273-2.029,0.661-3.478,1.125
						c-4.3,1.532-9.706,3.253-15.613,4.881c-1.32,0.364-2.666,0.724-4.03,1.075C162.857,385.789,160.199,386.489,157.918,387.018z"
						/>
					<g>
						<path style="fill-rule:evenodd;clip-rule:evenodd;fill:#592625;" d="M53.998,298.12c0.003-0.182,0.152-0.327,0.335-0.325
							c0.183,0.003,0.327,0.153,0.325,0.336c-0.112,6.257-0.59,16.443-1.99,24.842c-0.955,5.734-2.348,10.654-4.357,12.974
							l-4.864,5.612c-0.12,0.139-0.328,0.153-0.466,0.034c-0.048-0.041-0.081-0.093-0.099-0.147
							c-3.996-12.252-1.379-23.17,1.322-34.439c1.192-4.975,2.401-10.02,3.06-15.282c0.022-0.182,0.188-0.312,0.369-0.288
							c0.182,0.022,0.311,0.186,0.289,0.368c-0.66,5.279-1.876,10.352-3.075,15.355c-2.638,11.003-5.194,21.668-1.514,33.521
							l4.478-5.166c1.92-2.216,3.268-7.021,4.205-12.651C53.41,314.498,53.887,304.353,53.998,298.12z"/>
						<path style="fill-rule:evenodd;clip-rule:evenodd;fill:#592625;" d="M41.101,340.09c0.124,0.135,0.115,0.344-0.019,0.468
							c-0.135,0.123-0.345,0.114-0.468-0.02c-4.16-4.507-7.386-10.136-8.91-16.078c-1.383-5.389-1.368-11.037,0.612-16.347
							c4.135-11.09,10.139-18.407,10.155-18.429c0.115-0.141,0.323-0.162,0.465-0.047c0.142,0.115,0.163,0.323,0.048,0.464
							c-0.017,0.021-5.953,7.256-10.049,18.242c-1.931,5.175-1.943,10.688-0.592,15.953C33.84,330.129,37.01,335.658,41.101,340.09z
							"/>
						<path style="fill-rule:evenodd;clip-rule:evenodd;fill:#592625;" d="M48.096,346.057c-0.123-0.136-0.112-0.346,0.022-0.468
							c0.136-0.123,0.345-0.114,0.468,0.022c1.886,2.07,4.307,3.421,7.146,3.982c2.807,0.555,6.024,0.341,9.54-0.709
							c7.029-2.1,7.26-3.142,7.261-3.145c0.052-0.175,0.236-0.274,0.412-0.223c0.175,0.053,0.275,0.236,0.223,0.412
							c-0.001,0.004-0.33,1.388-7.706,3.591c-3.622,1.081-6.946,1.3-9.856,0.724C52.623,349.653,50.079,348.233,48.096,346.057z"/>
						<path style="fill-rule:evenodd;clip-rule:evenodd;fill:#592625;" d="M69.079,342.345c0.171-0.067,0.363,0.016,0.431,0.187
							c0.066,0.17-0.017,0.362-0.187,0.43c-2.186,0.865-5.905,1.773-9.483,2.448c-3.835,0.725-7.524,1.182-9.006,1.033l-2.806-0.28
							c-0.182-0.018-0.315-0.18-0.297-0.361c0.018-0.182,0.18-0.315,0.361-0.297l2.807,0.281c1.42,0.142,5.036-0.312,8.819-1.025
							C63.257,344.092,66.93,343.195,69.079,342.345z"/>
					</g>
					<path style="fill-rule:evenodd;clip-rule:evenodd;fill:#3D494C;" d="M140.381,352.893c0.183-0.003,0.333,0.143,0.337,0.324
						c0.004,0.182-0.142,0.334-0.324,0.337c-3.978,0.092-7.683,0.926-11.529,2.478c-3.86,1.558-7.865,3.841-12.431,6.823
						c-9.141,5.968-9.68,6.508-9.682,6.51c-0.132,0.126-0.341,0.12-0.467-0.012c-0.126-0.132-0.121-0.342,0.012-0.467
						c0.002-0.002,0.582-0.582,9.776-6.586c4.601-3.005,8.642-5.307,12.545-6.882C132.536,353.838,136.315,352.987,140.381,352.893z
						"/>
					<path style="fill-rule:evenodd;clip-rule:evenodd;fill:#3D494C;" d="M137.214,352.986c0.182,0.004,0.327,0.155,0.323,0.337
						c-0.004,0.182-0.154,0.327-0.337,0.323c-3.063-0.07-6.886,0.423-10.592,1.111c-6.063,1.129-11.806,2.782-13.425,3.361
						c-0.172,0.061-0.361-0.028-0.423-0.201c-0.062-0.173,0.028-0.361,0.2-0.423c1.632-0.583,7.419-2.25,13.528-3.387
						C130.232,353.412,134.099,352.914,137.214,352.986z"/>
					<path style="fill-rule:evenodd;clip-rule:evenodd;fill:#858584;" d="M122.62,314.077c-0.183,0.004-0.333-0.142-0.337-0.323
						c-0.003-0.183,0.142-0.333,0.324-0.337c9.576-0.188,29.755,3.55,29.813,3.561c0.179,0.032,0.298,0.205,0.265,0.384
						c-0.032,0.18-0.205,0.299-0.385,0.266C152.243,317.617,132.127,313.892,122.62,314.077z"/>
					<path style="fill-rule:evenodd;clip-rule:evenodd;fill:#858584;" d="M122.908,312.024c-0.081,0.162-0.279,0.228-0.442,0.147
						c-0.163-0.082-0.229-0.28-0.147-0.443c1.189-2.378,3.396-3.838,4.359-4.389c-1.972-1.468-10.555-7.666-14.915-7.666
						c-0.184,0-0.332-0.149-0.332-0.332c0-0.184,0.148-0.332,0.332-0.332c5.163,0,15.698,8.091,15.729,8.113
						c0.04,0.031,0.074,0.072,0.098,0.121c0.078,0.164,0.009,0.361-0.155,0.439C127.424,307.689,124.354,309.133,122.908,312.024z"
						/>
					<path style="fill-rule:evenodd;clip-rule:evenodd;fill:#858584;" d="M121.732,313.645c-0.047-0.177,0.059-0.357,0.235-0.404
						c0.177-0.047,0.357,0.06,0.404,0.235c0.892,3.392,6.52,5.57,6.536,5.576c0.17,0.066,0.254,0.259,0.188,0.429
						c-0.027,0.068-0.075,0.124-0.133,0.16c-0.291,0.192-8.817,5.814-10.67,6.925c-0.156,0.094-0.359,0.043-0.453-0.114
						c-0.094-0.156-0.043-0.359,0.114-0.453c1.591-0.953,8.232-5.32,10.138-6.575C126.574,318.737,122.525,316.657,121.732,313.645z
						"/>
				</g>
			</g>
		</g>
	</g>
</g>
</svg>
