<?xml version="1.0" encoding="utf-8"?>
<!-- Generator: Adobe Illustrator 27.5.0, SVG Export Plug-In . SVG Version: 6.00 Build 0)  -->
<svg version="1.1" xmlns="http://www.w3.org/2000/svg" xmlns:xlink="http://www.w3.org/1999/xlink" x="0px" y="0px"
	 viewBox="0 0 500 500" style="enable-background:new 0 0 500 500;" xml:space="preserve">
<g id="BACKGROUND">
	<g>
		<g>
			<path style="fill:#F6F7FB;" d="M101.924,366.9c7.524,5.056,15.688,9.128,24.303,11.964c30.457,10.027,63.331,2.148,94.24,9.63
				c29.765,7.205,55.588,26.015,86.09,30.823c70.31,11.083,138.351-56.084,134.73-125.419
				c-1.412-27.036-12.388-53.133-10.309-80.422c2.137-28.051,11.42-55.851,4.557-84.018c-6.333-25.996-26.822-47.789-51.981-56.894
				c-25.159-9.106-54.243-5.729-77.322,7.809c-28.673,16.82-48.41,48.841-81.498,58.199c-30.317,8.574-62.22-4.568-92.808,2.469
				c-34.273,7.886-58.774,39.264-70.545,72.404c-12.368,34.82-13.419,74.52,2.017,108.092
				C71.741,339.678,85.264,355.704,101.924,366.9z"/>
		</g>
		<g>
			<path style="fill:#F6F7FB;" d="M431.026,213.256l-0.752-2.826c-0.073,0.502-0.144,1.004-0.213,1.506
				c0.241,1.188,0.512,2.377,0.799,3.566C430.903,214.75,430.97,214.004,431.026,213.256z"/>
		</g>
	</g>
</g>
<g id="OBJECTS">
	<g>
		<g>
			<g>
				<g>
					<linearGradient id="SVGID_1_" gradientUnits="userSpaceOnUse" x1="373.2441" y1="388.7309" x2="371.7441" y2="268.2314">
						<stop  offset="0" style="stop-color:#3A699F"/>
						<stop  offset="0.2283" style="stop-color:#5782B3"/>
						<stop  offset="0.5587" style="stop-color:#7BA1CD"/>
						<stop  offset="0.8274" style="stop-color:#92B4DC"/>
						<stop  offset="0.9987" style="stop-color:#9ABBE2"/>
					</linearGradient>
					<path style="fill:url(#SVGID_1_);" d="M391.44,286.393c-10.398-2.272-2.183-7.977,3.732-10.647
						c4.784-2.16,16.951-6.335,10.598-14.103c-6.654-8.137-10.099,3.657-14.144,5.535c-9.04,4.197-0.973-9.135,0.903-12.649
						c2.57-4.814,8.016-14.679-0.564-14.905c-6.939-0.182-12.532,10.283-14.634,15.397c-1.499,3.646-4.071,20.056-9.707,17.346
						c-4.267-2.052-2.607-18.346-10.176-5.746c-3.078,5.124-1.376,12.362-2.291,17.834c-1.34,8.014-1.913,11.338-8.99,10.39
						c-3.668-0.491-4.441-4.887-8.335-1.258c-2.005,1.868-1.611,9.029-1.225,11.479c3.542,22.502,14.805,36.242,19.345,37.552
						c6.146,1.773,16.267-3.629,20.763-7.19c2.236-1.77,6.349-4.759,5.503-8.273c-0.95-3.943-7.034-2.447-7.614-4.759
						c-1.645-6.559,11.551-2.031,14.8-3.487c4.207-1.885,10.308-10.818,5.081-14.279c-0.537-0.355-19.883,1.12-9.846-6.61
						c5.557-4.28,13.458,4.109,18.312-3.411C409.938,283.786,395.34,287.245,391.44,286.393z"/>
				</g>
				<path style="fill:#4E79A9;" d="M390.338,290.181c-4.494-1.153-9.105-2.11-13.767-1.814c2.633-4.53,5.427-9.045,7.22-13.906
					c0.505-1.371-1.696-1.936-2.198-0.575c-0.219,0.593-0.474,1.175-0.718,1.76c-0.56-1.32-0.441-3.434-0.476-4.549
					c-0.09-2.879,0.595-5.58,1.319-8.341c0.371-1.414-1.826-1.991-2.198-0.575c-0.94,3.582-1.598,6.968-1.303,10.684
					c0.145,1.827,0.331,3.803,1.604,5.142c-2.709,5.687-6.334,11.094-9.215,16.649c-1.919-2.228-3.441-4.618-4.402-7.452
					c-1.046-3.087-1.141-6.37-1.947-9.515c-0.363-1.417-2.552-0.806-2.188,0.613c0.97,3.781,1.084,7.621,2.615,11.263
					c1.154,2.745,2.836,5.073,4.822,7.268c-3.271,6.657-6.187,13.505-8.364,20.601c-0.723,2.357-1.349,4.743-1.941,7.138
					c-2.564-2.819-4.788-5.827-6.534-9.247c-0.97-1.901-2.032-3.912-2.614-5.968c-0.441-1.558-0.497-3.082-1.348-4.495
					c-0.755-1.253-2.716-0.108-1.961,1.148c1.042,1.731,1.143,4.175,1.923,6.075c0.754,1.834,1.617,3.639,2.555,5.387
					c1.918,3.576,4.421,6.707,7.208,9.638c0.041,0.043,0.087,0.056,0.129,0.09c-0.987,4.133-1.935,8.276-3.111,12.35
					c-0.123,0.129-0.227,0.286-0.277,0.505c-0.104,0.453-0.347,1.093-0.379,1.628c-1.943,8.341-3.908,16.681-5.744,25.046
					c-0.313,1.424,1.884,2.007,2.198,0.575c1.829-8.336,3.788-16.647,5.724-24.96c0.014-0.036,0.038-0.061,0.05-0.1
					c0.69-2.205,1.293-4.437,1.86-6.679c4.243,0.428,8.608-1.445,12.191-3.547c1.263-0.74,0.116-2.702-1.148-1.961
					c-3.116,1.827-6.798,3.436-10.486,3.265c1.244-5.121,2.366-10.28,3.902-15.315c0.611-2.004,1.29-3.984,2.015-5.946
					c0.082,0.042,0.151,0.094,0.252,0.118c5.912,1.429,12.061,1.436,17.886-0.393c1.392-0.437,0.787-2.628-0.613-2.188
					c-5.459,1.714-11.155,1.724-16.698,0.384c-0.012-0.003-0.02,0.001-0.032-0.001c2.269-5.814,4.96-11.464,7.847-16.995
					c0.492-0.942,1.011-1.877,1.539-2.81c0.175,0.29,0.473,0.499,0.928,0.468c4.52-0.311,8.944,0.617,13.299,1.735
					C391.179,292.742,391.757,290.545,390.338,290.181z"/>
			</g>
			<g>
				<g>
					<g>
						<path style="fill:#4E79A9;" d="M437.478,310c-9.357,5.348-19.169,9.193-27.659,16.005
							c-8.159,6.547-15.953,13.759-23.131,21.365c-6.615,7.009-12.861,14.332-19.512,21.317
							c-7.763,8.154-12.712,17.385-19.015,26.556c-1.011,1.471-3.39,0.034-2.376-1.442c5.714-8.314,10.161-17.02,17.025-24.524
							c7.29-7.971,14.542-16.059,21.953-23.911c7.467-7.911,15.6-15.417,24.136-22.163c8.348-6.598,18.09-10.407,27.256-15.646
							C437.708,306.669,439.031,309.113,437.478,310L437.478,310z"/>
					</g>
					<path style="fill:#4E79A9;" d="M435.588,309.515c1.992-1.258,5.811-1.481,7.785-0.121c2.311,1.592,0.727,3.702-1.41,4.453
						c-2.38,0.835-5.042,0.289-7.488,0.179c-2.537-0.113-5.124,0.83-7.556,0.373c1.252-1.321,3.851-2.395,5.507-3.094
						c1.762-0.744,3.319-1.895,5.04-2.65"/>
					<path style="fill:#4E79A9;" d="M431.489,312.048c3.579-1.895,9.215-2.304,11.307-6.372c1.369-2.662,0.438-4.752-2.683-4.555
						c-2.369,0.15-4.04,1.982-5.291,3.803c-1.597,2.324-3.472,5.236-4.541,7.779"/>
					<path style="fill:#4E79A9;" d="M421.407,315.946c0.719-4.577,1.483-10.371,5.316-13.634c2.389-2.033,3.381,1.105,3.007,3.032
						c-0.854,4.396-4.404,8.547-7.77,11.31L421.407,315.946z"/>
					<path style="fill:#4E79A9;" d="M412.197,321.561c0.008-5.659-0.159-12.794,3.854-17.451c2.501-2.903,4.288,0.698,4.198,3.094
						c-0.205,5.465-3.708,11.141-7.251,15.107L412.197,321.561z"/>
					<path style="fill:#4E79A9;" d="M393.208,337.862c-0.981-5.573-2.391-12.569,0.747-17.855c1.955-3.295,4.344-0.062,4.674,2.314
						c0.752,5.417-1.705,11.617-4.501,16.141L393.208,337.862z"/>
					<path style="fill:#4E79A9;" d="M378.348,353.572c-2.869-6.042-6.674-13.572-4.76-20.581c1.193-4.369,4.931-1.435,6.053,1.168
						c2.56,5.936,1.707,13.774-0.057,19.807L378.348,353.572z"/>
					<path style="fill:#4E79A9;" d="M399.388,331.531c0.888-6.459,1.809-14.635,7.074-19.236c3.281-2.868,4.744,1.562,4.269,4.281
						c-1.082,6.203-5.928,12.058-10.554,15.954L399.388,331.531z"/>
					<path style="fill:#4E79A9;" d="M422.587,318.125c4.226,1.899,9.497,4.424,14.324,2.996c3.008-0.89,0.922-3.436-0.897-4.175
						c-4.149-1.686-9.565-0.981-13.717,0.329L422.587,318.125z"/>
					<path style="fill:#4E79A9;" d="M401.154,330.062c5.224,0.708,11.789,1.764,16.594-1.351c2.995-1.941-0.102-4.046-2.325-4.266
						c-5.07-0.501-10.752,2.014-14.861,4.783L401.154,330.062z"/>
					<path style="fill:#4E79A9;" d="M391.353,342.803c5.601,0.759,12.64,1.891,17.792-1.449c3.212-2.082-0.11-4.338-2.493-4.574
						c-5.436-0.538-11.528,2.16-15.933,5.128L391.353,342.803z"/>
					<path style="fill:#4E79A9;" d="M380.778,353.693c7.428,0.718,16.754,1.857,23.799-2.865c4.391-2.943,0.082-5.777-3.084-5.966
						c-7.22-0.431-15.484,3.484-21.514,7.673L380.778,353.693z"/>
					<path style="fill:#4E79A9;" d="M386.161,345.703c-1.741-3.247-4.043-5.962-4.731-9.673c-0.598-3.223,0.374-6.384,2.097-9.101
						c0.76-1.198,1.516-2.757,3.026-3.166c2.119-0.574,1.559,1.867,1.364,3.334c-0.414,3.121-0.658,6.324-0.731,9.458
						c-0.04,1.731-0.131,3.352-0.321,5.019c-0.125,1.101,0.196,3.206-0.154,3.988"/>
					<path style="fill:#4E79A9;" d="M395.316,356.041c-3.994,0.647-16.714,3.824-21.667,4.626c-0.997,1.077-2.019,2.136-3.053,3.202
						c8.385,0.751,21.92,0.04,25.319-1.327c1.466-0.589,4.429-2.383,4.742-4.022C401.218,355.562,397.06,355.76,395.316,356.041z"/>
					<path style="fill:#4E79A9;" d="M386.755,377.512c-4.963-0.349-21.082-0.121-27.237-0.553c-1.496,1.009-3.017,1.99-4.555,2.975
						c9.826,3.256,26.227,6.21,30.68,5.529c1.921-0.293,5.971-1.608,6.806-3.482C393.955,378.597,388.922,377.665,386.755,377.512z"
						/>
					<path style="fill:#4E79A9;" d="M367.99,365.669c-0.964-2.054-7.414-7.628-6.786-19.73c0.089-1.717,0.365-3.994,2.045-4.905
						c2.332-1.265,2.927,1.472,3.255,3.211c0.647,3.432,2.167,16.613,2.972,19.838"/>
					<path style="fill:#4E79A9;" d="M362.31,372.497c2.525,0.334,5.168,1.479,7.798,1.91c2.82,0.463,18.124,0.767,22.693-0.906
						c1.983-0.726,5.994-1.171,6.112-3.852c0.114-2.589-3.181-3.696-5.251-4.051c-4.808-0.824-26.237,3.94-31.568,5.922"/>
					<path style="fill:#4E79A9;" d="M360.441,373.666c-6.872-7.205-11.616-23.539-10.486-25.435
						c2.452-4.115,7.093,1.031,8.256,3.699c2.607,5.981,3.283,20.875,2.276,21.243"/>
				</g>
			</g>
			<g>
				
					<linearGradient id="SVGID_00000048501689607631985660000015163607418244927874_" gradientUnits="userSpaceOnUse" x1="373.8249" y1="461.5552" x2="373.8249" y2="345.3441">
					<stop  offset="0" style="stop-color:#3A699F"/>
					<stop  offset="0.2283" style="stop-color:#5782B3"/>
					<stop  offset="0.5587" style="stop-color:#7BA1CD"/>
					<stop  offset="0.8274" style="stop-color:#92B4DC"/>
					<stop  offset="0.9987" style="stop-color:#9ABBE2"/>
				</linearGradient>
				<path style="fill:url(#SVGID_00000048501689607631985660000015163607418244927874_);" d="M347.695,388.712
					c-3.279,3.62-7.502,8.217-10.964,11.634c-4.511,4.453-3.967,8.09,1.045,11.809c6.188,4.592,16.206,6.106,23.795,6.179
					c2.683,0.026,3.147-0.228,2.754-3.211c-0.29-2.203-0.886-4.197-1.019-6.442c-0.258-4.336-0.121-8.106,1.864-12.011
					c3.131-6.158,4.521,0.704,3.863,4.077c-0.767,3.928-1.048,8.092-0.477,12.137c0.981,6.947,22.086-6.842,24.819-11.313
					c-2.888-1.586-7.139-9.279-5.602-12.771c1.353-3.073,2.575-0.109,3.238,1.696c0.763,2.079,1.272,4.073,2.811,5.659
					c6.294,6.487,14.271-14.327,15.719-18.582c1.906-5.597,4.886-6.822,10.256-7.848c-4.594-4.472-11.275-10.913-18.08-10.16
					c-3.298,0.365-5.744,3.113-8.068,5.196c-1.601,1.434-6.994,5.257-4.537,0.375c1.716-3.409,5.735-5.058,7.4-8.591
					c-2.071-1.922-8.705-5.016-11.525-3.93c-3.376,1.301-3.417,8.309-5.267,11.006c-3.099-3.833,1.023-8.729,2.151-12.415
					c-5.094-2.629-15.026-5.312-20.784-2.802c-8.395,3.66,1.444,13.766,3.38,15.398c1.426,1.202,3.725,3.42,0.289,2.821
					c-3.014-0.525-7.663-6.323-9.264-8.875c-0.782-1.247-1.45-5.035-2.8-5.684c-1.539-0.74-23.253,13.091-24.724,21.179
					C326.438,381.65,340.755,388.713,347.695,388.712z"/>
			</g>
		</g>
		<g>
			<g>
				<g>
					
						<linearGradient id="SVGID_00000082333753265171615040000009116744544169057970_" gradientUnits="userSpaceOnUse" x1="137.566" y1="391.6647" x2="136.066" y2="271.1649">
						<stop  offset="0" style="stop-color:#3A699F"/>
						<stop  offset="0.2283" style="stop-color:#5782B3"/>
						<stop  offset="0.5587" style="stop-color:#7BA1CD"/>
						<stop  offset="0.8274" style="stop-color:#92B4DC"/>
						<stop  offset="0.9987" style="stop-color:#9ABBE2"/>
					</linearGradient>
					<path style="fill:url(#SVGID_00000082333753265171615040000009116744544169057970_);" d="M116.705,286.393
						c10.398-2.272,2.182-7.977-3.732-10.647c-4.784-2.16-16.951-6.335-10.598-14.103c6.654-8.137,10.1,3.657,14.144,5.535
						c9.039,4.197,0.973-9.135-0.903-12.649c-2.57-4.814-8.016-14.679,0.564-14.905c6.938-0.182,12.532,10.283,14.634,15.397
						c1.499,3.646,4.071,20.056,9.708,17.346c4.267-2.052,2.607-18.346,10.176-5.746c3.078,5.124,1.376,12.362,2.291,17.834
						c1.34,8.014,1.913,11.338,8.99,10.39c3.668-0.491,4.441-4.887,8.335-1.258c2.005,1.868,1.611,9.029,1.225,11.479
						c-3.542,22.502-14.805,36.242-19.345,37.552c-6.146,1.773-16.267-3.629-20.763-7.19c-2.236-1.77-6.349-4.759-5.503-8.273
						c0.95-3.943,7.034-2.447,7.614-4.759c1.644-6.559-11.551-2.031-14.8-3.487c-4.207-1.885-10.308-10.818-5.081-14.279
						c0.537-0.355,19.883,1.12,9.846-6.61c-5.557-4.28-13.458,4.109-18.312-3.411C98.207,283.786,112.806,287.245,116.705,286.393z"
						/>
				</g>
				<path style="fill:#4E79A9;" d="M117.807,290.181c4.494-1.153,9.104-2.11,13.767-1.814c-2.633-4.53-5.428-9.045-7.22-13.906
					c-0.505-1.371,1.696-1.936,2.198-0.575c0.219,0.593,0.474,1.175,0.718,1.76c0.56-1.32,0.441-3.434,0.476-4.549
					c0.09-2.879-0.595-5.58-1.319-8.341c-0.371-1.414,1.826-1.991,2.198-0.575c0.94,3.582,1.598,6.968,1.303,10.684
					c-0.145,1.827-0.331,3.803-1.604,5.142c2.709,5.687,6.334,11.094,9.215,16.649c1.92-2.228,3.441-4.618,4.402-7.452
					c1.046-3.087,1.141-6.37,1.947-9.515c0.363-1.417,2.552-0.806,2.188,0.613c-0.97,3.781-1.084,7.621-2.615,11.263
					c-1.154,2.745-2.836,5.073-4.821,7.268c3.271,6.657,6.187,13.505,8.364,20.601c0.723,2.357,1.349,4.743,1.941,7.138
					c2.564-2.819,4.788-5.827,6.534-9.247c0.97-1.901,2.032-3.912,2.614-5.968c0.441-1.558,0.497-3.082,1.348-4.495
					c0.755-1.253,2.717-0.108,1.961,1.148c-1.042,1.731-1.143,4.175-1.923,6.075c-0.754,1.834-1.617,3.639-2.555,5.387
					c-1.917,3.576-4.421,6.707-7.208,9.638c-0.041,0.043-0.087,0.056-0.129,0.09c0.987,4.133,1.935,8.276,3.111,12.35
					c0.123,0.129,0.227,0.286,0.278,0.505c0.104,0.453,0.347,1.093,0.379,1.628c1.943,8.341,3.908,16.681,5.744,25.046
					c0.313,1.424-1.884,2.007-2.198,0.575c-1.829-8.336-3.788-16.647-5.724-24.96c-0.014-0.036-0.038-0.061-0.05-0.1
					c-0.69-2.205-1.293-4.437-1.86-6.679c-4.243,0.428-8.608-1.445-12.191-3.547c-1.263-0.74-0.116-2.702,1.148-1.961
					c3.116,1.827,6.798,3.436,10.486,3.265c-1.244-5.121-2.366-10.28-3.902-15.315c-0.611-2.004-1.29-3.984-2.015-5.946
					c-0.082,0.042-0.151,0.094-0.252,0.118c-5.912,1.429-12.061,1.436-17.886-0.393c-1.392-0.437-0.787-2.628,0.613-2.188
					c5.459,1.714,11.154,1.724,16.698,0.384c0.012-0.003,0.02,0.001,0.032-0.001c-2.269-5.814-4.96-11.464-7.847-16.995
					c-0.492-0.942-1.011-1.877-1.539-2.81c-0.175,0.29-0.473,0.499-0.928,0.468c-4.52-0.311-8.944,0.617-13.299,1.735
					C116.966,292.742,116.389,290.545,117.807,290.181z"/>
			</g>
			<g>
				<g>
					<g>
						<path style="fill:#4E79A9;" d="M70.667,310c9.357,5.348,19.169,9.193,27.659,16.005c8.159,6.547,15.953,13.759,23.131,21.365
							c6.615,7.009,12.861,14.332,19.512,21.317c7.763,8.154,12.712,17.385,19.015,26.556c1.011,1.471,3.39,0.034,2.376-1.442
							c-5.714-8.314-10.161-17.02-17.025-24.524c-7.29-7.971-14.542-16.059-21.952-23.911c-7.467-7.911-15.6-15.417-24.136-22.163
							c-8.348-6.598-18.09-10.407-27.256-15.646C70.437,306.669,69.114,309.113,70.667,310L70.667,310z"/>
					</g>
					<path style="fill:#4E79A9;" d="M72.557,309.515c-1.992-1.258-5.812-1.481-7.785-0.121c-2.311,1.592-0.727,3.702,1.41,4.453
						c2.38,0.835,5.042,0.289,7.488,0.179c2.537-0.113,5.124,0.83,7.556,0.373c-1.252-1.321-3.851-2.395-5.507-3.094
						c-1.762-0.744-3.319-1.895-5.04-2.65"/>
					<path style="fill:#4E79A9;" d="M76.656,312.048c-3.579-1.895-9.215-2.304-11.307-6.372c-1.369-2.662-0.438-4.752,2.683-4.555
						c2.369,0.15,4.04,1.982,5.291,3.803c1.597,2.324,3.472,5.236,4.541,7.779"/>
					<path style="fill:#4E79A9;" d="M86.738,315.946c-0.719-4.577-1.483-10.371-5.316-13.634c-2.389-2.033-3.381,1.105-3.007,3.032
						c0.854,4.396,4.404,8.547,7.77,11.31L86.738,315.946z"/>
					<path style="fill:#4E79A9;" d="M95.949,321.561c-0.007-5.659,0.159-12.794-3.854-17.451c-2.501-2.903-4.288,0.698-4.198,3.094
						c0.205,5.465,3.708,11.141,7.251,15.107L95.949,321.561z"/>
					<path style="fill:#4E79A9;" d="M114.937,337.862c0.981-5.573,2.391-12.569-0.746-17.855c-1.955-3.295-4.344-0.062-4.674,2.314
						c-0.752,5.417,1.705,11.617,4.501,16.141L114.937,337.862z"/>
					<path style="fill:#4E79A9;" d="M129.797,353.572c2.869-6.042,6.674-13.572,4.76-20.581c-1.193-4.369-4.931-1.435-6.053,1.168
						c-2.559,5.936-1.707,13.774,0.057,19.807L129.797,353.572z"/>
					<path style="fill:#4E79A9;" d="M108.757,331.531c-0.888-6.459-1.81-14.635-7.074-19.236c-3.281-2.868-4.744,1.562-4.269,4.281
						c1.082,6.203,5.928,12.058,10.554,15.954L108.757,331.531z"/>
					<path style="fill:#4E79A9;" d="M85.558,318.125c-4.227,1.899-9.497,4.424-14.324,2.996c-3.008-0.89-0.922-3.436,0.897-4.175
						c4.149-1.686,9.565-0.981,13.717,0.329L85.558,318.125z"/>
					<path style="fill:#4E79A9;" d="M106.991,330.062c-5.224,0.708-11.789,1.764-16.594-1.351c-2.995-1.941,0.102-4.046,2.326-4.266
						c5.07-0.501,10.752,2.014,14.86,4.783L106.991,330.062z"/>
					<path style="fill:#4E79A9;" d="M116.793,342.803c-5.601,0.759-12.64,1.891-17.792-1.449c-3.211-2.082,0.11-4.338,2.493-4.574
						c5.436-0.538,11.528,2.16,15.933,5.128L116.793,342.803z"/>
					<path style="fill:#4E79A9;" d="M127.367,353.693c-7.428,0.718-16.754,1.857-23.799-2.865c-4.391-2.943-0.082-5.777,3.084-5.966
						c7.22-0.431,15.484,3.484,21.514,7.673L127.367,353.693z"/>
					<path style="fill:#4E79A9;" d="M121.984,345.703c1.741-3.247,4.043-5.962,4.731-9.673c0.598-3.223-0.374-6.384-2.097-9.101
						c-0.76-1.198-1.516-2.757-3.026-3.166c-2.119-0.574-1.559,1.867-1.364,3.334c0.414,3.121,0.658,6.324,0.731,9.458
						c0.04,1.731,0.131,3.352,0.321,5.019c0.125,1.101-0.196,3.206,0.155,3.988"/>
					<path style="fill:#4E79A9;" d="M112.829,356.041c3.994,0.647,16.714,3.824,21.667,4.626c0.997,1.077,2.019,2.136,3.053,3.202
						c-8.385,0.751-21.92,0.04-25.319-1.327c-1.466-0.589-4.429-2.383-4.742-4.022C106.927,355.562,111.085,355.76,112.829,356.041z
						"/>
					<path style="fill:#4E79A9;" d="M121.39,377.512c4.963-0.349,21.082-0.121,27.237-0.553c1.496,1.009,3.017,1.99,4.555,2.975
						c-9.826,3.256-26.227,6.21-30.68,5.529c-1.921-0.293-5.971-1.608-6.806-3.482C114.19,378.597,119.224,377.665,121.39,377.512z"
						/>
					<path style="fill:#4E79A9;" d="M140.155,365.669c0.964-2.054,7.415-7.628,6.786-19.73c-0.089-1.717-0.365-3.994-2.045-4.905
						c-2.332-1.265-2.927,1.472-3.255,3.211c-0.647,3.432-2.167,16.613-2.972,19.838"/>
					<path style="fill:#4E79A9;" d="M145.835,372.497c-2.525,0.334-5.168,1.479-7.798,1.91c-2.82,0.463-18.124,0.767-22.693-0.906
						c-1.983-0.726-5.994-1.171-6.112-3.852c-0.114-2.589,3.181-3.696,5.252-4.051c4.808-0.824,26.236,3.94,31.568,5.922"/>
					<path style="fill:#4E79A9;" d="M147.704,373.666c6.872-7.205,11.616-23.539,10.486-25.435
						c-2.452-4.115-7.093,1.031-8.256,3.699c-2.607,5.981-3.283,20.875-2.276,21.243"/>
				</g>
			</g>
			<g>
				
					<linearGradient id="SVGID_00000137123379820956650690000006924365977396154264_" gradientUnits="userSpaceOnUse" x1="134.3205" y1="461.5552" x2="134.3205" y2="345.3441">
					<stop  offset="0" style="stop-color:#3A699F"/>
					<stop  offset="0.2283" style="stop-color:#5782B3"/>
					<stop  offset="0.5587" style="stop-color:#7BA1CD"/>
					<stop  offset="0.8274" style="stop-color:#92B4DC"/>
					<stop  offset="0.9987" style="stop-color:#9ABBE2"/>
				</linearGradient>
				<path style="fill:url(#SVGID_00000137123379820956650690000006924365977396154264_);" d="M160.45,388.712
					c3.279,3.62,7.502,8.217,10.964,11.634c4.511,4.453,3.967,8.09-1.045,11.809c-6.188,4.592-16.206,6.106-23.795,6.179
					c-2.683,0.026-3.147-0.228-2.754-3.211c0.29-2.203,0.885-4.197,1.019-6.442c0.258-4.336,0.121-8.106-1.864-12.011
					c-3.131-6.158-4.521,0.704-3.863,4.077c0.766,3.928,1.048,8.092,0.477,12.137c-0.981,6.947-22.086-6.842-24.819-11.313
					c2.888-1.586,7.139-9.279,5.602-12.771c-1.353-3.073-2.575-0.109-3.238,1.696c-0.763,2.079-1.272,4.073-2.811,5.659
					c-6.294,6.487-14.271-14.327-15.719-18.582c-1.906-5.597-4.886-6.822-10.256-7.848c4.594-4.472,11.275-10.913,18.08-10.16
					c3.298,0.365,5.743,3.113,8.068,5.196c1.601,1.434,6.994,5.257,4.537,0.375c-1.715-3.409-5.735-5.058-7.399-8.591
					c2.071-1.922,8.705-5.016,11.525-3.93c3.376,1.301,3.416,8.309,5.267,11.006c3.099-3.833-1.023-8.729-2.151-12.415
					c5.094-2.629,15.026-5.312,20.784-2.802c8.395,3.66-1.445,13.766-3.38,15.398c-1.426,1.202-3.725,3.42-0.289,2.821
					c3.014-0.525,7.663-6.323,9.264-8.875c0.782-1.247,1.45-5.035,2.8-5.684c1.539-0.74,23.253,13.091,24.724,21.179
					C181.708,381.65,167.391,388.713,160.45,388.712z"/>
			</g>
		</g>
	</g>
	<g>
		
			<linearGradient id="SVGID_00000026874663305820174140000014240871708418551719_" gradientUnits="userSpaceOnUse" x1="288.4062" y1="431.799" x2="216.891" y2="153.011">
			<stop  offset="0" style="stop-color:#3A699F"/>
			<stop  offset="0.5611" style="stop-color:#6598D2"/>
			<stop  offset="0.659" style="stop-color:#80A9D8"/>
			<stop  offset="0.8007" style="stop-color:#A0BEE0"/>
			<stop  offset="0.9195" style="stop-color:#B4CAE4"/>
			<stop  offset="1" style="stop-color:#BBCFE6"/>
		</linearGradient>
		<path style="fill:url(#SVGID_00000026874663305820174140000014240871708418551719_);" d="M345.418,431.218H162.884
			c-5.415,0-9.804-4.39-9.804-9.804V175.113c0-5.415,4.39-9.804,9.804-9.804h182.534c5.415,0,9.805,4.39,9.805,9.804v246.301
			C355.223,426.828,350.833,431.218,345.418,431.218z"/>
		<g>
			<rect x="166.963" y="180.444" style="fill:#FFFFFF;" width="174.066" height="238.493"/>
			<g>
				<circle style="fill:none;stroke:#5F94D1;stroke-width:3;stroke-miterlimit:10;" cx="202.683" cy="268.512" r="17.977"/>
				<circle style="fill:none;stroke:#5F94D1;stroke-width:3;stroke-miterlimit:10;" cx="252.588" cy="268.512" r="17.977"/>
				<circle style="fill:none;stroke:#5F94D1;stroke-width:3;stroke-miterlimit:10;" cx="302.348" cy="268.512" r="17.977"/>
				<g>
					
						<linearGradient id="SVGID_00000114059557495304024530000017142004304409557144_" gradientUnits="userSpaceOnUse" x1="191.0959" y1="261.6111" x2="231.4155" y2="261.6111">
						<stop  offset="0" style="stop-color:#D5615D"/>
						<stop  offset="1" style="stop-color:#E2928F"/>
					</linearGradient>
					<path style="fill:url(#SVGID_00000114059557495304024530000017142004304409557144_);" d="M201.984,277.288
						c-0.048,0-0.095-0.002-0.142-0.005c-0.558-0.042-1.07-0.324-1.402-0.774l-8.967-12.123c-0.631-0.853-0.452-2.056,0.402-2.687
						c0.852-0.63,2.057-0.451,2.687,0.402l7.64,10.329l25.933-25.934c0.752-0.751,1.968-0.751,2.717,0
						c0.751,0.75,0.751,1.967,0.001,2.717l-27.51,27.511C202.981,277.087,202.492,277.288,201.984,277.288z"/>
				</g>
				<g>
					
						<linearGradient id="SVGID_00000021806193967242734930000015874899860740066485_" gradientUnits="userSpaceOnUse" x1="241.0012" y1="261.6111" x2="281.3208" y2="261.6111">
						<stop  offset="0" style="stop-color:#D5615D"/>
						<stop  offset="1" style="stop-color:#E2928F"/>
					</linearGradient>
					<path style="fill:url(#SVGID_00000021806193967242734930000015874899860740066485_);" d="M251.889,277.288
						c-0.047,0-0.095-0.002-0.142-0.005c-0.558-0.042-1.07-0.324-1.402-0.774l-8.967-12.123c-0.631-0.853-0.452-2.056,0.402-2.687
						c0.852-0.63,2.057-0.451,2.687,0.402l7.64,10.329l25.933-25.934c0.752-0.751,1.968-0.751,2.717,0
						c0.751,0.75,0.751,1.967,0.001,2.717l-27.51,27.511C252.886,277.087,252.397,277.288,251.889,277.288z"/>
				</g>
				<g>
					
						<linearGradient id="SVGID_00000002383253783774104820000006729062050899036319_" gradientUnits="userSpaceOnUse" x1="290.7606" y1="261.6111" x2="331.0802" y2="261.6111">
						<stop  offset="0" style="stop-color:#D5615D"/>
						<stop  offset="1" style="stop-color:#E2928F"/>
					</linearGradient>
					<path style="fill:url(#SVGID_00000002383253783774104820000006729062050899036319_);" d="M301.649,277.288
						c-0.047,0-0.095-0.002-0.142-0.005c-0.558-0.042-1.07-0.324-1.402-0.774l-8.967-12.123c-0.631-0.853-0.452-2.056,0.402-2.687
						c0.852-0.63,2.057-0.451,2.687,0.402l7.64,10.329l25.933-25.934c0.752-0.751,1.968-0.751,2.717,0
						c0.751,0.75,0.751,1.967,0.001,2.717l-27.51,27.511C302.646,277.087,302.157,277.288,301.649,277.288z"/>
				</g>
				<g>
					
						<linearGradient id="SVGID_00000128484250196292805820000007538798900291130246_" gradientUnits="userSpaceOnUse" x1="183.1721" y1="400.8394" x2="221.8869" y2="400.8394">
						<stop  offset="0.0045" style="stop-color:#5F94D1"/>
						<stop  offset="1" style="stop-color:#3A699F"/>
					</linearGradient>
					
						<rect x="183.172" y="399.888" style="fill:url(#SVGID_00000128484250196292805820000007538798900291130246_);" width="38.715" height="1.903"/>
					<g>
						
							<linearGradient id="SVGID_00000106140191601444213580000008886259782539951550_" gradientUnits="userSpaceOnUse" x1="190.1467" y1="429.3885" x2="190.1467" y2="354.7217">
							<stop  offset="0" style="stop-color:#D5615D"/>
							<stop  offset="1" style="stop-color:#E2928F"/>
						</linearGradient>
						
							<rect x="185.705" y="370.105" style="fill:url(#SVGID_00000106140191601444213580000008886259782539951550_);" width="8.883" height="29.782"/>
						<rect x="198.433" y="361.72" style="fill:#6A9AD1;" width="9.002" height="38.168"/>
						
							<linearGradient id="SVGID_00000102528956051926550880000000106589418920811935_" gradientUnits="userSpaceOnUse" x1="214.8528" y1="429.3885" x2="214.8528" y2="354.7218">
							<stop  offset="0" style="stop-color:#D5615D"/>
							<stop  offset="1" style="stop-color:#E2928F"/>
						</linearGradient>
						
							<rect x="210.352" y="380.804" style="fill:url(#SVGID_00000102528956051926550880000000106589418920811935_);" width="9.002" height="19.084"/>
					</g>
				</g>
				<g>
					
						<linearGradient id="SVGID_00000092458036499725831890000000258941668372762810_" gradientUnits="userSpaceOnUse" x1="183.1721" y1="235.2307" x2="221.8869" y2="235.2307">
						<stop  offset="0.0045" style="stop-color:#5F94D1"/>
						<stop  offset="1" style="stop-color:#3A699F"/>
					</linearGradient>
					
						<rect x="183.172" y="234.279" style="fill:url(#SVGID_00000092458036499725831890000000258941668372762810_);" width="38.715" height="1.903"/>
					<g>
						
							<linearGradient id="SVGID_00000129196979943469913140000008540869331373772709_" gradientUnits="userSpaceOnUse" x1="190.1467" y1="244.3885" x2="190.1467" y2="205.0045">
							<stop  offset="0" style="stop-color:#D5615D"/>
							<stop  offset="1" style="stop-color:#E2928F"/>
						</linearGradient>
						
							<rect x="185.705" y="204.497" style="fill:url(#SVGID_00000129196979943469913140000008540869331373772709_);" width="8.883" height="29.782"/>
						<rect x="198.433" y="196.111" style="fill:#6A9AD1;" width="9.002" height="38.168"/>
						
							<linearGradient id="SVGID_00000134243205478481503620000006040282016538453429_" gradientUnits="userSpaceOnUse" x1="214.8528" y1="244.3885" x2="214.8528" y2="205.0043">
							<stop  offset="0" style="stop-color:#D5615D"/>
							<stop  offset="1" style="stop-color:#E2928F"/>
						</linearGradient>
						
							<rect x="210.352" y="215.195" style="fill:url(#SVGID_00000134243205478481503620000006040282016538453429_);" width="9.002" height="19.084"/>
					</g>
				</g>
				<g>
					<path style="fill:#6A9AD1;" d="M225.952,323.215c0,13.535-10.979,24.514-24.526,24.514c-13.535,0-24.514-10.979-24.514-24.514
						c0-13.547,10.979-24.526,24.514-24.526h0.126c8.811,0.046,16.514,4.736,20.805,11.732
						C224.639,314.153,225.952,318.535,225.952,323.215z"/>
					
						<linearGradient id="SVGID_00000004520242487438789410000016796309797527439544_" gradientUnits="userSpaceOnUse" x1="211.8913" y1="355.5552" x2="211.8913" y2="284.0532">
						<stop  offset="0" style="stop-color:#D5615D"/>
						<stop  offset="1" style="stop-color:#E2928F"/>
					</linearGradient>
					<path style="fill:url(#SVGID_00000004520242487438789410000016796309797527439544_);" d="M201.426,326.821
						c0,0,0.24-20.702,0.126-28.132c8.811,0.046,16.514,4.736,20.805,11.732L201.426,326.821z"/>
				</g>
				<g>
					<g>
						
							<linearGradient id="SVGID_00000142145488170305936610000011578504031420181939_" gradientUnits="userSpaceOnUse" x1="186.3599" y1="205.3076" x2="286.3601" y2="205.3076">
							<stop  offset="0" style="stop-color:#3A699F"/>
							<stop  offset="0.3333" style="stop-color:#4B7CB5"/>
							<stop  offset="0.7297" style="stop-color:#5A8ECA"/>
							<stop  offset="0.9955" style="stop-color:#5F94D1"/>
						</linearGradient>
						<path style="fill:url(#SVGID_00000142145488170305936610000011578504031420181939_);" d="M311.898,206.952h-77.383
							c-0.905,0-1.645-0.74-1.645-1.645l0,0c0-0.904,0.74-1.645,1.645-1.645h77.383c0.905,0,1.645,0.74,1.645,1.645l0,0
							C313.543,206.212,312.802,206.952,311.898,206.952z"/>
						<g>
							<path style="fill:#6A9AD1;" d="M304.807,214.597h-70.291c-0.905,0-1.645-0.74-1.645-1.645l0,0
								c0-0.905,0.74-1.645,1.645-1.645h70.291c0.905,0,1.645,0.74,1.645,1.645l0,0
								C306.451,213.856,305.711,214.597,304.807,214.597z"/>
							<path style="fill:#6A9AD1;" d="M304.807,230.82h-70.291c-0.905,0-1.645-0.74-1.645-1.645l0,0c0-0.905,0.74-1.645,1.645-1.645
								h70.291c0.905,0,1.645,0.74,1.645,1.645l0,0C306.451,230.081,305.711,230.82,304.807,230.82z"/>
							<g>
								<path style="fill:#6A9AD1;" d="M275.562,222.657h-41.046c-0.905,0-1.645-0.74-1.645-1.645l0,0
									c0-0.905,0.74-1.645,1.645-1.645h41.046c0.905,0,1.645,0.74,1.645,1.645l0,0
									C277.206,221.916,276.466,222.657,275.562,222.657z"/>
								<path style="fill:#6A9AD1;" d="M324.191,222.657h-41.046c-0.905,0-1.645-0.74-1.645-1.645l0,0
									c0-0.905,0.74-1.645,1.645-1.645h41.046c0.905,0,1.645,0.74,1.645,1.645l0,0
									C325.836,221.916,325.095,222.657,324.191,222.657z"/>
							</g>
						</g>
					</g>
					<g>
						
							<linearGradient id="SVGID_00000175285503347892809640000005192267841590216892_" gradientUnits="userSpaceOnUse" x1="186.3599" y1="374.6778" x2="286.3601" y2="374.6778">
							<stop  offset="0" style="stop-color:#3A699F"/>
							<stop  offset="0.3333" style="stop-color:#4B7CB5"/>
							<stop  offset="0.7297" style="stop-color:#5A8ECA"/>
							<stop  offset="0.9955" style="stop-color:#5F94D1"/>
						</linearGradient>
						<path style="fill:url(#SVGID_00000175285503347892809640000005192267841590216892_);" d="M311.898,376.323h-77.383
							c-0.905,0-1.645-0.74-1.645-1.645l0,0c0-0.905,0.74-1.645,1.645-1.645h77.383c0.905,0,1.645,0.74,1.645,1.645l0,0
							C313.543,375.582,312.802,376.323,311.898,376.323z"/>
						<g>
							<path style="fill:#6A9AD1;" d="M304.807,383.967h-70.291c-0.905,0-1.645-0.74-1.645-1.645l0,0
								c0-0.905,0.74-1.645,1.645-1.645h70.291c0.905,0,1.645,0.74,1.645,1.645l0,0
								C306.451,383.227,305.711,383.967,304.807,383.967z"/>
							<path style="fill:#6A9AD1;" d="M304.807,400.191h-70.291c-0.905,0-1.645-0.74-1.645-1.645l0,0
								c0-0.905,0.74-1.645,1.645-1.645h70.291c0.905,0,1.645,0.74,1.645,1.645l0,0
								C306.451,399.451,305.711,400.191,304.807,400.191z"/>
							<g>
								<path style="fill:#6A9AD1;" d="M275.562,392.027h-41.046c-0.905,0-1.645-0.74-1.645-1.645l0,0
									c0-0.905,0.74-1.645,1.645-1.645h41.046c0.905,0,1.645,0.74,1.645,1.645l0,0
									C277.206,391.287,276.466,392.027,275.562,392.027z"/>
								<path style="fill:#6A9AD1;" d="M324.191,392.027h-41.046c-0.905,0-1.645-0.74-1.645-1.645l0,0
									c0-0.905,0.74-1.645,1.645-1.645h41.046c0.905,0,1.645,0.74,1.645,1.645l0,0
									C325.836,391.287,325.095,392.027,324.191,392.027z"/>
							</g>
						</g>
					</g>
					<g>
						
							<linearGradient id="SVGID_00000004525432278354691620000002532602660911678864_" gradientUnits="userSpaceOnUse" x1="186.3599" y1="310.3867" x2="286.3601" y2="310.3867">
							<stop  offset="0" style="stop-color:#3A699F"/>
							<stop  offset="0.3333" style="stop-color:#4B7CB5"/>
							<stop  offset="0.7297" style="stop-color:#5A8ECA"/>
							<stop  offset="0.9955" style="stop-color:#5F94D1"/>
						</linearGradient>
						<path style="fill:url(#SVGID_00000004525432278354691620000002532602660911678864_);" d="M311.898,312.031h-77.383
							c-0.905,0-1.645-0.74-1.645-1.645l0,0c0-0.905,0.74-1.645,1.645-1.645h77.383c0.905,0,1.645,0.74,1.645,1.645l0,0
							C313.543,311.291,312.802,312.031,311.898,312.031z"/>
						<g>
							<path style="fill:#6A9AD1;" d="M304.807,328.126h-70.291c-0.905,0-1.645-0.74-1.645-1.645l0,0
								c0-0.905,0.74-1.645,1.645-1.645h70.291c0.905,0,1.645,0.74,1.645,1.645l0,0
								C306.451,327.385,305.711,328.126,304.807,328.126z"/>
							<path style="fill:#6A9AD1;" d="M287.071,335.494h-52.556c-0.905,0-1.645-0.74-1.645-1.645l0,0
								c0-0.905,0.74-1.645,1.645-1.645h52.556c0.904,0,1.645,0.74,1.645,1.645l0,0
								C288.716,334.754,287.976,335.494,287.071,335.494z"/>
							<g>
								<path style="fill:#6A9AD1;" d="M275.562,319.962h-41.046c-0.905,0-1.645-0.74-1.645-1.645l0,0
									c0-0.905,0.74-1.645,1.645-1.645h41.046c0.905,0,1.645,0.74,1.645,1.645l0,0
									C277.206,319.221,276.466,319.962,275.562,319.962z"/>
								<path style="fill:#6A9AD1;" d="M324.191,319.962h-41.046c-0.905,0-1.645-0.74-1.645-1.645l0,0
									c0-0.905,0.74-1.645,1.645-1.645h41.046c0.905,0,1.645,0.74,1.645,1.645l0,0
									C325.836,319.221,325.095,319.962,324.191,319.962z"/>
							</g>
						</g>
					</g>
				</g>
			</g>
		</g>
	</g>
	<g>
		<g>
			<g>
				<path style="fill:#3B244A;" d="M224.531,80.714c-1.593-6.563-6.809-8.458-9.713-10.079c-3.092-1.726-6.392,2.727-8.847,7.442
					c-3.609,6.93-4.942-3.725-4.74,7.963c0.033,1.944,0.704,38.7,0.704,38.7s2.805,0.454,3.25-0.02
					c1.51-1.608,3.101-3.015,4.717-3.49c3.309-0.972,7.421-1.576,10.579,1.962c0.868,0.973,1.056,2.412,1.741,0.208
					c0.481-1.55,0.622-4.742,0.787-6.69c0.371-4.366,0.566-9.595,0.634-14.069C223.736,96.62,225.753,85.747,224.531,80.714z"/>
			</g>
			
				<linearGradient id="SVGID_00000053527781745209509100000014459354016335009447_" gradientUnits="userSpaceOnUse" x1="190.7234" y1="103.0325" x2="187.7233" y2="143.0326">
				<stop  offset="0" style="stop-color:#3B244A"/>
				<stop  offset="0.0088" style="stop-color:#3C254B"/>
				<stop  offset="0.225" style="stop-color:#543D63"/>
				<stop  offset="0.4524" style="stop-color:#654E74"/>
				<stop  offset="0.6989" style="stop-color:#6F587F"/>
				<stop  offset="0.9961" style="stop-color:#725B82"/>
			</linearGradient>
			<path style="fill:url(#SVGID_00000053527781745209509100000014459354016335009447_);" d="M201.935,102.867
				c0,0-6.191-2.049-11.412,6.17c-2.469,3.886-5.086,7.675-8.047,11.2l-3.819,4.548c-1.934,2.303-0.756,5.836,2.173,6.517l0,0
				l18.561-14.637L201.935,102.867z"/>
			
				<linearGradient id="SVGID_00000094577332486151305380000002327064589125189770_" gradientUnits="userSpaceOnUse" x1="233.2435" y1="106.2215" x2="230.2434" y2="146.2213">
				<stop  offset="0" style="stop-color:#3B244A"/>
				<stop  offset="0.0088" style="stop-color:#3C254B"/>
				<stop  offset="0.225" style="stop-color:#543D63"/>
				<stop  offset="0.4524" style="stop-color:#654E74"/>
				<stop  offset="0.6989" style="stop-color:#6F587F"/>
				<stop  offset="0.9961" style="stop-color:#725B82"/>
			</linearGradient>
			<path style="fill:url(#SVGID_00000094577332486151305380000002327064589125189770_);" d="M220.512,102.154
				c0,0,6.191-2.049,11.412,6.17c2.469,3.886,5.086,7.675,8.047,11.2l3.819,4.548c1.934,2.303,0.756,5.836-2.173,6.517l0,0
				l-18.561-14.637L220.512,102.154z"/>
			<g>
				
					<linearGradient id="SVGID_00000029008638361764299640000001808234306686133693_" gradientUnits="userSpaceOnUse" x1="193.1308" y1="131.7277" x2="226.9553" y2="131.7277">
					<stop  offset="0" style="stop-color:#D5615D"/>
					<stop  offset="1" style="stop-color:#E2928F"/>
				</linearGradient>
				<path style="fill:url(#SVGID_00000029008638361764299640000001808234306686133693_);" d="M220.727,139.758
					c-0.393-0.62-0.62-1.319-0.681-2.044c-0.035-0.411-0.044-0.821-0.044-1.232c0-0.865,0.087-1.686,0.332-2.359l1.73-3.38
					l2.096-4.088c2.009-3.94,3.328-8.989,1.433-12.832c-1.852-3.756-1.069-9.391-2.484-11.645c-1.383-0.424-2.991-0.51-4.742-0.384
					l-0.002-0.005l-0.001,0.005c-0.001,0-0.002,0-0.003,0l0.002,0.006l-5.734,0.127l-6.139,0.15l-1.181,0.139l0.001-0.003
					c-2.089,0.034-4.023,0.163-5.442,0.611l0.454,4.525c0.227,2.359-0.061,4.743-0.839,6.988c-0.507,1.476-0.76,3.005-0.76,4.534
					c0,1.808,0.349,3.617,1.048,5.311l2.184,5.233l0.332,0.795c0.428,1.066,0.681,2.166,0.742,3.276
					c0.096,1.581-0.192,3.145-0.821,4.604l-9.077,18.104c12.815,8.928,24.364,6.577,33.824-3.809L220.727,139.758z"/>
			</g>
			<path style="fill:#98565C;" d="M215.803,103.418l-0.15,0.219c-1.55,2.267-4.925,2.172-6.345-0.179l0,0
				c0.05-1.034-0.109-6.932-0.477-7.609l6.624-1.581l0.239,2.695C215.734,97.421,215.773,102.95,215.803,103.418z"/>
			<g>
				<path style="fill:#A4686E;" d="M225.455,86.741c-0.527,2.278-2.248,2.994-3.849,3.451c-0.557,1.144-1.283,2.278-2.128,3.302
					c-0.268,0.318-0.547,0.627-0.826,0.915c-1.253,1.472-2.864,2.566-4.704,3.014c-0.06,0.02-0.109,0.03-0.169,0.04
					c-0.109,0.02-0.209,0.06-0.318,0.08c-0.07,0.01-0.149,0.01-0.219,0.02c-0.06,0.01-0.129,0.01-0.189,0.02
					c-0.139,0.01-0.278,0.02-0.428,0.02c-0.139,0-0.288-0.01-0.428-0.02c-0.06-0.01-0.119-0.01-0.189-0.02
					c-0.07-0.01-0.149-0.01-0.219-0.02c-0.109-0.02-0.209-0.06-0.318-0.08c-0.05-0.01-0.109-0.02-0.159-0.04
					c-1.84-0.448-3.461-1.542-4.704-3.014c-1.193-1.233-2.238-2.715-2.964-4.217c-1.601-0.458-3.322-1.174-3.839-3.451
					c-0.418-1.8,0.07-4.177,1.571-4.306c0.448-0.04,0.955,0.129,1.452,0.418c0.656-3.004,2.248-6.206,4.197-8.404
					c0.816-1.094,1.76-1.81,2.785-2.238c0.547-0.268,1.114-0.447,1.671-0.497c0.388-0.04,0.766-0.05,1.144-0.04
					c0.378-0.01,0.756,0,1.144,0.04c0.557,0.05,1.124,0.229,1.671,0.497c1.034,0.428,1.969,1.144,2.795,2.238
					c0.487,0.547,0.945,1.154,1.373,1.81c1.303,1.969,2.317,4.336,2.814,6.594c0.497-0.288,1.005-0.457,1.452-0.418
					C225.375,82.564,225.863,84.941,225.455,86.741z"/>
				<g>
					<path style="fill:#3B244A;" d="M211.992,90.136c-0.021,0.008-0.043,0.014-0.066,0.017c-0.574,0.066-1.361,0.095-1.568-0.41
						c-0.288-0.701,0.97-1.787,1.524-2.22c0.119-0.09,0.286-0.071,0.378,0.046c0.091,0.117,0.071,0.286-0.046,0.378
						c-0.782,0.614-1.443,1.388-1.359,1.593c0.001,0.002,0.117,0.182,1.008,0.079c0.148-0.017,0.281,0.089,0.299,0.237
						C212.177,89.978,212.104,90.093,211.992,90.136z"/>
				</g>
				<g>
					<path style="fill:#3B244A;" d="M218.211,84.071c-0.116,0.006-0.23-0.054-0.288-0.163c-0.906-1.721-2.491-1.015-2.559-0.985
						c-0.153,0.071-0.334,0.003-0.406-0.15c-0.07-0.153-0.003-0.335,0.151-0.406c0.75-0.346,2.418-0.527,3.357,1.256
						c0.078,0.149,0.021,0.334-0.129,0.413C218.296,84.058,218.254,84.069,218.211,84.071z"/>
				</g>
				<g>
					<path style="fill:#3B244A;" d="M209.276,83.297c-0.07,0.067-0.176,0.092-0.272,0.054c-1.521-0.596-2.14,0.723-2.166,0.779
						c-0.059,0.129-0.21,0.185-0.34,0.128c-0.129-0.059-0.187-0.211-0.127-0.341c0.286-0.632,1.246-1.663,2.822-1.046
						c0.132,0.052,0.197,0.201,0.145,0.333C209.323,83.241,209.302,83.272,209.276,83.297z"/>
				</g>
				<g>
					<path style="fill:#3B244A;" d="M214.344,92.843c-0.796,0.361-1.684,0.407-2.436,0.125c-0.153-0.058-0.231-0.228-0.173-0.381
						c0.057-0.153,0.228-0.231,0.381-0.173c0.606,0.227,1.328,0.187,1.983-0.11c1.038-0.471,1.663-1.485,1.486-2.41
						c-0.03-0.161,0.075-0.313,0.235-0.347c0.161-0.03,0.316,0.075,0.347,0.235C216.394,90.972,215.628,92.259,214.344,92.843z"/>
				</g>
				<path style="fill:#3B244A;" d="M209.139,86.036c-0.002,0.547-0.418,0.988-0.93,0.987c-0.512-0.002-0.925-0.447-0.923-0.993
					c0.002-0.547,0.418-0.989,0.93-0.986C208.729,85.044,209.141,85.489,209.139,86.036z"/>
				<path style="fill:#3B244A;" d="M217.311,86.036c-0.002,0.547-0.418,0.988-0.93,0.987c-0.512-0.002-0.925-0.447-0.923-0.993
					c0.002-0.547,0.418-0.989,0.93-0.986C216.9,85.044,217.313,85.489,217.311,86.036z"/>
			</g>
			<g>
				
					<linearGradient id="SVGID_00000025428441222589523620000011675314646061655692_" gradientUnits="userSpaceOnUse" x1="192.4659" y1="135.2909" x2="250.4659" y2="206.791">
					<stop  offset="0" style="stop-color:#3B244A"/>
					<stop  offset="0.0549" style="stop-color:#422B51"/>
					<stop  offset="0.3018" style="stop-color:#5B446A"/>
					<stop  offset="0.4496" style="stop-color:#654E74"/>
					<stop  offset="0.4578" style="stop-color:#654E74"/>
					<stop  offset="0.7016" style="stop-color:#6F587F"/>
					<stop  offset="0.9961" style="stop-color:#725B82"/>
				</linearGradient>
				<path style="fill:url(#SVGID_00000025428441222589523620000011675314646061655692_);" d="M223.664,166.365h-24.27
					c-4.165,0-7.574-3.408-7.574-7.573l0,0c0-4.166,3.408-7.574,7.574-7.574h24.27c4.165,0,7.573,3.408,7.573,7.574l0,0
					C231.237,162.957,227.829,166.365,223.664,166.365z"/>
				
					<linearGradient id="SVGID_00000091016603303506815380000014385385571633321135_" gradientUnits="userSpaceOnUse" x1="171.0746" y1="152.6433" x2="229.0748" y2="224.1434">
					<stop  offset="0" style="stop-color:#3B244A"/>
					<stop  offset="0.0549" style="stop-color:#422B51"/>
					<stop  offset="0.3018" style="stop-color:#5B446A"/>
					<stop  offset="0.4496" style="stop-color:#654E74"/>
					<stop  offset="0.4578" style="stop-color:#654E74"/>
					<stop  offset="0.7016" style="stop-color:#6F587F"/>
					<stop  offset="0.9961" style="stop-color:#725B82"/>
				</linearGradient>
				<path style="fill:url(#SVGID_00000091016603303506815380000014385385571633321135_);" d="M210.148,197.238
					c-2.297,8.752-4.734,15.615-4.734,15.774c2.287,6.017,1.333,11.547,3.352,14.123c1.8,2.278-4.167,3.073-6.455,2.079
					c-2.307-1.005-0.945-8.762-0.945-8.762s-3.232-4.665-0.079-7.439c-0.269-5.749-0.507-11.736-0.577-17.336
					c-0.159-13.377,0.577-24.576,3.849-25.183c-0.249-0.07-2.447-0.835-2.685-0.905c-4.844-1.542-8.086-4.048-8.852-8.056
					c0,0,19.633-1.701,20.826,6.723C214.962,176.064,212.635,187.76,210.148,197.238z"/>
				
					<linearGradient id="SVGID_00000057144321214269956960000004474119948855118502_" gradientUnits="userSpaceOnUse" x1="206.5604" y1="146.0944" x2="225.5604" y2="195.5944">
					<stop  offset="0" style="stop-color:#3B244A"/>
					<stop  offset="0.0549" style="stop-color:#422B51"/>
					<stop  offset="0.3018" style="stop-color:#5B446A"/>
					<stop  offset="0.4496" style="stop-color:#654E74"/>
					<stop  offset="0.4578" style="stop-color:#654E74"/>
					<stop  offset="0.7016" style="stop-color:#6F587F"/>
					<stop  offset="0.9961" style="stop-color:#725B82"/>
				</linearGradient>
				<path style="fill:url(#SVGID_00000057144321214269956960000004474119948855118502_);" d="M236.057,212.048
					c-2.218-2.307-5.231-5.341-6.872-11.348c-3.342-4.366-6.992-8.822-10.493-13.228c-8.623-10.871-16.321-21.483-16.092-29.887
					c0.04-1.492,0.676-2.825,1.671-3.779c1.005-0.965,2.367-1.551,3.849-1.551c3.232,0,6.137,1.939,7.38,4.923l10.274,25.014
					l6.574,16.003l0.03-0.02c4.933,4.137,6.753,6.276,8.175,11.497C241.378,212.654,238.196,214.276,236.057,212.048z"/>
			</g>
			<path style="fill:#A4686E;" d="M214.106,144.317c0,0,3.284-5.614,3.898-6.198l0.702-0.665c0.779-0.73,1.896-0.973,2.906-0.621
				l3.716,1.287c0.581,0.208,1.231,0.036,1.635-0.433l0.131-0.151l1.864-2.146c0,0,8.985-14.859,13.907-12.336
				c2.616,2.015,2.46,6.007-0.29,7.818l-10.55,6.943l-2.833,1.867l-1.865,1.231c-0.381,0.243-0.824,0.385-1.275,0.399l-4.658,0.124
				C222.132,143.079,215.476,146.515,214.106,144.317z"/>
			<path style="fill:#A4686E;" d="M208.341,145.03c0,0-3.284-5.614-3.898-6.198l-0.702-0.665c-0.779-0.73-1.896-0.973-2.906-0.621
				l-3.716,1.287c-0.581,0.208-1.231,0.036-1.635-0.433l-0.131-0.151l-1.864-2.146c0,0-8.985-14.859-13.907-12.336
				c-2.616,2.015-2.46,6.007,0.29,7.818l10.55,6.943l2.833,1.867l1.865,1.231c0.381,0.243,0.824,0.385,1.275,0.399l4.658,0.124
				C200.315,143.792,206.971,147.228,208.341,145.03z"/>
			<path style="fill:#543867;" d="M208.766,227.135c1.8,2.278-4.167,3.073-6.455,2.079c-2.307-1.005-0.945-8.762-0.945-8.762
				s-3.232-4.665-0.079-7.439c0,0,4.128-0.159,4.128,0C207.702,219.03,206.747,224.559,208.766,227.135z"/>
			<path style="fill:#543867;" d="M236.057,212.048c-2.218-2.307-5.231-5.341-6.872-11.348l3.163-2.506l0.03-0.02
				c4.933,4.137,6.753,6.276,8.175,11.497C241.378,212.654,238.196,214.276,236.057,212.048z"/>
			<g>
				<path style="fill:#3B244A;" d="M205.214,83.481c0,0,4.791-4.725,9.139-6.228c1.202-0.415,1.497-0.671,2.256,0.158
					c0.814,0.889,1.526,2.248,2.217,3.246c1.462,2.112,5.241,3.903,5.705,0.057c0.231-1.912-2.179-9.045-7.311-11.103
					c-4.772-1.914-9.858-0.368-12.709,3.134c-1.416,1.74-2.81,5.473-3.211,7.714c-0.204,1.141-0.041,7.077,1.67,7.006"/>
			</g>
		</g>
		<g>
			
				<linearGradient id="SVGID_00000137112480899205026890000009780285868518682023_" gradientUnits="userSpaceOnUse" x1="190.6757" y1="138.8053" x2="231.9569" y2="138.8053">
				<stop  offset="0.0045" style="stop-color:#5F94D1"/>
				<stop  offset="1" style="stop-color:#3A699F"/>
			</linearGradient>
			<path style="fill:url(#SVGID_00000137112480899205026890000009780285868518682023_);" d="M229.989,126.393h-37.345
				c-1.202,0-2.123,1.068-1.946,2.257l2.877,19.358c-0.712,0.174-1.246,0.816-1.246,1.58v0c0,0.897,0.734,1.63,1.631,1.63h34.48
				c0.897,0,1.631-0.734,1.631-1.63v0c0-0.874-0.699-1.588-1.565-1.624l3.421-19.259
				C232.14,127.499,231.213,126.393,229.989,126.393z"/>
			<path style="fill:#FFFFFF;" d="M213.665,136.991c0.919,0.919,0.919,2.408,0,3.326c-0.918,0.918-2.408,0.918-3.326,0
				c-0.918-0.919-0.918-2.408,0-3.326C211.258,136.072,212.747,136.072,213.665,136.991z"/>
		</g>
	</g>
	<g>
		<path style="fill:#F2F2F2;" d="M129.3,429.957c0,2.036-19.523,3.687-43.607,3.687c-24.083,0-43.607-1.651-43.607-3.687
			c0-2.037,19.523-3.688,43.607-3.688C109.777,426.27,129.3,427.921,129.3,429.957z"/>
		<g>
			<g>
				
					<linearGradient id="SVGID_00000090993210718547243850000008455522234514556550_" gradientUnits="userSpaceOnUse" x1="86.2693" y1="252.414" x2="122.2721" y2="251.0146">
					<stop  offset="0" style="stop-color:#3B244A"/>
					<stop  offset="0.0549" style="stop-color:#422B51"/>
					<stop  offset="0.3018" style="stop-color:#5B446A"/>
					<stop  offset="0.4496" style="stop-color:#654E74"/>
					<stop  offset="0.4578" style="stop-color:#654E74"/>
					<stop  offset="0.7016" style="stop-color:#6F587F"/>
					<stop  offset="0.9961" style="stop-color:#725B82"/>
				</linearGradient>
				<path style="fill:url(#SVGID_00000090993210718547243850000008455522234514556550_);" d="M93.863,257.991
					c1.539-0.19,3.346-0.678,4.404-1.953c-2.323-0.643-4.358-1.798-5.544-4.058c0.813-0.269,1.805-0.382,2.627-0.769
					c0.893-0.421,1.724-1.255,2.528-1.809c-1.932-0.113-3.554-1.013-4.414-2.815c-1.254-2.628-1.261-4.877-0.387-7.228
					c-0.32-0.209-0.634-0.434-0.93-0.697c-2.947-2.615-3.617-7.162-6.958-9.38c-0.225-0.15-0.425-0.312-0.611-0.479
					c-1.243,1.392-2.282,2.982-2.82,4.524c-0.748,2.144-0.89,4.514-0.507,6.735c0.185,1.071,0.396,2.166,0.695,3.211
					c0.167,0.584,0.826,1.782,0.521,2.35c-0.264,0.492-1.572,0.936-2.037,1.348c-0.663,0.586-1.237,1.219-1.745,1.93
					c-1.249,1.747-1.662,3.399-1.848,5.508c-0.322,3.669,0.358,7.114,2.958,9.807c0.898,0.93,2.356,2.358,3.702,2.555
					c1.138,0.167,2.344-0.075,3.407-0.388c1.531-0.45,2.944-1.25,4.537-1.087c1.394,0.142,2.567,1.033,3.472,2.139
					c1.442,1.764,3.374,6.537,0.896,8.284c1.168-0.853,2.272-1.991,3.066-3.181c1.569-2.352,1.435-4.875,0.195-7.414
					C97.804,262.537,94.565,260.835,93.863,257.991z"/>
			</g>
			<path style="fill:#EEC8C7;" d="M107.97,430.905c-13.93,0.06-19.91,0.12-17.21-7.02l0.17-0.41c0.02-0.1,0.04-0.2,0.06-0.3
				c2.03-9.43,1.59-29.33,1.42-31.69c-0.17-2.39-0.06-5.29,2.36-6.67c0,0-0.73-11.5-1.86-23.88c-0.05-0.5-0.09-1.01-0.14-1.51
				c-0.84-9.09-1.87-18.43-2.98-23.85c-0.84,7.21-1.98,15.92-3.2,24.06c-0.08,0.52-0.15,1.03-0.23,1.54
				c-1.66,11.08-3.4,20.89-4.54,24.19c-4.52,13.08-10.3,27.27-15.66,38.03c-0.02,0.04-0.04,0.07-0.06,0.11l9.97,4.33
				c3.29,1.01,1.94,3.05,0,3.07c-13.93,0.06-19.91,0.12-17.21-7.02l0.17-0.41c0.21-0.31,0.41-0.64,0.61-1
				c5.36-9.62,7.5-37.96,13.21-37.22c0.13-3.21-0.38-12.9-0.95-23.54c-0.81-15-1.73-31.88-1.12-35.07c0.96-5.1,2.61-10.13,5.26-14.6
				c2.42-4.06,6.08-7.59,6.96-12.37c0.01-0.01,0.01-0.02,0.01-0.03h17.51c2.36,8.78,6.58,17.49,6.48,27.03c0,0.2,0-0.02,0,0.23
				c-0.08,12.6,0.21,14.21,0.13,27.81v0.15c0.01,0.29,0.01,0.55,0.01,0.81c0,0.57-0.16,2.15-0.11,3.05
				c0.03,0.53,0.05,1.09,0.06,1.69c0.19,17.27-9.1,62.72-9.18,63.05l0.04,0.02l10.02,4.35
				C111.26,428.845,109.91,430.885,107.97,430.905z"/>
			<path style="fill:#6A9AD1;" d="M107.97,430.905c-13.93,0.06-19.91,0.12-17.21-7.02l0.17-0.41c0.02-0.1,0.04-0.2,0.06-0.3
				l6.96,0.31l10.02,4.35C111.26,428.845,109.91,430.885,107.97,430.905z"/>
			<path style="fill:#6A9AD1;" d="M76.07,430.905c-13.93,0.06-19.91,0.12-17.21-7.02l0.17-0.41c0.21-0.31,0.41-0.64,0.61-1
				l6.52,0.92c-0.02,0.04-0.04,0.07-0.06,0.11l9.97,4.33C79.36,428.845,78.01,430.885,76.07,430.905z"/>
			
				<linearGradient id="SVGID_00000070835577498178622180000003424237696334144953_" gradientUnits="userSpaceOnUse" x1="70.5818" y1="330.6802" x2="107.144" y2="330.6802">
				<stop  offset="0" style="stop-color:#D5615D"/>
				<stop  offset="1" style="stop-color:#E2928F"/>
			</linearGradient>
			<path style="fill:url(#SVGID_00000070835577498178622180000003424237696334144953_);" d="M107.14,355.675
				c0,0.57-0.16,2.15-0.11,3.05c0.03,0.53,0.05,1.09,0.06,1.69l-14.18,0.52l-6.55,0.24l-14.46,0.54c-0.81-15-1.73-31.88-1.12-35.07
				c0.96-5.1,2.61-10.13,5.26-14.6c2.42-4.06,6.08-7.59,6.96-12.37l17.52-0.03c2.36,8.78,6.58,17.49,6.48,27.03c0,0.2,0-0.02,0,0.23
				c-0.08,12.6,0.21,14.21,0.13,27.81v0.15C107.14,355.155,107.14,355.415,107.14,355.675z"/>
			<g>
				<g>
					<path style="fill:#EEC8C7;" d="M106.57,263.612c0,0-5.793-3.963-4.33-5.284c0.391-0.35,3.368,2.422,5.573,3.699L106.57,263.612
						z"/>
					<path style="fill:#6A9AD1;" d="M104.835,263.743L104.835,263.743c-0.859,0.026-1.576-0.649-1.601-1.508l-0.343-11.392
						l3.109-0.094l0.343,11.392C106.369,263,105.694,263.717,104.835,263.743z"/>
					
						<linearGradient id="SVGID_00000075163772853707059150000013752358975646666893_" gradientUnits="userSpaceOnUse" x1="93.619" y1="247.2403" x2="121.4331" y2="247.2403">
						<stop  offset="0.0045" style="stop-color:#5F94D1"/>
						<stop  offset="1" style="stop-color:#3A699F"/>
					</linearGradient>
					<path style="fill:url(#SVGID_00000075163772853707059150000013752358975646666893_);" d="M120.812,236.937
						c-6.081,2.965-14.54,8.173-23.806,9.13l0.029,0.953c-0.26-0.075-0.532-0.124-0.818-0.115c-1.479,0.045-2.641,1.279-2.597,2.758
						c0.044,1.479,1.279,2.641,2.758,2.597c0.286-0.009,0.554-0.073,0.809-0.164l0.041,1.359c9.921-1.216,17.05,2.359,24.205,4.088
						L120.812,236.937z"/>
					<path style="fill:#6A9AD1;" d="M97.286,254.234L97.286,254.234c-0.466,0.014-0.859-0.356-0.873-0.822l-0.215-7.117
						c-0.014-0.466,0.356-0.859,0.822-0.873l0,0c0.466-0.014,0.859,0.356,0.873,0.822l0.215,7.117
						C98.122,253.828,97.752,254.22,97.286,254.234z"/>
					<path style="fill:#EEC8C7;" d="M107.09,293.095c-1.01-0.81-2.07-1.87-3.16-3.21l-12.65-15.29l-5.12-6.72
						c-1.4-1.6-1.8-3.85-1.05-5.83c0.84-2.23,2.39-3.31,4.05-3.31c1.69,0,3.5,1.13,4.75,3.21l4.53,6.92l9.33,14.27l1.16,1.78
						l-2.36-21.3l0.29-1.64c0.2-1.14-0.51-2.28-1.64-2.56c-1.11-0.28-1.92-0.64-2.49-1.05c-1.89-1.35-0.68-4.41,1.63-4.09
						c6.7,0.94,5.67,9.34,5.67,9.34l6.49,25.63C117.25,294.315,112.99,297.865,107.09,293.095z"/>
					<path style="fill:#6A9AD1;" d="M121.44,257.552c-1.253,0.033-2.393-2.213-2.995-5.729c-0.244-1.335-0.39-2.848-0.439-4.492
						c-0.049-1.693,0.016-3.271,0.179-4.639c0.391-3.451,1.383-5.713,2.62-5.762c1.725-0.049,3.255,4.264,3.434,10.221
						C124.419,253.092,123.149,257.486,121.44,257.552z"/>
					<path style="fill:#A5D0FE;" d="M118.755,251.92c-0.114,0-0.212-0.033-0.309-0.098c-0.244-1.335-0.39-2.848-0.439-4.492
						c-0.049-1.693,0.016-3.271,0.179-4.639c0.098-0.081,0.195-0.13,0.293-0.13c0.781-0.016,1.465,1.937,1.546,4.639
						C120.106,249.902,119.536,251.887,118.755,251.92z"/>
				</g>
				
					<linearGradient id="SVGID_00000096738023968881411060000003325220871640354720_" gradientUnits="userSpaceOnUse" x1="84.7377" y1="275.9152" x2="107.7699" y2="275.9152">
					<stop  offset="0" style="stop-color:#3A699F"/>
					<stop  offset="0.2977" style="stop-color:#487AB3"/>
					<stop  offset="0.7232" style="stop-color:#598DC9"/>
					<stop  offset="0.9955" style="stop-color:#5F94D1"/>
				</linearGradient>
				<path style="fill:url(#SVGID_00000096738023968881411060000003325220871640354720_);" d="M107.77,283.135l-0.68,9.96
					c-1.01-0.81-2.07-1.87-3.16-3.21l-12.65-15.29l-5.12-6.72c-1.4-1.6-1.8-3.85-1.05-5.83c0.84-2.23,2.39-3.31,4.05-3.31
					c1.69,0,3.5,1.13,4.75,3.21l4.53,6.92L107.77,283.135z"/>
			</g>
			<g>
				
					<linearGradient id="SVGID_00000043426843664651951800000016689860177165967264_" gradientUnits="userSpaceOnUse" x1="101.7835" y1="321.9305" x2="101.7962" y2="321.9305">
					<stop  offset="0" style="stop-color:#D5615D"/>
					<stop  offset="1" style="stop-color:#E2928F"/>
				</linearGradient>
				<path style="fill:url(#SVGID_00000043426843664651951800000016689860177165967264_);" d="M101.784,321.964
					c0.004-0.022,0.009-0.044,0.013-0.066C101.797,321.891,101.785,321.958,101.784,321.964z"/>
				
					<linearGradient id="SVGID_00000103986165467014578210000000581667250750521224_" gradientUnits="userSpaceOnUse" x1="104.4957" y1="309.7661" x2="104.5518" y2="309.7661">
					<stop  offset="0" style="stop-color:#D5615D"/>
					<stop  offset="1" style="stop-color:#E2928F"/>
				</linearGradient>
				<path style="fill:url(#SVGID_00000103986165467014578210000000581667250750521224_);" d="M104.496,309.874
					C104.604,309.438,104.528,309.782,104.496,309.874L104.496,309.874z"/>
			</g>
			<path style="fill:#F3D559;" d="M75.323,261.408"/>
			<path style="fill:#E9B7B6;" d="M90.911,269.484c-8.073-0.749-12.728-6.494-14.632-9.684l1.335-2.246
				c0.83-1.383,1.497-2.832,2.018-4.362l1.449-4.264l5.827,2.506c-0.765,2.116-0.651,4.281,0.212,6.494
				c0.391,1.025,1.205,1.872,2.165,2.393l0.033,0.016l2.262,1.058C97.193,268.768,90.911,269.484,90.911,269.484z"/>
			<g>
				<path style="fill:#EEC8C7;" d="M74.119,247.933c-1.056-1.471-1.515-3.805-0.209-4.491c0.39-0.205,0.913-0.248,1.476-0.17
					c-0.93-5.055,0.335-11.655,3.599-13.37c4.271-2.244,9.026-1.672,14.52,9.521c2.173,4.429,1.104,10.507-2.927,13.097
					c-3.029,1.946-8.32,0.031-11.673-2.923C77.287,249.792,75.457,249.799,74.119,247.933z"/>
				<g>
					<g>
						<g>
							<path style="fill:#3B244A;" d="M90.142,243.827c0.021-0.006,0.041-0.015,0.061-0.026c0.482-0.294,1.107-0.744,0.964-1.258
								c-0.199-0.714-1.822-0.796-2.51-0.799c-0.146,0.002-0.263,0.117-0.264,0.263c0,0.145,0.117,0.263,0.262,0.264
								c0.972,0.004,1.947,0.204,2.005,0.413c0.001,0.002,0.019,0.21-0.73,0.666c-0.124,0.076-0.164,0.238-0.089,0.362
								C89.905,243.816,90.03,243.861,90.142,243.827z"/>
						</g>
					</g>
					<g>
						<g>
							<path style="fill:#3B244A;" d="M90.873,246.964c0.275-0.114,0.438-0.205,0.445-0.21c0.143-0.083,0.192-0.265,0.111-0.408
								c-0.083-0.143-0.254-0.202-0.409-0.111c-0.13,0.077-3.27,1.823-5.419-1.044c-0.099-0.132-0.284-0.162-0.42-0.06
								c-0.132,0.099-0.159,0.287-0.059,0.419C87.084,248.168,89.813,247.401,90.873,246.964z"/>
						</g>
					</g>
					<path style="fill:#3B244A;" d="M83.692,241.97"/>
					<g>
						<g>
							<path style="fill:#3B244A;" d="M81.064,240.963c0.108-0.033,0.194-0.126,0.211-0.246c0.262-1.884,1.954-1.761,2.026-1.755
								c0.164,0.014,0.308-0.108,0.324-0.272c0.014-0.165-0.108-0.31-0.273-0.324c-0.805-0.07-2.399,0.318-2.671,2.269
								c-0.023,0.163,0.092,0.315,0.256,0.337C80.981,240.979,81.024,240.975,81.064,240.963z"/>
						</g>
					</g>
					<g>
						<g>
							<path style="fill:#3B244A;" d="M88.205,236.897c0.087,0.039,0.193,0.027,0.269-0.041c1.201-1.053,2.208-0.045,2.251-0.002
								c0.097,0.099,0.255,0.101,0.355,0.005c0.099-0.097,0.101-0.256,0.004-0.356c-0.473-0.486-1.698-1.115-2.942-0.025
								c-0.104,0.091-0.115,0.25-0.022,0.355C88.144,236.861,88.173,236.882,88.205,236.897z"/>
						</g>
					</g>
					<path style="fill:#3B244A;" d="M85.099,241.747c-0.002,0.474-0.362,0.856-0.806,0.855c-0.444-0.002-0.801-0.387-0.799-0.861
						c0.002-0.474,0.362-0.856,0.806-0.855C84.743,240.888,85.1,241.273,85.099,241.747z"/>
					<path style="fill:#3B244A;" d="M91.267,239.438c-0.002,0.472-0.36,0.852-0.802,0.851c-0.442-0.002-0.798-0.385-0.796-0.857
						c0.002-0.471,0.361-0.852,0.802-0.851C90.913,238.583,91.269,238.966,91.267,239.438z"/>
				</g>
			</g>
			
				<linearGradient id="SVGID_00000046330840080255900620000011570659254108190389_" gradientUnits="userSpaceOnUse" x1="74.1339" y1="279.6091" x2="102.093" y2="279.6091">
				<stop  offset="0" style="stop-color:#3A699F"/>
				<stop  offset="0.2977" style="stop-color:#487AB3"/>
				<stop  offset="0.7232" style="stop-color:#598DC9"/>
				<stop  offset="0.9955" style="stop-color:#5F94D1"/>
			</linearGradient>
			<path style="fill:url(#SVGID_00000046330840080255900620000011570659254108190389_);" d="M101.952,274.462
				c0.602-4.052-0.781-6.689-3.043-8.708c-1.79-1.611-4.118-2.799-6.478-3.971l-0.846-0.391c0.016,0.033,0.049,0.049,0.081,0.065
				c2.181,1.644,0.505,5.127-2.181,4.622c-6.348-1.188-9.294-7.783-13.2-6.283l-0.96,1.595c0.846,5.013-1.872,6.234-1.025,11.247
				c0.342,2.002,6.771,14.876,8.431,22.705c0.342,1.644,0.488,3.06,0.309,4.118c-0.016,0.065-0.016,0.114-0.033,0.179h17.513
				c-0.374-1.432-1.823-12.158-0.879-16.243L101.952,274.462z"/>
			<g>
				
					<linearGradient id="SVGID_00000018206198854785454690000010643357098769255840_" gradientUnits="userSpaceOnUse" x1="63.1642" y1="245.9708" x2="100.1643" y2="254.9708">
					<stop  offset="0" style="stop-color:#3B244A"/>
					<stop  offset="0.0549" style="stop-color:#422B51"/>
					<stop  offset="0.3018" style="stop-color:#5B446A"/>
					<stop  offset="0.4496" style="stop-color:#654E74"/>
					<stop  offset="0.4578" style="stop-color:#654E74"/>
					<stop  offset="0.7016" style="stop-color:#6F587F"/>
					<stop  offset="0.9961" style="stop-color:#725B82"/>
				</linearGradient>
				<path style="fill:url(#SVGID_00000018206198854785454690000010643357098769255840_);" d="M84.823,225.231
					c-3.224-0.459-7.003,0.035-9.757,1.726c-2.584,1.587-5.258,4.62-6.251,7.467c-0.748,2.144-0.89,4.514-0.507,6.735
					c0.185,1.071,0.396,2.166,0.695,3.211c0.167,0.584,0.826,1.782,0.521,2.35c-0.264,0.492-1.572,0.936-2.037,1.348
					c-0.663,0.586-1.237,1.219-1.745,1.93c-1.249,1.747-1.662,3.399-1.848,5.508c-0.322,3.669,0.358,7.114,2.958,9.807
					c0.899,0.93,2.356,2.358,3.702,2.555c1.138,0.167,2.344-0.075,3.407-0.388c1.531-0.45,2.944-1.249,4.537-1.087
					c1.394,0.142,2.567,1.033,3.472,2.139c1.442,1.764,3.374,6.538,0.896,8.284c1.168-0.853,2.272-1.991,3.066-3.181
					c1.569-2.352,1.436-4.875,0.195-7.414c-1.264-2.587-4.503-4.29-5.206-7.133c1.539-0.19,3.346-0.678,4.404-1.953
					c-2.323-0.643-4.358-1.798-5.544-4.058c0.813-0.269,1.805-0.382,2.627-0.769c0.893-0.421,1.724-1.255,2.528-1.809
					c-1.932-0.113-3.554-1.013-4.414-2.815c-1.681-3.523-1.126-6.363,0.796-9.684c0.207-0.358,0.482-0.687,0.79-0.998
					c0.422-0.118,0.877-0.18,1.316-0.304c1.783-0.504,3.417-1.77,4.994-2.733c1.171-0.715,2.439-2.047,2.334-3.522
					C90.53,227.365,87.639,225.632,84.823,225.231z"/>
			</g>
			<path style="fill:#EEC8C7;" d="M76.8,329.125c0,0-4.54,3.57-9.57-7.89l-12.56-24.91c-1.2-2.35-1.31-5.07-0.4-7.47l7.87,2.76
				l8.66,27.69l4.61,3.9c0.8,0.67,0.02,1.93-0.94,1.53c-0.2-0.09-0.42-0.2-0.66-0.33C74.05,324.565,78.62,327.725,76.8,329.125z"/>
			
				<linearGradient id="SVGID_00000121269118270832124860000010545402201969252768_" gradientUnits="userSpaceOnUse" x1="54.8602" y1="277.7285" x2="122.7242" y2="271.1874">
				<stop  offset="0" style="stop-color:#3A699F"/>
				<stop  offset="0.1888" style="stop-color:#497AB3"/>
				<stop  offset="0.4237" style="stop-color:#5589C4"/>
				<stop  offset="0.6801" style="stop-color:#5D91CE"/>
				<stop  offset="0.9955" style="stop-color:#5F94D1"/>
			</linearGradient>
			<path style="fill:url(#SVGID_00000121269118270832124860000010545402201969252768_);" d="M77.35,272.395l-3.99,5.05l-11.22,14.17
				l-7.87-2.76c0.28-0.74,0.65-1.44,1.11-2.1l11.52-16.26l3.8-5.36C76.8,256.445,85.53,262.855,77.35,272.395z"/>
		</g>
	</g>
	<g>
		<path style="fill:#F2F2F2;" d="M464.514,429.957c0,2.036-19.523,3.687-43.607,3.687c-24.083,0-43.607-1.651-43.607-3.687
			c0-2.037,19.523-3.688,43.607-3.688C444.991,426.27,464.514,427.921,464.514,429.957z"/>
		<g>
			<g>
				
					<linearGradient id="SVGID_00000089553675741671053270000010338436530077954441_" gradientUnits="userSpaceOnUse" x1="425.8385" y1="241.4799" x2="358.3387" y2="310.4797">
					<stop  offset="0" style="stop-color:#3B244A"/>
					<stop  offset="0.0088" style="stop-color:#3C254B"/>
					<stop  offset="0.225" style="stop-color:#543D63"/>
					<stop  offset="0.4524" style="stop-color:#654E74"/>
					<stop  offset="0.6989" style="stop-color:#6F587F"/>
					<stop  offset="0.9961" style="stop-color:#725B82"/>
				</linearGradient>
				<path style="fill:url(#SVGID_00000089553675741671053270000010338436530077954441_);" d="M363.339,282.184
					c19.489-3.695,38.364-10.994,48.582-24.03c1.343-1.714,3.422-2.683,5.597-2.589l0,0c4.836,0.209,7.883,5.295,5.785,9.658v0
					c-2.257,4.693-5.827,8.625-10.264,11.35c-12.186,7.483-31.136,10.27-47.776,11.504L363.339,282.184z"/>
				<path style="fill:#EEC8C7;" d="M363.339,282.184l1.924,5.893c0,0-4.999,5.672-9.956,5.721c-3.242,0.032-4.482-4.347-1.763-6.113
					c0.975-0.634,2.27-1.22,3.99-1.646l2.144-0.713l-2-0.75c-1.663-0.411-1.471-2.846,0.237-2.971
					C359.216,281.511,360.972,281.643,363.339,282.184z"/>
			</g>
			<g>
				<path style="fill:#E9B7B6;" d="M413.884,245.84c0,0,3.464,6.569,5.463,12.494c0.941,2.789-5.689,7.643-6.014,7.592
					c-0.386-0.061-0.734-0.35-0.8-0.805c-0.437-3.025-1.625-8.307-4.777-11.902L413.884,245.84z"/>
				<g>
					<path style="fill:#EEC8C7;" d="M416.27,239.962c-1.851-4.206-5.899-7.804-9.058-7.596c-4.709,0.31-8.383,3.216-7.249,15.359
						c0.049,0.527-0.011,0.255,0.12,0.769c-0.431,0.337-0.849,0.772-0.744,1.141c0.115,0.406,0.721,0.453,1.168,0.453
						c0.039,0,0.074-0.013,0.105-0.031c1.469,3.475,4.844,7.021,8.483,7.1c3.24,0.07,6.408-3.566,7.897-7.402
						C417.12,249.421,418.546,245.133,416.27,239.962z"/>
					<g>
						<path style="fill:#3B244A;" d="M404.414,251.243c0.681-0.685,1.255-1.75,0.917-3.301c-0.028-0.127-0.154-0.208-0.282-0.181
							c-0.126,0.027-0.208,0.153-0.181,0.282c0.603,2.77-2.063,3.739-2.177,3.78c-0.124,0.042-0.188,0.178-0.145,0.301
							c0.043,0.123,0.178,0.188,0.301,0.145C402.864,252.265,403.698,251.964,404.414,251.243z"/>
					</g>
					<g>
						<path style="fill:#3B244A;" d="M403.615,243.955c0.007-0.005,0.014-0.01,0.021-0.015c0.101-0.083,0.116-0.232,0.034-0.333
							c-0.987-1.207-2.217-0.808-2.736-0.433c-0.105,0.077-0.128,0.224-0.051,0.33c0.077,0.106,0.212,0.135,0.33,0.053
							c0.036-0.027,1.143-0.807,2.09,0.351C403.38,244.001,403.515,244.021,403.615,243.955z"/>
					</g>
					<path style="fill:#3B244A;" d="M402.807,246.754c-0.002,0.465-0.356,0.841-0.791,0.839c-0.435-0.002-0.787-0.38-0.785-0.845
						c0.002-0.465,0.356-0.841,0.791-0.839C402.458,245.91,402.809,246.288,402.807,246.754z"/>
				</g>
			</g>
			<path style="fill:#543867;" d="M412.771,423.717c2.698,7.143-2.805,7.255-16.742,7.195c-1.937-0.02-3.289-2.066,0-3.078
				l10.721-4.36c0,0,4.909-0.059,5.925,0.007L412.771,423.717z"/>
			<path style="fill:#543867;" d="M445.174,424.043c2.698,7.284-3.276,7.225-17.214,7.164c-1.937-0.021-3.289-2.107,0.001-3.138
				l10.064-4.447c0,0,5.965-0.058,6.98,0.008L445.174,424.043z"/>
			
				<linearGradient id="SVGID_00000078765192069885368820000006089959950136599439_" gradientUnits="userSpaceOnUse" x1="402.0052" y1="370.1454" x2="429.3222" y2="370.1454">
				<stop  offset="0.0045" style="stop-color:#5F94D1"/>
				<stop  offset="1" style="stop-color:#3A699F"/>
			</linearGradient>
			<path style="fill:url(#SVGID_00000078765192069885368820000006089959950136599439_);" d="M404.707,316.814l24.615,0.027
				c-11.328,33.663-16.612,69.295-16.65,106.636l-5.878-0.006C401.233,388.516,400.486,352.97,404.707,316.814z"/>
			
				<linearGradient id="SVGID_00000052792148076875802520000006959643629209212298_" gradientUnits="userSpaceOnUse" x1="405.1039" y1="370.1858" x2="445.0052" y2="370.1858">
				<stop  offset="0.0045" style="stop-color:#5F94D1"/>
				<stop  offset="1" style="stop-color:#3A699F"/>
			</linearGradient>
			<path style="fill:url(#SVGID_00000052792148076875802520000006959643629209212298_);" d="M405.104,316.742l28.26,0.104
				c-3,46.304,2.068,70.384,11.642,106.784l-6.98-0.008C427.86,393.222,416.022,358.266,405.104,316.742z"/>
			
				<linearGradient id="SVGID_00000067231158914544989300000006328460809450517394_" gradientUnits="userSpaceOnUse" x1="404.7071" y1="285.616" x2="433.3635" y2="285.616">
				<stop  offset="0" style="stop-color:#D5615D"/>
				<stop  offset="1" style="stop-color:#E2928F"/>
			</linearGradient>
			<path style="fill:url(#SVGID_00000067231158914544989300000006328460809450517394_);" d="M404.707,316.814l28.656,0.031
				c-4.015-24.173-0.111-38.239-3.987-49.697c-1.521-4.496-7.213-11.06-11.372-12.761c0,0-9.797,5.715-11.825,12
				c-1.238,3.835-1.715,9.03-0.836,14.829c1.385,9.14,1.407,18.435,0.314,27.614L404.707,316.814z"/>
			<g>
				
					<rect x="374.687" y="257.221" transform="matrix(0.7691 -0.6391 0.6391 0.7691 -112.3258 318.5954)" style="fill:#543867;" width="20.135" height="115.057"/>
				
					<linearGradient id="SVGID_00000063600616183685454450000000594863273382389693_" gradientUnits="userSpaceOnUse" x1="413.7809" y1="363.3802" x2="436.2628" y2="363.3802">
					<stop  offset="0" style="stop-color:#D5615D"/>
					<stop  offset="1" style="stop-color:#E2928F"/>
				</linearGradient>
				<path style="fill:url(#SVGID_00000063600616183685454450000000594863273382389693_);" d="M434.728,365.787l-8.942,7.432
					c-1.807,1.501-4.489,1.254-5.99-0.553l-6.014-7.237l15.486-12.869l6.014,7.237C436.782,361.603,436.535,364.285,434.728,365.787
					z"/>
				
					<rect x="409.618" y="353.906" transform="matrix(0.7691 -0.6391 0.6391 0.7691 -131.1245 350.629)" style="fill:#6A9AD1;" width="20.135" height="5.753"/>
				<polygon style="fill:#EEC8C7;" points="355.607,264.053 340.374,276.946 336.124,262.797 342.512,257.488 				"/>
				<polygon style="fill:#543867;" points="356.022,264.26 355.607,264.053 355.745,263.938 				"/>
				
					<linearGradient id="SVGID_00000171685736890793323770000011803782068380173482_" gradientUnits="userSpaceOnUse" x1="333.1214" y1="257.7892" x2="342.5119" y2="257.7892">
					<stop  offset="0" style="stop-color:#D5615D"/>
					<stop  offset="1" style="stop-color:#E2928F"/>
				</linearGradient>
				<polygon style="fill:url(#SVGID_00000171685736890793323770000011803782068380173482_);" points="342.512,257.488 
					336.124,262.797 333.121,252.782 				"/>
			</g>
			<g>
				
					<linearGradient id="SVGID_00000114054780111957123530000010296929091794776484_" gradientUnits="userSpaceOnUse" x1="436.4333" y1="250.9096" x2="368.9332" y2="319.9097">
					<stop  offset="0" style="stop-color:#3B244A"/>
					<stop  offset="0.0088" style="stop-color:#3C254B"/>
					<stop  offset="0.225" style="stop-color:#543D63"/>
					<stop  offset="0.4524" style="stop-color:#654E74"/>
					<stop  offset="0.6989" style="stop-color:#6F587F"/>
					<stop  offset="0.9961" style="stop-color:#725B82"/>
				</linearGradient>
				<path style="fill:url(#SVGID_00000114054780111957123530000010296929091794776484_);" d="M381.452,309.45
					c14.748-13.266,27.102-29.294,29.08-45.739c0.26-2.161,1.534-4.068,3.443-5.116l0,0c4.244-2.329,9.486,0.44,9.955,5.258l0,0
					c0.504,5.183-0.51,10.396-2.891,15.027c-6.539,12.717-21.298,24.927-34.886,34.611L381.452,309.45z"/>
				<path style="fill:#EEC8C7;" d="M381.452,309.45l4.701,4.041c0,0-1.333,7.442-5.546,10.055c-2.755,1.708-6.086-1.393-4.678-4.313
					c0.505-1.048,1.309-2.221,2.558-3.476l1.463-1.721l-2.099,0.395c-1.635,0.511-2.734-1.671-1.338-2.663
					C377.578,311.012,379.147,310.215,381.452,309.45z"/>
			</g>
			<g>
				
					<linearGradient id="SVGID_00000103237809175994247390000017681439470523459203_" gradientUnits="userSpaceOnUse" x1="393.1693" y1="242.393" x2="420.6845" y2="242.393">
					<stop  offset="0.0045" style="stop-color:#5F94D1"/>
					<stop  offset="1" style="stop-color:#3A699F"/>
				</linearGradient>
				<path style="fill:url(#SVGID_00000103237809175994247390000017681439470523459203_);" d="M419.897,238.66
					c-2.18-4.61-6.926-7.755-12.024-7.354c-4.357,0.343-8.661,3.047-12.334,5.3c-1.057,0.648-2.544,1.754-2.352,3.148
					c0.167,1.213,1.29,1.989,2.361,2.417c1.229,0.491,2.441,0.624,3.773,0.626c0.782,0.001,1.536,0.017,2.299-0.172
					c0.574-0.142,1.233-0.696,1.788-0.655l-2.148-0.357c0.499-0.01,0.962-0.028,1.326-0.028c0.426,0,1.785,0.222,1.978-0.174
					c0.186-0.38-0.408-0.88-0.447-1.239c0.396-0.033,0.861,0.237,1.26,0.332c0.672,0.159,1.36,0.186,2.051,0.192
					c1.001,0.008,1.579-0.255,1.876,0.773c0.364,1.261,0.359,2.601,0.602,3.882c0.189,0.999,0.355,1.998,0.407,3.007
					c0.653-0.983,0.331-2.347,1.11-3.307c0.739-0.911,2.207-0.918,3.069-0.164c0.901,0.788,1.494,2.351,0.738,3.438
					c-0.303,0.435-0.87,0.72-1.32,0.969c-0.549,0.304-0.553,0.169-0.38,0.842c0.236,0.92,0.618,2.759,1.367,3.379
					c0.466-0.625,1.219-1.123,1.764-1.685c1.062-1.096,2.007-2.445,2.762-3.777C420.841,245.553,421.154,241.318,419.897,238.66z"/>
			</g>
		</g>
	</g>
	<g>
		<path style="fill:#C2D6ED;" d="M92.599,133.611h-5.75v-5.75c0-0.552-0.447-1-1-1c-0.553,0-1,0.448-1,1v5.75h-5.75
			c-0.553,0-1,0.448-1,1c0,0.552,0.447,1,1,1h5.75v5.75c0,0.552,0.447,1,1,1c0.553,0,1-0.448,1-1v-5.75h5.75c0.553,0,1-0.448,1-1
			C93.599,134.058,93.151,133.611,92.599,133.611z"/>
		<path style="fill:#C2D6ED;" d="M392.903,181.67h-5.75v-5.75c0-0.552-0.447-1-1-1c-0.553,0-1,0.448-1,1v5.75h-5.75
			c-0.553,0-1,0.448-1,1s0.447,1,1,1h5.75v5.75c0,0.552,0.447,1,1,1c0.553,0,1-0.448,1-1v-5.75h5.75c0.553,0,1-0.448,1-1
			S393.456,181.67,392.903,181.67z"/>
		<path style="fill:#C2D6ED;" d="M281.577,87.547l-4.066-4.066l4.066-4.066c0.391-0.39,0.391-1.023,0-1.414
			c-0.391-0.391-1.024-0.39-1.414,0l-4.066,4.066l-4.066-4.066c-0.391-0.391-1.024-0.39-1.414,0c-0.39,0.391-0.391,1.023,0,1.414
			l4.066,4.066l-4.066,4.066c-0.39,0.39-0.391,1.023,0,1.414c0.391,0.391,1.024,0.39,1.414,0l4.066-4.066l4.066,4.066
			c0.391,0.391,1.024,0.39,1.414,0C281.968,88.571,281.968,87.938,281.577,87.547z"/>
		<path style="fill:#C2D6ED;" d="M124.558,208.949l-4.066-4.066l4.066-4.066c0.39-0.391,0.391-1.023,0-1.414
			c-0.391-0.391-1.024-0.391-1.414,0l-4.066,4.066l-4.066-4.066c-0.391-0.391-1.024-0.391-1.414,0c-0.391,0.391-0.391,1.023,0,1.414
			l4.066,4.066l-4.066,4.066c-0.391,0.391-0.391,1.023,0,1.414c0.391,0.391,1.024,0.391,1.414,0l4.066-4.066l4.066,4.066
			c0.391,0.391,1.024,0.391,1.414,0C124.949,209.973,124.949,209.34,124.558,208.949z"/>
		<path style="fill:#C2D6ED;" d="M417.72,134.094l4.066-4.066l4.066,4.066c0.391,0.391,1.023,0.391,1.414,0
			c0.391-0.391,0.391-1.024,0-1.414l-4.066-4.066l4.066-4.066c0.391-0.391,0.391-1.024,0-1.414s-1.023-0.391-1.414,0l-4.066,4.066
			l-4.066-4.066c-0.391-0.391-1.023-0.391-1.414,0c-0.391,0.391-0.391,1.024,0,1.414l4.066,4.066l-4.066,4.066
			c-0.391,0.391-0.391,1.024,0,1.414S417.329,134.484,417.72,134.094z"/>
		<path style="fill:#C2D6ED;" d="M332.168,135.364h-5.75v-5.75c0-0.552-0.447-1-1-1c-0.553,0-1,0.448-1,1v5.75h-5.75
			c-0.553,0-1,0.448-1,1c0,0.552,0.447,1,1,1h5.75v5.75c0,0.552,0.447,1,1,1c0.553,0,1-0.448,1-1v-5.75h5.75c0.553,0,1-0.448,1-1
			C333.168,135.811,332.72,135.364,332.168,135.364z"/>
	</g>
	<g>
		<path style="fill:none;stroke:#9DBDE3;stroke-width:3;stroke-miterlimit:10;" d="M285.902,142.258c2.53,2.53,2.53,6.632,0,9.162
			c-2.53,2.53-6.632,2.53-9.162,0c-2.53-2.53-2.53-6.632,0-9.162C279.27,139.728,283.372,139.728,285.902,142.258z"/>
		<path style="fill:none;stroke:#9DBDE3;stroke-width:3;stroke-miterlimit:10;" d="M156.341,119.3
			c0.904,3.462-1.17,7.001-4.632,7.905c-3.462,0.904-7.001-1.17-7.905-4.632c-0.904-3.462,1.17-7.001,4.632-7.905
			C151.898,113.764,155.437,115.838,156.341,119.3z"/>
		<circle style="fill:none;stroke:#9DBDE3;stroke-width:3;stroke-miterlimit:10;" cx="59.042" cy="175.518" r="6.479"/>
		<path style="fill:none;stroke:#9DBDE3;stroke-width:3;stroke-miterlimit:10;" d="M373.446,220.95c2.53,2.53,2.53,6.632,0,9.162
			c-2.53,2.53-6.632,2.53-9.162,0c-2.53-2.53-2.53-6.632,0-9.162C366.814,218.42,370.916,218.42,373.446,220.95z"/>
		<path style="fill:none;stroke:#9DBDE3;stroke-width:3;stroke-miterlimit:10;" d="M390.233,82.673c2.53,2.53,2.53,6.632,0,9.162
			c-2.53,2.53-6.632,2.53-9.162,0c-2.53-2.53-2.53-6.632,0-9.162C383.601,80.143,387.703,80.143,390.233,82.673z"/>
		<path style="fill:none;stroke:#9DBDE3;stroke-width:3;stroke-miterlimit:10;" d="M451.356,191.49
			c0.562,3.534-1.846,6.854-5.38,7.416c-3.534,0.562-6.854-1.846-7.416-5.38c-0.562-3.534,1.846-6.854,5.38-7.416
			C447.474,185.547,450.794,187.956,451.356,191.49z"/>
	</g>
</g>
<g id="DESIGNED_BY_FREEPIK">
	<g>
		<g>
			<g id="XMLID_319_">
				<g id="XMLID_338_">
					<path id="XMLID_346_" style="fill:#1D262D;" d="M260.104,465.465c-0.432,0.443-0.803,0.931-1.108,1.453l-0.465-0.241
						c-0.067-0.298-0.349-0.503-0.659-0.466c-0.331,0.039-0.568,0.339-0.529,0.67c0.039,0.331,0.339,0.568,0.67,0.529
						c0.065-0.008,0.127-0.026,0.183-0.052l0.452,0.234c-0.251,0.554-0.433,1.139-0.539,1.744l0.746,0.132
						c0.23-1.306,0.85-2.507,1.792-3.473L260.104,465.465z"/>
					<path id="XMLID_345_" style="fill:#1D262D;" d="M265.591,463.163c-0.171,0-0.341,0.006-0.51,0.017l-0.074-0.626
						c0.188-0.149,0.296-0.389,0.266-0.645c-0.046-0.393-0.402-0.674-0.795-0.628c-0.393,0.046-0.674,0.402-0.628,0.795
						c0.03,0.254,0.189,0.461,0.404,0.564l0.074,0.624c-0.714,0.116-1.403,0.332-2.06,0.646l0.327,0.684
						c0.934-0.447,1.942-0.673,2.995-0.673c0.496,0,0.993,0.053,1.475,0.158l0.161-0.741
						C266.692,463.222,266.142,463.163,265.591,463.163z"/>
					<path id="XMLID_344_" style="fill:#1D262D;" d="M272.194,465.711c0.331-0.04,0.566-0.341,0.525-0.672
						c-0.04-0.331-0.341-0.566-0.672-0.526c-0.309,0.038-0.535,0.304-0.53,0.609l-0.416,0.363c-0.418-0.43-0.889-0.813-1.408-1.139
						l-0.404,0.641c1.134,0.715,2.021,1.726,2.563,2.925l0.691-0.313c-0.251-0.554-0.568-1.072-0.942-1.545l0.402-0.351
						C272.064,465.716,272.128,465.719,272.194,465.711z"/>
					<path id="XMLID_343_" style="fill:#1D262D;" d="M265.044,473.372c-0.386,0.023-0.775,0.035-1.157,0.035
						c-0.88,0-1.733-0.061-2.478-0.179c-0.39-0.062-0.846-0.155-1.27-0.292c1.046,1.861,3.069,3.125,5.388,3.125
						c2.855,0,5.262-1.916,5.95-4.504c-0.682,0.449-1.505,0.825-2.459,1.123C267.838,473.047,266.463,473.286,265.044,473.372z"/>
					<path id="XMLID_339_" style="fill:#1D262D;" d="M265.591,464.68c-3.352,0-6.079,2.666-6.079,5.943
						c0,0.426,0.046,0.849,0.137,1.261c0.673,0.483,2.706,0.89,5.348,0.731c2.88-0.173,5.297-0.957,6.672-2.159
						c-0.005-0.195-0.021-0.39-0.045-0.582C271.243,466.913,268.65,464.68,265.591,464.68z M263.432,471.194
						c-1.02,0-1.85-0.83-1.85-1.85c0-1.02,0.83-1.85,1.85-1.85s1.85,0.83,1.85,1.85
						C265.282,470.365,264.452,471.194,263.432,471.194z M268.169,470.286c-0.75,0-1.36-0.61-1.36-1.36s0.61-1.361,1.36-1.361
						c0.75,0,1.361,0.61,1.361,1.361S268.92,470.286,268.169,470.286z"/>
				</g>
				<path id="XMLID_336_" style="fill:#1D262D;" d="M281.595,466.547c-0.295-0.116-0.806-0.309-1.383-0.237
					c-0.551,0.069-0.844,0.341-0.844,1.007v0.866h2.228v1.717h-2.228v5.455h-1.932v-5.455h-1.34v-1.717h1.34v-0.888
					c0-1.68,0.896-2.783,2.568-2.783c0.643,0,1.157,0.122,1.59,0.308L281.595,466.547z"/>
				<path id="XMLID_334_" style="fill:#1D262D;" d="M286.297,469.879c-0.177-0.03-0.357-0.046-0.526-0.046
					c-0.896,0-1.51,0.548-1.51,1.614v3.908h-1.932v-7.172h1.873v0.785c0.451-0.673,1.14-0.977,2.021-0.977
					c0.414,0,0.848,0.128,1.094,0.337L286.297,469.879z"/>
				<path id="XMLID_331_" style="fill:#1D262D;" d="M293.965,471.757c0,0.222-0.015,0.489-0.037,0.651h-5.085
					c0.207,1.036,0.933,1.488,1.843,1.488c0.622,0,1.295-0.252,1.813-0.688l1.132,1.243c-0.814,0.748-1.85,1.088-3.057,1.088
					c-2.198,0-3.723-1.495-3.723-3.753c0-2.258,1.48-3.797,3.627-3.797C292.544,467.99,293.957,469.522,293.965,471.757z
					 M288.85,471.091h3.175c-0.177-0.918-0.733-1.436-1.561-1.436C289.553,469.655,289.021,470.203,288.85,471.091z"/>
				<path id="XMLID_328_" style="fill:#1D262D;" d="M301.618,471.757c0,0.222-0.015,0.489-0.037,0.651h-5.085
					c0.207,1.036,0.932,1.488,1.843,1.488c0.622,0,1.295-0.252,1.813-0.688l1.132,1.243c-0.814,0.748-1.85,1.088-3.057,1.088
					c-2.198,0-3.723-1.495-3.723-3.753c0-2.258,1.48-3.797,3.627-3.797C300.197,467.99,301.611,469.522,301.618,471.757z
					 M296.504,471.091h3.175c-0.178-0.918-0.733-1.436-1.562-1.436C297.207,469.655,296.674,470.203,296.504,471.091z"/>
				<path id="XMLID_325_" style="fill:#1D262D;" d="M309.964,471.764c0,2.154-1.495,3.775-3.471,3.775
					c-0.962,0-1.643-0.378-2.109-0.933v3.708h-1.924v-10.133h1.887v0.792c0.466-0.585,1.155-0.984,2.139-0.984
					C308.469,467.99,309.964,469.61,309.964,471.764z M304.287,471.764c0,1.132,0.747,1.976,1.843,1.976
					c1.14,0,1.85-0.881,1.85-1.976c0-1.095-0.71-1.976-1.85-1.976C305.034,469.788,304.287,470.632,304.287,471.764z"/>
				<path id="XMLID_322_" style="fill:#1D262D;" d="M313.067,465.836c0,0.696-0.54,1.229-1.236,1.229
					c-0.696,0-1.229-0.533-1.229-1.229c0-0.696,0.533-1.243,1.229-1.243C312.527,464.592,313.067,465.14,313.067,465.836z
					 M312.808,475.354h-1.932v-7.172h1.932V475.354z"/>
				<path id="XMLID_320_" style="fill:#1D262D;" d="M316.032,470.736l2.702-2.554h2.368l-3.479,3.375l3.501,3.797h-2.376
					l-2.716-2.901v2.901H314.1v-10.658h1.932V470.736z"/>
			</g>
			<g>
				<path style="fill:#1D262D;" d="M184.412,475.289v-1.055c-0.527,0.718-1.391,1.23-2.387,1.23c-1.846,0-3.149-1.406-3.149-3.706
					c0-2.256,1.289-3.721,3.149-3.721c0.952,0,1.816,0.469,2.387,1.245v-3.765h1.099v9.77H184.412z M184.412,473.37v-3.208
					c-0.395-0.615-1.245-1.143-2.124-1.143c-1.421,0-2.27,1.172-2.27,2.739c0,1.567,0.85,2.724,2.27,2.724
					C183.167,474.483,184.017,473.986,184.412,473.37z"/>
				<path style="fill:#1D262D;" d="M186.932,471.744c0-2.051,1.465-3.706,3.486-3.706c2.139,0,3.398,1.67,3.398,3.794v0.279h-5.727
					c0.088,1.333,1.025,2.446,2.549,2.446c0.805,0,1.626-0.322,2.182-0.894l0.527,0.718c-0.703,0.703-1.655,1.084-2.812,1.084
					C188.44,475.465,186.932,473.956,186.932,471.744z M190.403,468.947c-1.509,0-2.256,1.274-2.314,2.358h4.643
					C192.717,470.25,192.014,468.947,190.403,468.947z"/>
				<path style="fill:#1D262D;" d="M194.607,474.351l0.571-0.791c0.469,0.542,1.362,1.011,2.329,1.011
					c1.084,0,1.67-0.513,1.67-1.216c0-1.714-4.38-0.659-4.38-3.281c0-1.098,0.952-2.036,2.636-2.036
					c1.201,0,2.051,0.454,2.622,1.026l-0.513,0.762c-0.425-0.513-1.201-0.894-2.109-0.894c-0.967,0-1.567,0.483-1.567,1.113
					c0,1.552,4.38,0.527,4.38,3.281c0,1.187-0.952,2.138-2.783,2.138C196.306,475.465,195.324,475.113,194.607,474.351z"/>
				<path style="fill:#1D262D;" d="M201.477,466.471c0-0.41,0.337-0.747,0.732-0.747c0.41,0,0.747,0.337,0.747,0.747
					c0,0.41-0.337,0.732-0.747,0.732C201.814,467.203,201.477,466.881,201.477,466.471z M201.667,475.289v-7.075h1.099v7.075
					H201.667z"/>
				<path style="fill:#1D262D;" d="M204.582,477.105l0.556-0.82c0.586,0.703,1.289,0.967,2.3,0.967c1.172,0,2.27-0.571,2.27-2.124
					v-1.011c-0.513,0.718-1.377,1.26-2.373,1.26c-1.845,0-3.149-1.377-3.149-3.662c0-2.27,1.289-3.677,3.149-3.677
					c0.952,0,1.802,0.469,2.373,1.245v-1.069h1.099v6.87c0,2.344-1.641,3.076-3.369,3.076
					C206.237,478.16,205.416,477.926,204.582,477.105z M209.708,473.253v-3.091c-0.381-0.615-1.23-1.143-2.109-1.143
					c-1.421,0-2.27,1.128-2.27,2.695c0,1.553,0.849,2.695,2.27,2.695C208.478,474.41,209.327,473.868,209.708,473.253z"/>
				<path style="fill:#1D262D;" d="M217.413,475.289v-4.629c0-1.245-0.63-1.641-1.582-1.641c-0.864,0-1.685,0.527-2.095,1.099v5.17
					h-1.099v-7.075h1.099v1.025c0.498-0.586,1.464-1.201,2.519-1.201c1.48,0,2.256,0.747,2.256,2.285v4.966H217.413z"/>
				<path style="fill:#1D262D;" d="M219.932,471.744c0-2.051,1.465-3.706,3.486-3.706c2.139,0,3.399,1.67,3.399,3.794v0.279h-5.727
					c0.088,1.333,1.025,2.446,2.549,2.446c0.806,0,1.626-0.322,2.183-0.894l0.527,0.718c-0.703,0.703-1.655,1.084-2.812,1.084
					C221.441,475.465,219.932,473.956,219.932,471.744z M223.404,468.947c-1.509,0-2.256,1.274-2.314,2.358h4.643
					C225.718,470.25,225.015,468.947,223.404,468.947z"/>
				<path style="fill:#1D262D;" d="M233.35,475.289v-1.055c-0.527,0.718-1.392,1.23-2.388,1.23c-1.846,0-3.149-1.406-3.149-3.706
					c0-2.256,1.289-3.721,3.149-3.721c0.952,0,1.817,0.469,2.388,1.245v-3.765h1.098v9.77H233.35z M233.35,473.37v-3.208
					c-0.396-0.615-1.245-1.143-2.124-1.143c-1.421,0-2.27,1.172-2.27,2.739c0,1.567,0.849,2.724,2.27,2.724
					C232.105,474.483,232.954,473.986,233.35,473.37z"/>
				<path style="fill:#1D262D;" d="M239.692,475.289v-9.77h1.098v3.765c0.572-0.776,1.421-1.245,2.388-1.245
					c1.845,0,3.149,1.465,3.149,3.721c0,2.299-1.304,3.706-3.149,3.706c-0.996,0-1.86-0.513-2.388-1.23v1.055H239.692z
					 M242.899,474.483c1.436,0,2.286-1.157,2.286-2.724c0-1.568-0.85-2.739-2.286-2.739c-0.864,0-1.728,0.527-2.109,1.143v3.208
					C241.171,473.986,242.035,474.483,242.899,474.483z"/>
				<path style="fill:#1D262D;" d="M247.528,477.061c0.161,0.073,0.425,0.117,0.601,0.117c0.483,0,0.805-0.161,1.055-0.747
					l0.469-1.069l-2.959-7.148h1.187l2.358,5.8l2.344-5.8h1.201l-3.545,8.51c-0.425,1.025-1.143,1.421-2.08,1.435
					c-0.234,0-0.601-0.044-0.805-0.103L247.528,477.061z"/>
			</g>
		</g>
	</g>
</g>
</svg>
