<?xml version="1.0" encoding="utf-8"?>
<!-- Generator: Adobe Illustrator 27.5.0, SVG Export Plug-In . SVG Version: 6.00 Build 0)  -->
<svg version="1.1" id="Layer_1" xmlns="http://www.w3.org/2000/svg" xmlns:xlink="http://www.w3.org/1999/xlink" x="0px" y="0px"
	 viewBox="0 0 4000 4000" style="enable-background:new 0 0 4000 4000;" xml:space="preserve">
<g>
	<g>
		<rect style="fill:#B0F8FF;" width="4000" height="4000"/>
	</g>
	<g>
		<g>
			<path style="fill:#22A7F0;" d="M993.667,1221.443l-316.56,1117.534c-12.969,45.785,22.975,90.612,70.53,88.277
				c315.348-15.599,594.617,52.311,877.824,215.238c37.966,21.836,67.591,56.649,79.888,98.685
				c12.267,42.144,45.368,77.242,90.668,90.074c45.407,12.863,92.014,0.285,124.645-29.258
				c32.185-29.202,75.613-42.914,119.001-40.422c238.154,13.744,473.03,80.86,688.122,186.523
				c59.658,29.264,117.836,61.492,174.093,96.383c39.252,24.3,90.905,4.404,103.508-40.086l317.539-1120.99
				c7.769-27.428-1.933-57.006-24.765-74.205c-21.674-16.346-43.37-31.999-65.141-46.973
				c-350.617-241.63-712.015-308.074-1062.247-253.947c-345.225-270.549-734.603-387.495-1118.96-336.852
				C1024.179,1175.086,1001.268,1194.609,993.667,1221.443z"/>
		</g>
		<g style="opacity:0.3;">
			<path style="fill:#1E276A;" d="M993.667,1221.443l-316.56,1117.534c-12.969,45.785,22.975,90.612,70.53,88.277
				c315.348-15.599,594.617,52.311,877.824,215.238c37.966,21.836,67.591,56.649,79.888,98.685
				c12.267,42.144,45.368,77.242,90.668,90.074c45.407,12.863,92.014,0.285,124.645-29.258
				c32.185-29.202,75.613-42.914,119.001-40.422c123.842,7.143,246.799,28.732,366.5,62.64c6.371,1.805,12.781,3.679,19.137,5.538
				c4.736,1.4,9.472,2.8,14.193,4.253c4.991,1.531,9.927,3.046,14.903,4.63c4.829,1.484,9.642,3.023,14.456,4.561
				c6.148,1.975,12.334,4.019,18.521,6.063c0.633,0.237,1.281,0.421,1.913,0.658c6.457,2.121,12.829,4.334,19.201,6.547
				c0.324,0.092,0.648,0.184,0.957,0.329c6.642,2.29,13.215,4.618,19.826,7.016c6.773,2.444,13.493,4.872,20.236,7.424
				c6.92,2.543,13.81,5.195,20.699,7.846c6.527,2.49,13.092,5.05,19.573,7.702c6.674,2.59,13.37,5.304,19.998,8.056
				c13.324,5.466,26.549,11.078,39.713,16.906c5.347,2.331,10.694,4.663,15.957,7.086c3.21,1.434,6.474,2.884,9.668,4.372
				c4.753,2.163,9.506,4.326,14.244,6.543c6.297,2.892,12.578,5.838,18.79,8.822c0.093,0.084,0.147,0.1,0.201,0.115
				c6.536,3.076,13.002,6.191,19.439,9.414l0.054,0.015c59.658,29.264,117.782,61.476,174.039,96.367
				c39.252,24.3,90.905,4.404,103.508-40.086l2.891-10.205c-20.611,10.376-46.187,10.48-67.978-2.983
				c-13.893-8.62-27.911-17.077-42.044-25.369c-29.108-17.079-32.393-57.846-6.173-79.094l29.072-23.559l311.864-1100.958
				c-350.617-241.63-712.015-308.074-1062.247-253.947c-345.225-270.549-734.603-387.495-1118.96-336.852
				c-8.053,1.043-15.671,3.435-22.631,7.004c-0.139,0.078-0.262,0.101-0.347,0.193c-0.885,0.449-1.786,0.952-2.687,1.455
				c-2.702,1.509-5.288,3.226-7.689,5.113c-1.031,0.758-2.008,1.531-2.932,2.319c-2.362,1.956-4.623,4.173-6.684,6.505
				c-0.492,0.502-0.93,1.02-1.384,1.591c-2.514,2.904-4.765,6.116-6.762,9.458c-1.09,1.791-2.034,3.681-2.924,5.587
				c-0.346,0.602-0.652,1.273-0.905,1.96c-0.422,0.872-0.79,1.76-1.119,2.716c-0.353,0.833-0.636,1.628-0.92,2.422
				C994.424,1218.974,994.018,1220.201,993.667,1221.443z"/>
		</g>
		<g style="opacity:0.55;">
			<path style="fill:#FFFFFF;" d="M3274.332,1869.636l-317.539,1120.99c-8.274,29.209-33.376,47.82-60.781,50.264
				c1.938,1.191,3.929,2.396,5.866,3.587c39.252,24.3,90.905,4.404,103.508-40.086l317.539-1120.99
				c7.769-27.428-1.933-57.006-24.765-74.205c-180.149-135.951-363.49-224.396-547.079-272.843
				c167.276,50.65,334.235,135.155,498.485,259.078C3272.399,1812.63,3282.102,1842.208,3274.332,1869.636z"/>
		</g>
		<g>
			<path style="fill:#1E276A;" d="M2938.401,3075.718c-16.504,0-32.851-4.59-47.432-13.618
				c-268.33-166.392-563.11-263.149-852.49-279.824c-38.965-2.261-76.851,10.537-103.921,35.073
				c-39.317,35.63-93.218,48.281-144.189,33.843c-50.864-14.409-90.088-53.359-104.937-104.199
				c-10.435-35.723-35.396-66.45-70.283-86.519c-278.95-160.454-554.302-227.998-866.484-212.515
				c-29.59,1.387-56.973-10.967-75.332-34.048c-18.271-22.974-24.165-52.349-16.167-80.586l316.558-1117.532l0,0
				c9.824-34.67,39.404-60.151,75.366-64.917c388.999-51.245,778.628,64.773,1127.398,335.571
				c403.804-60.09,785.332,42.922,1134.16,306.206c29.336,22.097,42.295,60.84,32.222,96.396L3025.33,3010.039
				c-7.783,27.471-27.505,49.155-54.116,59.482C2960.53,3073.667,2949.431,3075.718,2938.401,3075.718z M2029.749,2740.571
				c3.696,0,7.397,0.103,11.113,0.317c296.26,17.07,597.773,115.962,871.938,285.977c13.159,8.14,28.984,9.609,43.413,4.009
				c14.375-5.576,25.029-17.29,29.233-32.134l317.539-1120.989c5.439-19.211-1.509-40.11-17.295-52
				c-342.119-258.213-716.153-358.132-1111.753-296.992c-5.654,0.886-11.43-0.632-15.947-4.17
				c-341.607-267.708-723.159-382.72-1103.472-332.617c-19.536,2.588-35.601,16.377-40.913,35.12L697.049,2344.624
				c-4.316,15.234-1.133,31.084,8.726,43.481c9.956,12.515,24.912,19.302,40.85,18.447
				c320.493-15.835,603.052,53.394,889.189,217.993c44.209,25.425,75.962,64.785,89.409,110.825
				c10.82,37.056,39.399,65.444,76.445,75.938c37.109,10.508,76.392,1.294,105.049-24.673
				C1939.353,2757.056,1983.684,2740.571,2029.749,2740.571z"/>
		</g>
		<g>
			<path style="fill:#FFFFFF;" d="M2838.033,2628.077c-317.158-284.91-771.856-267.579-994.664,36.115l323.56-1142.248
				c187.791-296.753,695.808-356.925,994.664-36.115L2838.033,2628.077z"/>
			<path style="fill:#1E276A;" d="M1836.429,2678.389l328.125-1157.947c87.827-138.784,251.635-232.017,438.188-249.395
				c212.051-19.756,416.475,57.832,560.904,212.869l1.079,1.155l-0.43,1.521L2839.51,2633.169l-3.35-3.008
				c-163.847-147.183-373.032-219.697-573.984-198.926c-170.542,17.622-318.476,100.942-416.548,234.614L1836.429,2678.389z
				 M2169.514,1523.101l-319.355,1127.412c98.95-127.935,244.468-207.607,411.441-224.863
				c201.118-20.752,410.444,51.113,574.961,197.344l321.904-1136.406c-143.169-152.981-345.464-229.519-555.2-209.951
				C2418.587,1293.838,2256.472,1385.969,2169.514,1523.101z"/>
		</g>
		<g>
			<path style="fill:#1E276A;" d="M1843.328,2684.927c-3.071,0-6.177-0.684-9.092-2.104c-9.009-4.404-13.574-14.624-10.84-24.272
				l323.564-1142.263c0.542-1.919,1.362-3.75,2.427-5.435c90.796-143.45,259.658-239.768,451.714-257.651
				c217.578-20.256,427.427,59.375,575.659,218.499c4.941,5.305,6.753,12.803,4.775,19.778L2857.971,2633.74
				c-1.948,6.885-7.314,12.275-14.184,14.263c-6.87,1.987-14.282,0.288-19.61-4.492
				c-160.068-143.804-364.175-214.697-560.107-194.448c-165.464,17.085-308.95,97.842-404.024,227.397
				C1856.033,2681.934,1849.759,2684.927,1843.328,2684.927z M2330.247,2404.214c175.01,0,351.45,66.064,496.714,186.909
				l311.479-1099.597c-138.901-144.019-332.686-215.769-533.491-197.051c-178.228,16.594-334.58,104.749-418.936,236.038
				l-297.246,1049.355c97.974-96.919,226.753-157.139,371.045-172.041C2283.206,2405.41,2306.726,2404.214,2330.247,2404.214z"/>
		</g>
		<g>
			<path style="fill:#FFFFFF;" d="M2166.903,1521.936l-323.564,1142.263c62.904-188.709,197.435-308.253,360.265-355.565
				l0.015-0.054c168.522-49.082,367.389-20.804,548.325,88.074l323.564-1142.263c-166.663-130.848-372.712-147.571-549.457-84.078
				C2363.793,1228.577,2226.285,1354.509,2166.903,1521.936z"/>
			<path style="fill:#1E276A;" d="M1845.999,2665.088l-5.361-1.655l323.618-1142.434c56.948-160.557,191.846-292.642,360.85-353.328
				c90.708-32.588,187.456-43.301,279.824-30.979c100.093,13.354,191.709,52.212,272.31,115.491l1.479,1.162L2753.64,2400.952
				l-3.144-1.895c-175.156-105.4-373.57-137.51-544.624-88.213l-1.489,0.483C2032.688,2361.221,1905.413,2486.851,1845.999,2665.088
				z M2169.578,1522.788l-307.08,1084.063c66.284-149.614,184.78-255.244,338.808-300.469v-0.005l1.523-0.493
				c171.875-50.049,371.187-18.525,547.412,86.484l322.051-1136.931c-155.317-121.14-353.95-151.226-545.293-82.483
				C2359.597,1233.064,2225.984,1363.84,2169.578,1522.788z"/>
		</g>
		<g>
			<path style="fill:#1E276A;" d="M1843.372,2684.922c-2.022,0-4.077-0.298-6.108-0.923c-10.762-3.315-16.909-14.624-13.838-25.459
				l323.559-1142.246c0.122-0.43,0.259-0.857,0.41-1.279c63.823-179.934,216.958-320.708,409.634-376.572
				c187.651-54.409,381.294-18.088,531.274,99.644c6.611,5.193,9.434,13.865,7.143,21.953L2771.888,2402.29
				c-1.758,6.211-6.313,11.25-12.32,13.623c-5.996,2.373-12.773,1.821-18.305-1.514
				c-185.737-111.743-392.554-138.794-567.427-74.204c-147.568,54.502-257.949,171.89-310.806,330.547
				C1860.144,2679.409,1852.063,2684.922,1843.372,2684.922z M2186.683,1528.247l-269.512,951.45
				c62.368-81.143,144.809-142.383,242.305-178.389c179.375-66.245,389.297-42.769,579.805,64.004l312.446-1103.022
				c-137.754-102.688-313.022-133.359-483.154-84.033C2388.904,1230.349,2246.189,1361.15,2186.683,1528.247z"/>
		</g>
		<g>
			<path style="fill:#FFFFFF;" d="M1843.338,2664.198c334.661-187.144,694.72-17.553,1077.817,198.983l-83.126-235.09
				C2520.852,2343.149,2066.189,2360.521,1843.338,2664.198z"/>
			<path style="fill:#1E276A;" d="M2926.297,2869.316l-6.523-3.691c-375.005-211.968-739.399-386.689-1075.068-198.975l-11.27,6.304
				l7.642-10.415c99.053-134.98,248.418-219.106,420.576-236.885c202.49-20.903,413.247,52.119,578.252,200.352l0.532,0.474
				l0.239,0.674L2926.297,2869.316z M2153.133,2581.113c245.332,0,501.538,128.486,762.881,275.942l-80.391-227.354
				c-163.75-146.851-372.69-219.189-573.393-198.467c-166.128,17.153-310.806,96.636-408.867,224.287
				C1951.116,2603.306,2051.209,2581.113,2153.133,2581.113z"/>
		</g>
		<g>
			<polygon style="fill:#FFFFFF;" points="3161.593,1485.828 2838.029,2628.091 2921.155,2863.181 3232.989,1762.331 			"/>
			<path style="fill:#1E276A;" d="M2921.448,2872.437l-86.362-244.253l0.244-0.859l326.392-1152.234l74.175,287.275l-0.205,0.73
				L2921.448,2872.437z M2840.975,2627.998l79.888,225.933l309.223-1091.633l-68.618-265.732L2840.975,2627.998z"/>
		</g>
		<g>
			<path style="fill:#1E276A;" d="M2921.15,2883.911c-3.496,0-7.012-0.884-10.196-2.686
				c-370.381-209.346-729.956-382.095-1057.5-198.936c-8.521,4.766-19.194,2.939-25.649-4.365
				c-6.455-7.305-6.948-18.125-1.177-25.986c102.085-139.111,255.928-225.806,433.184-244.111
				c207.544-21.45,423.301,53.237,592.07,204.844c2.578,2.319,4.531,5.244,5.688,8.511l83.125,235.093
				c2.881,8.149,0.4,17.231-6.221,22.788C2930.657,2882.266,2925.921,2883.911,2921.15,2883.911z M2153.206,2562.983
				c236.016,0,480.64,116.353,730.039,255.161l-62.983-178.135c-159.478-141.455-361.861-211.05-556.191-190.947
				c-132.056,13.633-250.112,67.827-340.733,155.015C1998.924,2575.562,2075.604,2562.983,2153.206,2562.983z"/>
		</g>
		<g>
			<path style="fill:#1E276A;" d="M2921.15,2883.911c-8.755,0-16.602-5.518-19.536-13.818L2818.489,2635
				c-1.43-4.043-1.567-8.433-0.4-12.559l323.565-1142.263c2.549-9.009,10.649-15.01,20.185-15.076
				c9.361,0.11,17.486,6.479,19.824,15.542l71.396,276.506c0.918,3.557,0.874,7.295-0.127,10.83l-311.836,1100.852
				c-2.461,8.687-10.259,14.78-19.282,15.068C2921.594,2883.906,2921.37,2883.911,2921.15,2883.911z M2859.768,2627.397
				l59.204,167.441l292.549-1032.759l-50.854-196.936L2859.768,2627.397z"/>
		</g>
		<g>
			<path style="fill:#FFFFFF;" d="M1338.973,969.542l-323.564,1142.263c249.714-45.389,484.784,25.981,640.556,170.366
				c105.872,98.171,175.059,230.103,187.374,382.028l323.564-1142.263c-1.749-146.191-72.32-286.622-184.591-392.263l-0.054-0.015
				C1824.928,981.507,1585.629,901.59,1338.973,969.542z"/>
			<path style="fill:#1E276A;" d="M1841.8,2679.932l-1.26-15.508c-11.885-146.616-76.367-278.086-186.484-380.2
				c-161.333-149.541-399.907-212.964-638.145-169.663l-4.429,0.806l1.226-4.331l323.994-1143.779l1.523-0.42
				c117.085-32.251,240.401-32.59,356.626-0.984c107.905,29.348,207.759,85.11,288.818,161.284l0.566,0.493
				c116.182,109.321,183.784,253.03,185.474,394.272l0.005,0.408l-0.112,0.391L1841.8,2679.932z M1163.206,2095.596
				c187.813,0,365.684,64.956,494.668,184.517c107.397,99.59,171.797,226.86,186.86,368.867l319.355-1127.415
				c-1.792-139.392-68.535-281.252-183.193-389.37l-0.561-0.493c-172.446-162.383-411.235-222.095-639.092-159.873
				l-321.914,1136.418C1067.493,2099.761,1115.682,2095.596,1163.206,2095.596z"/>
		</g>
		<g>
			<path style="fill:#1E276A;" d="M1843.352,2684.927c-0.674,0-1.353-0.034-2.036-0.098c-9.976-0.981-17.827-8.96-18.638-18.955
				c-12.979-160.146-92.764-304.146-224.663-405.474c-156.172-119.971-367.178-166.694-578.901-128.208
				c-7.06,1.274-14.238-1.162-19.048-6.455c-4.81-5.298-6.548-12.7-4.6-19.585l323.564-1142.261
				c1.977-6.973,7.451-12.407,14.438-14.333c209.673-57.742,430.103-15.51,604.756,115.886
				c154.121,115.952,247.354,286.509,249.4,456.243c0.024,1.992-0.24,3.979-0.781,5.898l-323.564,1142.263
				C1860.735,2678.838,1852.532,2684.927,1843.352,2684.927z M1164.09,2077.568c169.771,0,331.567,51.929,459.18,149.961
				c115.01,88.354,193.052,207.144,225.62,341.021l297.241-1049.336c-2.944-156.003-89.805-313.044-232.827-420.645
				c-161.182-121.267-363.799-161.809-557.603-112.034l-311.479,1099.597C1084.383,2080.4,1124.461,2077.568,1164.09,2077.568z"/>
		</g>
		<g style="opacity:0.4;">
			<g>
				<path style="fill:#1E276A;" d="M2307.89,1433.872c149.427-133.714,380.318-173.349,564.412-92.243
					c2.364,1.057,3.424,3.829,2.368,6.193c-0.963,2.156-3.368,3.223-5.574,2.594c-47.122-13.38-95.119-21.844-143.373-24.434
					c-96.432-4.936-193.243,12.158-282.7,48.593c-44.914,17.907-87.904,40.67-129.476,66.747
					C2309.14,1444.213,2303.487,1437.897,2307.89,1433.872L2307.89,1433.872z"/>
			</g>
		</g>
		<g style="opacity:0.4;">
			<g>
				<path style="fill:#1E276A;" d="M2691.532,1427c38.208-6.469,77.206,1.567,113.006,15.014
					c11.908,4.653,23.551,10.042,34.435,17.022c3.418,2.051,1.338,7.672-2.566,7.029c-37.008-5.525-72.878-13.205-109.29-21.224
					c-12.01-2.951-24.055-5.937-36.179-10.383C2687.287,1433.27,2687.772,1427.58,2691.532,1427L2691.532,1427z"/>
			</g>
		</g>
		<g style="opacity:0.4;">
			<g>
				<path style="fill:#1E276A;" d="M2274.882,1550.4c75.668-77.04,196.313-122.504,303.695-122.308
					c5.373,0.041,6.383,8.041,1.063,9.293c-52.439,12.654-104.434,28.168-154.138,48.786
					c-24.749,10.254-49.022,21.555-73.041,33.622c-24.105,11.963-47.646,25.093-71.922,38.056
					C2275.988,1560.381,2271.121,1554.184,2274.882,1550.4L2274.882,1550.4z"/>
			</g>
		</g>
		<g style="opacity:0.4;">
			<g>
				<path style="fill:#1E276A;" d="M2239.518,1675.244c149.427-133.714,380.318-173.349,564.412-92.243
					c2.364,1.057,3.424,3.829,2.368,6.193c-0.963,2.156-3.368,3.223-5.574,2.594c-47.122-13.38-95.119-21.845-143.373-24.435
					c-96.432-4.936-193.243,12.158-282.7,48.593c-44.914,17.907-87.904,40.67-129.476,66.747
					C2240.767,1685.584,2235.114,1679.269,2239.518,1675.244L2239.518,1675.244z"/>
			</g>
		</g>
		<g style="opacity:0.4;">
			<g>
				<path style="fill:#1E276A;" d="M2205.664,1794.757c149.427-133.714,380.318-173.349,564.411-92.243
					c2.364,1.057,3.425,3.829,2.368,6.193c-0.963,2.156-3.368,3.223-5.574,2.594c-47.122-13.38-95.119-21.844-143.373-24.435
					c-96.432-4.936-193.243,12.158-282.7,48.593c-44.914,17.907-87.904,40.67-129.476,66.747
					C2206.914,1805.097,2201.26,1798.782,2205.664,1794.757L2205.664,1794.757z"/>
			</g>
		</g>
		<g style="opacity:0.4;">
			<g>
				<path style="fill:#1E276A;" d="M2356.27,1889.116c112.614-47.825,248.031-42.119,357.888,10.802
					c4.848,2.413,2.169,10.114-3.207,8.787c-86.297-21.471-174.999-28.842-263.476-20.832c-29.43,2.273-58.754,6.288-88.651,10.239
					C2353.626,1898.894,2351.29,1891.234,2356.27,1889.116L2356.27,1889.116z"/>
			</g>
		</g>
		<g style="opacity:0.4;">
			<g>
				<path style="fill:#1E276A;" d="M2150.311,1992.907c11.098-16.653,26.633-28.736,43.429-38.882
					c16.827-9.927,34.664-18.06,54.068-21.77c3.72-0.801,6.182,4.226,3.349,6.691c-21.403,19.08-44.903,34.51-69.77,48.426
					c-8.38,4.36-16.912,8.542-26.551,11.494C2151.407,2000.058,2148.27,1995.849,2150.311,1992.907L2150.311,1992.907z"/>
			</g>
		</g>
		<g style="opacity:0.4;">
			<g>
				<path style="fill:#1E276A;" d="M2109.483,2134.3c149.427-133.715,380.318-173.349,564.412-92.243
					c2.364,1.057,3.424,3.829,2.368,6.193c-0.963,2.156-3.368,3.222-5.574,2.594c-47.122-13.38-95.12-21.844-143.373-24.435
					c-96.432-4.936-193.243,12.158-282.7,48.593c-44.914,17.907-87.904,40.67-129.476,66.747
					C2110.732,2144.641,2105.079,2138.325,2109.483,2134.3L2109.483,2134.3z"/>
			</g>
		</g>
		<g style="opacity:0.4;">
			<g>
				<path style="fill:#1E276A;" d="M2088.023,1523.704c-51.255-107.537-125.749-202.336-219.124-276.119
					c-30.965-24.699-63.89-47.051-98.11-68.002c-2.215-1.346-2.92-4.234-1.573-6.449c1.201-1.976,3.644-2.743,5.726-1.931
					c113.812,45.715,212.78,130.272,275.221,235.992c20.531,35.583,37.053,73.63,46.667,113.362
					C2098.036,1525.815,2090.561,1528.824,2088.023,1523.704L2088.023,1523.704z"/>
			</g>
			<g>
				<path style="fill:#1E276A;" d="M2057.186,1632.565c-52.187-110.079-129.21-206.632-225.63-280.86
					c-31.986-24.849-65.996-47.204-101.359-68c-2.238-1.307-2.994-4.18-1.688-6.419c1.169-2.002,3.607-2.811,5.707-2.026
					c117.026,45.092,219.214,130.662,283.623,238.439c21.19,36.27,38.229,75.122,48.154,115.719
					C2067.21,1634.678,2059.724,1637.705,2057.186,1632.565L2057.186,1632.565z"/>
			</g>
			<g>
				<path style="fill:#1E276A;" d="M1647.96,1432.653c-25.447-3.316-49.2-10.303-73.508-17.439
					c-24.165-7.311-48.055-14.258-71.776-23.547c-3.75-1.364-2.754-7.302,1.209-7.384c38.764-1.341,77.531,7.086,113.135,22.101
					c11.777,5.286,23.263,11.318,33.763,19.339C1653.913,1427.963,1651.727,1433.248,1647.96,1432.653L1647.96,1432.653z"/>
			</g>
			<g>
				<path style="fill:#1E276A;" d="M2010.288,1798.129c-60.749-124.924-150.063-230.198-261.304-313.054
					c-4.365-3.261-0.112-10.49,4.922-7.955c124.891,63.229,231.762,180.016,265.191,317.86
					C2020.272,1800.193,2012.742,1803.09,2010.288,1798.129L2010.288,1798.129z"/>
			</g>
			<g>
				<path style="fill:#1E276A;" d="M1975.119,1922.284c-68.714-154.628-195.454-279.07-347.947-350.678
					c-50.792-23.997-104.451-42.095-159.815-54.86c-2.524-0.569-4.109-3.076-3.54-5.6c0.526-2.333,2.73-3.86,5.051-3.63
					c57.339,5.913,113.938,20.846,167.614,42.96c107.42,44.359,203.636,118.182,271.503,212.816
					c33.71,47.438,60.526,100.089,75.943,155.845C1985.222,1924.379,1977.751,1927.768,1975.119,1922.284L1975.119,1922.284z"/>
			</g>
			<g>
				<path style="fill:#1E276A;" d="M1941.23,2041.92c-68.714-154.628-195.454-279.07-347.947-350.678
					c-50.792-23.996-104.451-42.095-159.815-54.86c-2.524-0.569-4.109-3.076-3.54-5.6c0.526-2.333,2.731-3.86,5.051-3.63
					c57.339,5.913,113.938,20.847,167.614,42.96c107.42,44.359,203.636,118.182,271.503,212.816
					c33.71,47.438,60.526,100.089,75.943,155.845C1951.333,2044.015,1943.862,2047.404,1941.23,2041.92L1941.23,2041.92z"/>
			</g>
			<g>
				<path style="fill:#1E276A;" d="M1889.188,2328.504c-68.714-154.628-195.454-279.07-347.947-350.678
					c-50.792-23.996-104.451-42.095-159.815-54.86c-2.524-0.569-4.109-3.076-3.54-5.6c0.526-2.333,2.731-3.86,5.051-3.63
					c57.339,5.913,113.938,20.846,167.614,42.96c107.42,44.359,203.636,118.182,271.503,212.816
					c33.71,47.438,60.526,100.089,75.943,155.845C1899.291,2330.599,1891.82,2333.989,1889.188,2328.504L1889.188,2328.504z"/>
			</g>
			<g>
				<path style="fill:#1E276A;" d="M1689.881,1146.139c-48.971-12.39-96.357-27.999-147.459-26.212
					c-2.099-0.03-3.776-1.755-3.747-3.853c0.021-1.528,0.945-2.833,2.253-3.419c12.356-5.505,25.915-8.794,39.542-9.64
					c13.613-0.885,27.384-0.066,40.671,2.587c13.314,2.554,26.291,6.564,38.535,12.127c12.299,5.765,23.907,12.497,33.932,21.921
					c1.533,1.477,1.579,3.917,0.102,5.45C1692.685,1146.164,1691.214,1146.504,1689.881,1146.139L1689.881,1146.139z"/>
			</g>
		</g>
		<g>
			<path style="fill:#FFFFFF;" d="M821.338,2268.374c439.747,16.548,835.257,60.985,1022,395.824
				c-30.427-375.423-408.435-628.662-827.93-552.394L821.338,2268.374z"/>
			<path style="fill:#1E276A;" d="M1847.176,2676.846l-6.289-11.279c-187.3-335.84-589.194-378.188-1019.658-394.39l-7.485-0.278
				l200.459-161.729l0.703-0.127c218.267-39.678,436.021,8.691,597.446,132.695c137.236,105.425,220.259,255.376,233.784,422.236
				L1847.176,2676.846z M828.929,2265.854c424.429,16.294,820.2,59.575,1010.425,385.698
				c-16.528-160.083-98.003-303.638-230.42-405.361c-160.005-122.915-375.869-170.908-592.319-131.758L828.929,2265.854z"/>
		</g>
		<g>
			<polygon style="fill:#FFFFFF;" points="1133.172,1167.524 821.338,2268.374 1015.408,2111.804 1338.973,969.542 			"/>
			<path style="fill:#1E276A;" d="M816.233,2276.099l2.402-8.491l312.046-1101.58l0.547-0.525l213.267-205.171l-2.822,9.973
				l-323.809,1143.118l-0.693,0.562L816.233,2276.099z M1135.662,1169.021L826.438,2260.649l186.514-150.469L1333.45,978.75
				L1135.662,1169.021z"/>
		</g>
		<g style="opacity:0.3;">
			<path style="fill:#1E276A;" d="M821.338,2268.374c439.747,16.548,835.257,60.985,1022,395.824
				c-30.427-375.423-408.435-628.662-827.93-552.394L821.338,2268.374z"/>
		</g>
		<g style="opacity:0.3;">
			<polygon style="fill:#1E276A;" points="1133.172,1167.524 821.338,2268.374 1015.408,2111.804 1338.973,969.542 			"/>
		</g>
		<g>
			<path style="fill:#1E276A;" d="M1843.338,2684.927c-7.358,0-14.365-3.936-18.101-10.63
				c-182.769-327.715-579.526-369.214-1004.683-385.21c-8.638-0.327-16.167-5.977-18.887-14.18
				c-2.725-8.203-0.073-17.236,6.655-22.666l194.072-156.572c2.695-2.173,5.893-3.638,9.307-4.258
				c223.208-40.591,446.133,9.028,611.567,136.118c141.299,108.545,226.792,263.032,240.728,434.995
				c0.786,9.722-5.308,18.672-14.639,21.509C1847.366,2684.639,1845.34,2684.927,1843.338,2684.927z M877.234,2249.907
				c378.882,16.758,729.912,62.886,929.531,321.147c-31.411-121.748-103.481-229.785-208.75-310.654
				c-154.902-118.994-363.726-165.938-573.73-129.131L877.234,2249.907z"/>
		</g>
		<g>
			<path style="fill:#1E276A;" d="M821.331,2289.102c-3.965,0-7.944-1.138-11.421-3.438c-7.534-4.976-10.977-14.253-8.516-22.939
				l311.836-1100.85c1.001-3.535,2.925-6.741,5.571-9.287l205.801-197.983c6.748-6.492,17.012-7.649,25.034-2.837
				c8.027,4.817,11.831,14.417,9.277,23.423l-323.564,1142.261c-1.167,4.126-3.589,7.788-6.929,10.483l-194.072,156.572
				C830.569,2287.554,825.96,2289.102,821.331,2289.102z M1151.585,1178.572L859.036,2211.328l138.227-111.519l300.898-1062.249
				L1151.585,1178.572z"/>
		</g>
		<g style="opacity:0.3;">
			<path style="fill:#6B184E;" d="M2649.488,2911.742c-13.164-5.828-26.388-11.441-39.713-16.906
				C2623.084,2900.355,2636.309,2905.968,2649.488,2911.742z"/>
			<path style="fill:#1E276A;" d="M2648.362,2914.312c-12.451-5.454-25.425-10.977-39.663-16.885l2.139-5.19
				c14.121,5.796,27.134,11.338,39.775,16.938c0.005,0,0,0,0.005,0c0,0,0.005,0,0.01,0.005L2648.362,2914.312z"/>
		</g>
		<g style="opacity:0.3;">
			<path style="fill:#1E276A;" d="M1982.257,1129.657l-324.253,1144.692c0,0-0.726,2.769-2.04,7.821
				c105.872,98.171,175.059,230.103,187.374,382.028l323.564-1142.263c-1.749-146.191-72.32-286.622-184.591-392.263
				L1982.257,1129.657z"/>
		</g>
		<g style="opacity:0.3;">
			<path style="fill:#1E276A;" d="M2593.912,2323.145l-39.198,138.379c-254.07-79.566-479.668-33.076-673.102,155.813
				C2004.756,2327.481,2242.189,2229.417,2593.912,2323.145z"/>
		</g>
		<g style="opacity:0.3;">
			<path style="fill:#1E276A;" d="M2166.903,1521.936l-323.564,1142.263c62.904-188.709,197.435-308.253,360.265-355.565
				l322.448-1138.321C2363.793,1228.577,2226.285,1354.509,2166.903,1521.936z"/>
		</g>
		<g>
			<polygon style="fill:#E03D6B;" points="2423.969,2532.305 2569.701,2573.586 2505.485,2800.286 2446.713,2729.887 
				2359.752,2759.005 			"/>
		</g>
		<g style="opacity:0.55;">
			<polygon style="fill:#FFFFFF;" points="2371.601,2717.156 2359.747,2759.003 2446.691,2729.888 2505.51,2800.293 
				2517.364,2758.445 2458.545,2688.04 			"/>
		</g>
		<g>
			<path style="fill:#1E276A;" d="M2505.486,2817.124c-4.932,0-9.688-2.173-12.925-6.045l-51.406-61.577l-76.055,25.464
				c-5.918,1.973-12.446,0.527-16.968-3.779c-4.517-4.312-6.279-10.767-4.575-16.772l64.214-226.699
				c2.534-8.945,11.86-14.136,20.786-11.606l145.732,41.279c8.945,2.534,14.141,11.841,11.606,20.786l-64.214,226.704
				c-1.699,6.006-6.587,10.576-12.691,11.875C2507.825,2817.002,2506.648,2817.124,2505.486,2817.124z M2446.707,2713.052
				c4.902,0,9.673,2.144,12.93,6.045l38.34,45.928l50.938-179.829l-113.335-32.104l-50.938,179.829l56.723-18.994
				C2443.123,2713.335,2444.925,2713.052,2446.707,2713.052z"/>
		</g>
	</g>
</g>
</svg>
